{
.appVersion = "895";
copyright = "Copyright 2009, 2010, 2011 by Daniel Johnson.  Released under the terms of the Open Font License.";
customParameters = (
{
name = licenseURL;
value = "http://scripts.sil.org/OFL";
},
{
name = vendorID;
value = PfEd;
},
{
name = panose;
value = (
2,
0,
5,
3,
0,
0,
0,
0,
0,
0
);
},
{
name = unicodeRanges;
value = (
0,
1,
2,
3,
5,
6,
7,
9,
29,
31,
32,
33,
35,
38,
45,
60,
62,
69
);
},
{
name = codePageRanges;
value = (
1252,
1250,
1251,
1253,
1254,
1257
);
},
{
name = glyphOrder;
value = (
.notdef,
uni0000,
uni000D,
space,
exclam,
quotedbl,
numbersign,
dollar,
percent,
ampersand,
quotesingle,
parenleft,
parenright,
asterisk,
plus,
comma,
hyphen,
period,
slash,
zero,
one,
two,
three,
four,
five,
six,
seven,
eight,
nine,
colon,
semicolon,
less,
equal,
greater,
question,
at,
A,
B,
C,
D,
E,
F,
G,
H,
I,
J,
K,
L,
M,
N,
O,
P,
Q,
R,
S,
T,
U,
V,
W,
X,
Y,
Z,
bracketleft,
backslash,
bracketright,
asciicircum,
underscore,
grave,
a,
b,
c,
d,
e,
f,
g,
h,
i,
j,
k,
l,
m,
n,
o,
p,
q,
r,
s,
t,
u,
v,
w,
x,
y,
z,
braceleft,
bar,
braceright,
asciitilde,
exclamdown,
cent,
sterling,
currency,
yen,
brokenbar,
section,
dieresis,
copyright,
ordfeminine,
guillemotleft,
logicalnot,
uni00AD,
registered,
macron,
degree,
plusminus,
twosuperior,
threesuperior,
acute,
uni00B5,
paragraph,
periodcentered,
cedilla,
onesuperior,
ordmasculine,
guillemotright,
onequarter,
onehalf,
threequarters,
questiondown,
Agrave,
Aacute,
Acircumflex,
Atilde,
Adieresis,
Aring,
AE,
Ccedilla,
Egrave,
Eacute,
Ecircumflex,
Edieresis,
Igrave,
Iacute,
Icircumflex,
Idieresis,
Eth,
Ntilde,
Ograve,
Oacute,
Ocircumflex,
Otilde,
Odieresis,
multiply,
Oslash,
Ugrave,
Uacute,
Ucircumflex,
Udieresis,
Yacute,
Thorn,
germandbls,
agrave,
aacute,
acircumflex,
atilde,
adieresis,
aring,
ae,
ccedilla,
egrave,
eacute,
ecircumflex,
edieresis,
igrave,
iacute,
icircumflex,
idieresis,
eth,
ntilde,
ograve,
oacute,
ocircumflex,
otilde,
odieresis,
divide,
oslash,
ugrave,
uacute,
ucircumflex,
udieresis,
yacute,

glyphs = (
{
glyphname = .notdef;
lastChange = "2016-07-31 02:24:43 +0000";
layers = (
{
layerId = "7FF32B46-F6F7-4405-9AA0-D8922FAB2D23";
paths = (
{
closed = 1;
nodes = (
"156 589 OFFCURVE",
"169 606 OFFCURVE",
"210 606 CURVE SMOOTH",
"328 606 LINE SMOOTH",
"369 606 OFFCURVE",
"382 589 OFFCURVE",
"382 546 CURVE SMOOTH",
"382 130 LINE SMOOTH",
"382 87 OFFCURVE",
"369 71 OFFCURVE",
"328 71 CURVE SMOOTH",
"210 71 LINE SMOOTH",
"169 71 OFFCURVE",
"156 87 OFFCURVE",
"156 130 CURVE SMOOTH",
"156 546 LINE SMOOTH"
);
},
{
closed = 1;
nodes = (
"453 678 LINE",
"85 678 LINE",
"85 0 LINE",
"453 0 LINE"
);
}
);
width = 538;
}
);
note = .notdef;
},
{
glyphname = exclam;
lastChange = "2016-07-31 02:24:38 +0000";
layers = (
{
layerId = "7FF32B46-F6F7-4405-9AA0-D8922FAB2D23";
paths = (
{
closed = 1;
nodes = (
"174 52 OFFCURVE",
"145 70 OFFCURVE",
"123 70 CURVE SMOOTH",
"101 70 OFFCURVE",
"71 52 OFFCURVE",
"71 29 CURVE SMOOTH",
"71 6 OFFCURVE",
"100 -12 OFFCURVE",
"123 -12 CURVE SMOOTH",
"146 -12 OFFCURVE",
"174 6 OFFCURVE",
"174 29 CURVE SMOOTH"
);
},
{
closed = 1;
nodes = (
"96 175 OFFCURVE",
"105 164 OFFCURVE",
"122 164 CURVE SMOOTH",
"139 164 OFFCURVE",
"148 175 OFFCURVE",
"148 197 CURVE SMOOTH",
"148 616 LINE SMOOTH",
"148 638 OFFCURVE",
"139 649 OFFCURVE",
"122 649 CURVE SMOOTH",
"105 649 OFFCURVE",
"96 638 OFFCURVE",
"96 616 CURVE SMOOTH",
"96 197 LINE SMOOTH"
);
}
);
width = 244;
}
);
note = exclam;
unicode = 0021;
},
{
glyphname = quotedbl;
lastChange = "2016-07-31 02:24:38 +0000";
layers = (
{
layerId = "7FF32B46-F6F7-4405-9AA0-D8922FAB2D23";
paths = (
{
closed = 1;
nodes = (
"224 637 OFFCURVE",
"215 648 OFFCURVE",
"198 648 CURVE SMOOTH",
"181 648 OFFCURVE",
"172 637 OFFCURVE",
"172 615 CURVE SMOOTH",
"172 466 LINE SMOOTH",
"172 444 OFFCURVE",
"181 433 OFFCURVE",
"198 433 CURVE SMOOTH",
"215 433 OFFCURVE",
"224 444 OFFCURVE",
"224 466 CURVE SMOOTH",
"224 615 LINE SMOOTH"
);
},
{
closed = 1;
nodes = (
"122 637 OFFCURVE",
"114 648 OFFCURVE",
"97 648 CURVE SMOOTH",
"80 648 OFFCURVE",
"71 637 OFFCURVE",
"71 615 CURVE SMOOTH",
"71 466 LINE SMOOTH",
"71 444 OFFCURVE",
"80 433 OFFCURVE",
"97 433 CURVE SMOOTH",
"114 433 OFFCURVE",
"122 444 OFFCURVE",
"122 466 CURVE SMOOTH",
"122 615 LINE SMOOTH"
);
}
);
width = 295;
}
);
leftKerningGroup = quotedbl;
note = quotedbl;
rightKerningGroup = quotedbl;
unicode = 0022;
},
{
glyphname = numbersign;
lastChange = "2016-07-31 02:24:38 +0000";
layers = (
{
layerId = "7FF32B46-F6F7-4405-9AA0-D8922FAB2D23";
paths = (
{
closed = 1;
nodes = (
"484 630 OFFCURVE",
"475 622 OFFCURVE",
"469 606 CURVE SMOOTH",
"407 436 LINE",
"283 436 LINE",
"340 588 LINE",
"342 596 OFFCURVE",
"343 602 OFFCURVE",
"343 605 CURVE SMOOTH",
"343 622 OFFCURVE",
"334 630 OFFCURVE",
"317 630 CURVE SMOOTH",
"306 630 OFFCURVE",
"298 622 OFFCURVE",
"291 606 CURVE",
"229 436 LINE",
"107 436 LINE SMOOTH",
"86 436 OFFCURVE",
"75 427 OFFCURVE",
"75 410 CURVE SMOOTH",
"75 393 OFFCURVE",
"86 384 OFFCURVE",
"107 384 CURVE SMOOTH",
"210 384 LINE",
"162 252 LINE",
"77 252 LINE SMOOTH",
"55 252 OFFCURVE",
"44 243 OFFCURVE",
"44 226 CURVE SMOOTH",
"44 209 OFFCURVE",
"55 200 OFFCURVE",
"77 200 CURVE SMOOTH",
"143 200 LINE",
"87 48 LINE",
"85 40 OFFCURVE",
"84 34 OFFCURVE",
"84 31 CURVE SMOOTH",
"84 14 OFFCURVE",
"92 6 OFFCURVE",
"109 6 CURVE SMOOTH",
"122 6 OFFCURVE",
"131 14 OFFCURVE",
"136 30 CURVE",
"197 200 LINE",
"322 200 LINE",
"265 48 LINE",
"263 42 OFFCURVE",
"262 37 OFFCURVE",
"262 32 CURVE SMOOTH",
"262 15 OFFCURVE",
"271 6 OFFCURVE",
"288 6 CURVE SMOOTH",
"301 6 OFFCURVE",
"310 14 OFFCURVE",
"315 30 CURVE",
"377 200 LINE",
"495 200 LINE SMOOTH",
"517 200 OFFCURVE",
"528 209 OFFCURVE",
"528 226 CURVE SMOOTH",
"528 243 OFFCURVE",
"517 252 OFFCURVE",
"495 252 CURVE SMOOTH",
"396 252 LINE",
"444 384 LINE",
"526 384 LINE SMOOTH",
"548 384 OFFCURVE",
"559 393 OFFCURVE",
"559 410 CURVE SMOOTH",
"559 427 OFFCURVE",
"548 436 OFFCURVE",
"526 436 CURVE SMOOTH",
"463 436 LINE",
"519 588 LINE SMOOTH",
"521 594 OFFCURVE",
"522 599 OFFCURVE",
"522 604 CURVE SMOOTH",
"522 621 OFFCURVE",
"513 630 OFFCURVE",
"496 630 CURVE SMOOTH"
);
},
{
closed = 1;
nodes = (
"340 252 LINE",
"217 252 LINE",
"265 384 LINE",
"388 384 LINE"
);
}
);
width = 603;
}
);
note = numbersign;
rightKerningGroup = numbersign;
unicode = 0023;
},
{
glyphname = dollar;
lastChange = "2016-07-31 02:24:38 +0000";
layers = (
{
layerId = "7FF32B46-F6F7-4405-9AA0-D8922FAB2D23";
paths = (
{
closed = 1;
nodes = (
"324 501 LINE",
"418 501 LINE SMOOTH",
"459 501 OFFCURVE",
"473 487 OFFCURVE",
"473 443 CURVE SMOOTH",
"473 420 OFFCURVE",
"482 409 OFFCURVE",
"499 409 CURVE SMOOTH",
"516 409 OFFCURVE",
"525 419 OFFCURVE",
"525 438 CURVE SMOOTH",
"525 457 OFFCURVE",
"524 473 OFFCURVE",
"522 484 CURVE SMOOTH",
"514 531 OFFCURVE",
"482 554 OFFCURVE",
"425 554 CURVE SMOOTH",
"324 554 LINE",
"324 611 LINE SMOOTH",
"324 632 OFFCURVE",
"315 643 OFFCURVE",
"298 643 CURVE SMOOTH",
"281 643 OFFCURVE",
"272 632 OFFCURVE",
"272 610 CURVE SMOOTH",
"272 553 LINE",
"190 553 LINE SMOOTH",
"104 553 OFFCURVE",
"61 513 OFFCURVE",
"61 432 CURVE SMOOTH",
"61 345 OFFCURVE",
"104 301 OFFCURVE",
"190 301 CURVE SMOOTH",
"272 301 LINE",
"272 141 LINE",
"168 141 LINE SMOOTH",
"127 141 OFFCURVE",
"113 156 OFFCURVE",
"113 201 CURVE SMOOTH",
"113 223 OFFCURVE",
"104 234 OFFCURVE",
"87 234 CURVE SMOOTH",
"70 234 OFFCURVE",
"61 224 OFFCURVE",
"61 205 CURVE SMOOTH",
"61 186 OFFCURVE",
"62 170 OFFCURVE",
"64 159 CURVE SMOOTH",
"72 112 OFFCURVE",
"104 89 OFFCURVE",
"161 89 CURVE SMOOTH",
"272 89 LINE",
"272 24 LINE SMOOTH",
"272 3 OFFCURVE",
"281 -7 OFFCURVE",
"298 -7 CURVE SMOOTH",
"315 -7 OFFCURVE",
"324 4 OFFCURVE",
"324 25 CURVE SMOOTH",
"324 90 LINE",
"399 90 LINE SMOOTH",
"484 90 OFFCURVE",
"527 134 OFFCURVE",
"527 222 CURVE SMOOTH",
"527 309 OFFCURVE",
"484 353 OFFCURVE",
"399 353 CURVE SMOOTH",
"324 353 LINE"
);
},
{
closed = 1;
nodes = (
"451 301 OFFCURVE",
"475 265 OFFCURVE",
"475 214 CURVE SMOOTH",
"475 165 OFFCURVE",
"455 141 OFFCURVE",
"416 141 CURVE SMOOTH",
"324 141 LINE",
"324 301 LINE",
"416 301 LINE SMOOTH"
);
},
{
closed = 1;
nodes = (
"137 353 OFFCURVE",
"113 382 OFFCURVE",
"113 434 CURVE SMOOTH",
"113 479 OFFCURVE",
"133 501 OFFCURVE",
"172 501 CURVE SMOOTH",
"272 501 LINE",
"272 353 LINE",
"172 353 LINE SMOOTH"
);
}
);
width = 587;
}
);
note = dollar;
rightKerningGroup = numbersign;
unicode = 0024;
},
{
glyphname = percent;
lastChange = "2016-07-31 02:24:38 +0000";
layers = (
{
layerId = "7FF32B46-F6F7-4405-9AA0-D8922FAB2D23";
paths = (
{
closed = 1;
nodes = (
"413 213 OFFCURVE",
"427 200 OFFCURVE",
"427 184 CURVE SMOOTH",
"427 167 OFFCURVE",
"414 153 OFFCURVE",
"398 153 CURVE SMOOTH",
"381 153 OFFCURVE",
"367 167 OFFCURVE",
"367 184 CURVE SMOOTH",
"367 200 OFFCURVE",
"381 213 OFFCURVE",
"397 213 CURVE SMOOTH"
);
},
{
closed = 1;
nodes = (
"354 109 OFFCURVE",
"374 101 OFFCURVE",
"397 101 CURVE SMOOTH",
"443 101 OFFCURVE",
"479 138 OFFCURVE",
"479 183 CURVE SMOOTH",
"479 228 OFFCURVE",
"443 265 OFFCURVE",
"397 265 CURVE SMOOTH",
"351 265 OFFCURVE",
"312 228 OFFCURVE",
"312 183 CURVE SMOOTH",
"312 160 OFFCURVE",
"320 141 OFFCURVE",
"337 125 CURVE SMOOTH"
);
},
{
closed = 1;
nodes = (
"149 493 OFFCURVE",
"156 496 OFFCURVE",
"164 496 CURVE SMOOTH",
"179 496 OFFCURVE",
"194 483 OFFCURVE",
"194 466 CURVE SMOOTH",
"194 449 OFFCURVE",
"179 436 OFFCURVE",
"164 436 CURVE SMOOTH",
"148 436 OFFCURVE",
"134 450 OFFCURVE",
"134 466 CURVE SMOOTH",
"134 474 OFFCURVE",
"137 481 OFFCURVE",
"143 487 CURVE SMOOTH"
);
},
{
closed = 1;
nodes = (
"122 392 OFFCURVE",
"142 384 OFFCURVE",
"165 384 CURVE SMOOTH",
"211 384 OFFCURVE",
"248 421 OFFCURVE",
"248 466 CURVE SMOOTH",
"248 511 OFFCURVE",
"211 548 OFFCURVE",
"165 548 CURVE SMOOTH",
"119 548 OFFCURVE",
"81 511 OFFCURVE",
"81 466 CURVE SMOOTH",
"81 443 OFFCURVE",
"89 424 OFFCURVE",
"106 408 CURVE SMOOTH"
);
},
{
closed = 1;
nodes = (
"73 162 OFFCURVE",
"69 154 OFFCURVE",
"69 147 CURVE SMOOTH",
"69 132 OFFCURVE",
"83 121 OFFCURVE",
"96 121 CURVE SMOOTH",
"103 121 OFFCURVE",
"110 125 OFFCURVE",
"119 133 CURVE",
"479 479 LINE",
"487 488 OFFCURVE",
"491 496 OFFCURVE",
"491 503 CURVE SMOOTH",
"491 517 OFFCURVE",
"477 528 OFFCURVE",
"465 528 CURVE SMOOTH",
"458 528 OFFCURVE",
"451 524 OFFCURVE",
"442 516 CURVE",
"81 170 LINE SMOOTH"
);
}
);
width = 559;
}
);
note = percent;
rightKerningGroup = numbersign;
unicode = 0025;
},
{
glyphname = ampersand;
lastChange = "2016-07-31 02:24:38 +0000";
layers = (
{
layerId = "7FF32B46-F6F7-4405-9AA0-D8922FAB2D23";
paths = (
{
closed = 1;
nodes = (
"67 318 OFFCURVE",
"39 261 OFFCURVE",
"39 188 CURVE SMOOTH",
"39 40 OFFCURVE",
"153 -14 OFFCURVE",
"248 -14 CURVE SMOOTH",
"300 -14 OFFCURVE",
"348 6 OFFCURVE",
"393 45 CURVE",
"428 4 LINE SMOOTH",
"438 -7 OFFCURVE",
"448 -12 OFFCURVE",
"458 -12 CURVE SMOOTH",
"473 -12 OFFCURVE",
"480 -4 OFFCURVE",
"480 11 CURVE SMOOTH",
"480 20 OFFCURVE",
"478 27 OFFCURVE",
"473 32 CURVE",
"427 84 LINE",
"457 126 OFFCURVE",
"472 174 OFFCURVE",
"472 227 CURVE SMOOTH",
"472 251 OFFCURVE",
"464 263 OFFCURVE",
"447 263 CURVE SMOOTH",
"430 263 OFFCURVE",
"421 247 OFFCURVE",
"421 216 CURVE SMOOTH",
"421 185 OFFCURVE",
"411 154 OFFCURVE",
"392 125 CURVE",
"156 397 LINE SMOOTH",
"131 426 OFFCURVE",
"118 455 OFFCURVE",
"118 486 CURVE SMOOTH",
"118 547 OFFCURVE",
"179 600 OFFCURVE",
"243 600 CURVE SMOOTH",
"274 600 OFFCURVE",
"298 584 OFFCURVE",
"316 552 CURVE SMOOTH",
"323 540 OFFCURVE",
"329 529 OFFCURVE",
"336 518 CURVE",
"344 508 OFFCURVE",
"352 503 OFFCURVE",
"360 503 CURVE SMOOTH",
"375 503 OFFCURVE",
"386 515 OFFCURVE",
"386 527 CURVE SMOOTH",
"386 532 OFFCURVE",
"383 541 OFFCURVE",
"376 554 CURVE SMOOTH",
"341 619 OFFCURVE",
"297 652 OFFCURVE",
"243 652 CURVE SMOOTH",
"155 652 OFFCURVE",
"64 573 OFFCURVE",
"64 490 CURVE SMOOTH",
"64 448 OFFCURVE",
"84 404 OFFCURVE",
"123 357 CURVE"
);
},
{
closed = 1;
nodes = (
"324 53 OFFCURVE",
"287 38 OFFCURVE",
"247 38 CURVE SMOOTH",
"167 38 OFFCURVE",
"91 79 OFFCURVE",
"91 192 CURVE SMOOTH",
"91 249 OFFCURVE",
"113 291 OFFCURVE",
"157 319 CURVE",
"359 84 LINE"
);
}
);
width = 508;
}
);
leftKerningGroup = ampersand;
note = ampersand;
rightKerningGroup = ampersand;
unicode = 0026;
},
{
glyphname = quotesingle;
lastChange = "2016-07-31 02:24:38 +0000";
layers = (
{
layerId = "7FF32B46-F6F7-4405-9AA0-D8922FAB2D23";
paths = (
{
closed = 1;
nodes = (
"122 637 OFFCURVE",
"114 648 OFFCURVE",
"97 648 CURVE SMOOTH",
"80 648 OFFCURVE",
"71 637 OFFCURVE",
"71 615 CURVE SMOOTH",
"71 466 LINE SMOOTH",
"71 444 OFFCURVE",
"80 433 OFFCURVE",
"97 433 CURVE SMOOTH",
"114 433 OFFCURVE",
"122 444 OFFCURVE",
"122 466 CURVE SMOOTH",
"122 615 LINE SMOOTH"
);
}
);
width = 194;
}
);
leftKerningGroup = quotedbl;
note = quotesingle;
rightKerningGroup = quotedbl;
unicode = 0027;
},
{
glyphname = parenleft;
lastChange = "2016-07-31 02:24:38 +0000";
layers = (
{
layerId = "7FF32B46-F6F7-4405-9AA0-D8922FAB2D23";
paths = (
{
closed = 1;
nodes = (
"125 508 OFFCURVE",
"125 512 OFFCURVE",
"125 516 CURVE SMOOTH",
"125 620 OFFCURVE",
"124 630 OFFCURVE",
"203 631 CURVE",
"203 683 LINE",
"201 683 OFFCURVE",
"199 683 OFFCURVE",
"198 683 CURVE SMOOTH",
"115 683 OFFCURVE",
"73 664 OFFCURVE",
"73 503 CURVE SMOOTH",
"73 133 LINE SMOOTH",
"73 92 OFFCURVE",
"76 60 OFFCURVE",
"81 35 CURVE SMOOTH",
"91 -14 OFFCURVE",
"115 -47 OFFCURVE",
"203 -47 CURVE",
"203 5 LINE",
"178 5 OFFCURVE",
"160 7 OFFCURVE",
"151 10 CURVE",
"144 13 OFFCURVE",
"137 19 OFFCURVE",
"132 29 CURVE",
"127 38 OFFCURVE",
"125 73 OFFCURVE",
"125 133 CURVE SMOOTH",
"125 503 LINE SMOOTH"
);
}
);
width = 248;
}
);
note = parenleft;
rightKerningGroup = parenleft;
unicode = 0028;
},
{
glyphname = parenright;
lastChange = "2016-07-31 02:24:38 +0000";
layers = (
{
layerId = "7FF32B46-F6F7-4405-9AA0-D8922FAB2D23";
paths = (
{
closed = 1;
nodes = (
"123 129 OFFCURVE",
"123 125 OFFCURVE",
"123 120 CURVE SMOOTH",
"123 15 OFFCURVE",
"124 6 OFFCURVE",
"45 5 CURVE",
"45 -47 LINE",
"133 -47 OFFCURVE",
"175 -28 OFFCURVE",
"175 133 CURVE SMOOTH",
"175 503 LINE SMOOTH",
"175 544 OFFCURVE",
"173 576 OFFCURVE",
"168 601 CURVE SMOOTH",
"158 650 OFFCURVE",
"133 683 OFFCURVE",
"45 683 CURVE",
"45 631 LINE",
"48 631 OFFCURVE",
"52 631 OFFCURVE",
"55 631 CURVE SMOOTH",
"92 631 OFFCURVE",
"105 627 OFFCURVE",
"116 607 CURVE SMOOTH",
"121 598 OFFCURVE",
"123 563 OFFCURVE",
"123 503 CURVE SMOOTH",
"123 133 LINE SMOOTH"
);
}
);
width = 248;
}
);
leftKerningGroup = parenright;
note = parenright;
rightKerningGroup = numbersign;
unicode = 0029;
},
{
glyphname = asterisk;
lastChange = "2016-07-31 02:24:38 +0000";
layers = (
{
layerId = "7FF32B46-F6F7-4405-9AA0-D8922FAB2D23";
paths = (
{
closed = 1;
nodes = (
"332 440 OFFCURVE",
"326 447 OFFCURVE",
"313 455 CURVE SMOOTH",
"251 492 LINE",
"313 527 LINE",
"326 535 OFFCURVE",
"332 543 OFFCURVE",
"332 551 CURVE SMOOTH",
"332 566 OFFCURVE",
"321 578 OFFCURVE",
"309 578 CURVE SMOOTH",
"302 578 OFFCURVE",
"295 576 OFFCURVE",
"287 572 CURVE",
"224 536 LINE",
"224 608 LINE SMOOTH",
"224 630 OFFCURVE",
"215 641 OFFCURVE",
"198 641 CURVE SMOOTH",
"181 641 OFFCURVE",
"172 630 OFFCURVE",
"172 608 CURVE SMOOTH",
"172 536 LINE",
"109 572 LINE",
"101 576 OFFCURVE",
"94 578 OFFCURVE",
"89 578 CURVE SMOOTH",
"73 578 OFFCURVE",
"65 568 OFFCURVE",
"65 549 CURVE SMOOTH",
"65 542 OFFCURVE",
"71 534 OFFCURVE",
"83 527 CURVE SMOOTH",
"146 492 LINE",
"83 455 LINE SMOOTH",
"71 448 OFFCURVE",
"65 440 OFFCURVE",
"65 432 CURVE SMOOTH",
"65 416 OFFCURVE",
"76 404 OFFCURVE",
"88 404 CURVE SMOOTH",
"94 404 OFFCURVE",
"101 406 OFFCURVE",
"109 410 CURVE",
"172 446 LINE",
"172 374 LINE SMOOTH",
"172 352 OFFCURVE",
"181 341 OFFCURVE",
"198 341 CURVE SMOOTH",
"215 341 OFFCURVE",
"224 352 OFFCURVE",
"224 374 CURVE SMOOTH",
"224 446 LINE",
"287 410 LINE",
"295 406 OFFCURVE",
"302 404 OFFCURVE",
"309 404 CURVE SMOOTH",
"322 404 OFFCURVE",
"332 419 OFFCURVE",
"332 433 CURVE SMOOTH"
);
}
);
width = 397;
}
);
leftKerningGroup = asterisk;
note = asterisk;
rightKerningGroup = asterisk;
unicode = 002A;
},
{
glyphname = plus;
lastChange = "2016-07-31 02:24:38 +0000";
layers = (
{
layerId = "7FF32B46-F6F7-4405-9AA0-D8922FAB2D23";
paths = (
{
closed = 1;
nodes = (
"285 440 LINE SMOOTH",
"285 462 OFFCURVE",
"276 473 OFFCURVE",
"259 473 CURVE SMOOTH",
"242 473 OFFCURVE",
"233 462 OFFCURVE",
"233 440 CURVE SMOOTH",
"233 257 LINE",
"69 257 LINE SMOOTH",
"48 257 OFFCURVE",
"38 248 OFFCURVE",
"38 231 CURVE SMOOTH",
"38 213 OFFCURVE",
"48 204 OFFCURVE",
"69 204 CURVE SMOOTH",
"233 204 LINE",
"233 20 LINE SMOOTH",
"233 -1 OFFCURVE",
"242 -12 OFFCURVE",
"259 -12 CURVE SMOOTH",
"276 -12 OFFCURVE",
"285 -1 OFFCURVE",
"285 20 CURVE SMOOTH",
"285 204 LINE",
"447 204 LINE SMOOTH",
"470 204 OFFCURVE",
"481 213 OFFCURVE",
"481 231 CURVE SMOOTH",
"481 248 OFFCURVE",
"470 257 OFFCURVE",
"447 257 CURVE SMOOTH",
"285 257 LINE"
);
}
);
width = 518;
}
);
note = plus;
rightKerningGroup = numbersign;
unicode = 002B;
},
{
glyphname = comma;
lastChange = "2016-07-31 02:24:38 +0000";
layers = (
{
layerId = "7FF32B46-F6F7-4405-9AA0-D8922FAB2D23";
paths = (
{
closed = 1;
nodes = (
"89 66 OFFCURVE",
"81 58 OFFCURVE",
"76 43 CURVE",
"52 -44 LINE SMOOTH",
"50 -52 OFFCURVE",
"49 -57 OFFCURVE",
"49 -60 CURVE SMOOTH",
"49 -77 OFFCURVE",
"56 -85 OFFCURVE",
"71 -85 CURVE SMOOTH",
"81 -85 OFFCURVE",
"89 -77 OFFCURVE",
"96 -61 CURVE",
"137 22 LINE SMOOTH",
"140 28 OFFCURVE",
"142 35 OFFCURVE",
"142 43 CURVE SMOOTH",
"142 58 OFFCURVE",
"116 66 OFFCURVE",
"101 66 CURVE SMOOTH"
);
}
);
width = 210;
}
);
leftKerningGroup = comma;
note = comma;
rightKerningGroup = comma;
unicode = 002C;
},
{
glyphname = hyphen;
lastChange = "2016-07-31 02:24:38 +0000";
layers = (
{
layerId = "7FF32B46-F6F7-4405-9AA0-D8922FAB2D23";
paths = (
{
closed = 1;
nodes = (
"83 257 OFFCURVE",
"73 248 OFFCURVE",
"73 231 CURVE SMOOTH",
"73 213 OFFCURVE",
"83 204 OFFCURVE",
"104 204 CURVE SMOOTH",
"349 204 LINE SMOOTH",
"372 204 OFFCURVE",
"383 213 OFFCURVE",
"383 231 CURVE SMOOTH",
"383 248 OFFCURVE",
"372 257 OFFCURVE",
"349 257 CURVE SMOOTH",
"104 257 LINE SMOOTH"
);
}
);
width = 456;
}
);
leftKerningGroup = hyphen;
note = hyphen;
rightKerningGroup = hyphen;
unicode = 002D;
},
{
glyphname = period;
lastChange = "2016-07-31 02:24:38 +0000";
layers = (
{
layerId = "7FF32B46-F6F7-4405-9AA0-D8922FAB2D23";
paths = (
{
closed = 1;
nodes = (
"65 6 OFFCURVE",
"94 -12 OFFCURVE",
"116 -12 CURVE SMOOTH",
"138 -12 OFFCURVE",
"167 6 OFFCURVE",
"167 29 CURVE SMOOTH",
"167 52 OFFCURVE",
"138 70 OFFCURVE",
"116 70 CURVE SMOOTH",
"94 70 OFFCURVE",
"65 52 OFFCURVE",
"65 29 CURVE SMOOTH"
);
}
);
width = 232;
}
);
leftKerningGroup = comma;
note = period;
rightKerningGroup = comma;
unicode = 002E;
},
{
glyphname = slash;
lastChange = "2016-07-31 02:24:38 +0000";
layers = (
{
layerId = "7FF32B46-F6F7-4405-9AA0-D8922FAB2D23";
paths = (
{
closed = 1;
nodes = (
"278 650 OFFCURVE",
"269 642 OFFCURVE",
"264 627 CURVE SMOOTH",
"46 29 LINE",
"44 21 OFFCURVE",
"43 15 OFFCURVE",
"43 11 CURVE SMOOTH",
"43 -5 OFFCURVE",
"52 -13 OFFCURVE",
"69 -13 CURVE SMOOTH",
"81 -13 OFFCURVE",
"90 -5 OFFCURVE",
"95 10 CURVE SMOOTH",
"313 608 LINE",
"315 615 OFFCURVE",
"316 621 OFFCURVE",
"316 626 CURVE SMOOTH",
"316 642 OFFCURVE",
"307 650 OFFCURVE",
"289 650 CURVE SMOOTH"
);
}
);
width = 359;
}
);
leftKerningGroup = slash;
note = slash;
rightKerningGroup = slash;
unicode = 002F;
},
{
glyphname = zero;
lastChange = "2016-07-31 02:24:38 +0000";
layers = (
{
layerId = "7FF32B46-F6F7-4405-9AA0-D8922FAB2D23";
paths = (
{
closed = 1;
nodes = (
"116 542 OFFCURVE",
"166 588 OFFCURVE",
"233 588 CURVE SMOOTH",
"359 588 LINE SMOOTH",
"426 588 OFFCURVE",
"476 542 OFFCURVE",
"476 497 CURVE SMOOTH",
"476 138 LINE SMOOTH",
"476 93 OFFCURVE",
"426 47 OFFCURVE",
"359 47 CURVE SMOOTH",
"233 47 LINE SMOOTH",
"166 47 OFFCURVE",
"116 93 OFFCURVE",
"116 138 CURVE SMOOTH",
"116 497 LINE SMOOTH"
);
},
{
closed = 1;
nodes = (
"528 575 OFFCURVE",
"453 641 OFFCURVE",
"350 641 CURVE SMOOTH",
"242 641 LINE SMOOTH",
"139 641 OFFCURVE",
"64 575 OFFCURVE",
"64 482 CURVE SMOOTH",
"64 154 LINE SMOOTH",
"64 61 OFFCURVE",
"139 -5 OFFCURVE",
"242 -5 CURVE SMOOTH",
"350 -5 LINE SMOOTH",
"453 -5 OFFCURVE",
"528 61 OFFCURVE",
"528 154 CURVE SMOOTH",
"528 482 LINE SMOOTH"
);
}
);
width = 592;
}
);
leftKerningGroup = zero;
note = zero;
rightKerningGroup = zero;
unicode = 0030;
},
{
glyphname = one;
lastChange = "2016-07-31 02:24:38 +0000";
layers = (
{
layerId = "7FF32B46-F6F7-4405-9AA0-D8922FAB2D23";
paths = (
{
closed = 1;
nodes = (
"235 562 OFFCURVE",
"245 567 OFFCURVE",
"254 576 CURVE SMOOTH",
"279 600 LINE",
"279 25 LINE SMOOTH",
"279 4 OFFCURVE",
"288 -7 OFFCURVE",
"305 -7 CURVE SMOOTH",
"322 -7 OFFCURVE",
"331 4 OFFCURVE",
"331 25 CURVE SMOOTH",
"331 657 LINE SMOOTH",
"331 676 OFFCURVE",
"321 685 OFFCURVE",
"302 685 CURVE SMOOTH",
"295 685 OFFCURVE",
"286 681 OFFCURVE",
"276 672 CURVE",
"215 610 LINE SMOOTH",
"206 601 OFFCURVE",
"201 593 OFFCURVE",
"201 584 CURVE SMOOTH",
"201 569 OFFCURVE",
"209 562 OFFCURVE",
"225 562 CURVE SMOOTH"
);
}
);
width = 592;
}
);
leftKerningGroup = one;
note = one;
rightKerningGroup = numbersign;
unicode = 0031;
},
{
glyphname = two;
lastChange = "2016-07-31 02:24:38 +0000";
layers = (
{
layerId = "7FF32B46-F6F7-4405-9AA0-D8922FAB2D23";
paths = (
{
closed = 1;
nodes = (
"528 604 OFFCURVE",
"460 641 OFFCURVE",
"312 641 CURVE SMOOTH",
"164 641 LINE SMOOTH",
"163 641 OFFCURVE",
"163 641 OFFCURVE",
"162 641 CURVE SMOOTH",
"97 641 OFFCURVE",
"65 608 OFFCURVE",
"65 542 CURVE SMOOTH",
"65 510 OFFCURVE",
"74 494 OFFCURVE",
"91 494 CURVE SMOOTH",
"108 494 OFFCURVE",
"117 505 OFFCURVE",
"117 528 CURVE SMOOTH",
"117 573 OFFCURVE",
"128 589 OFFCURVE",
"171 589 CURVE SMOOTH",
"312 589 LINE SMOOTH",
"437 589 OFFCURVE",
"476 569 OFFCURVE",
"476 466 CURVE SMOOTH",
"476 414 OFFCURVE",
"427 365 OFFCURVE",
"330 320 CURVE SMOOTH",
"290 301 OFFCURVE",
"250 281 OFFCURVE",
"210 258 CURVE SMOOTH",
"130 213 OFFCURVE",
"65 139 OFFCURVE",
"65 44 CURVE SMOOTH",
"65 -5 LINE",
"493 -5 LINE SMOOTH",
"516 -5 OFFCURVE",
"528 4 OFFCURVE",
"528 21 CURVE SMOOTH",
"528 38 OFFCURVE",
"516 47 OFFCURVE",
"493 47 CURVE SMOOTH",
"117 47 LINE",
"118 87 OFFCURVE",
"133 123 OFFCURVE",
"162 155 CURVE SMOOTH",
"219 219 OFFCURVE",
"305 258 OFFCURVE",
"385 298 CURVE SMOOTH",
"480 346 OFFCURVE",
"528 400 OFFCURVE",
"528 460 CURVE SMOOTH"
);
}
);
width = 592;
}
);
note = two;
rightKerningGroup = numbersign;
unicode = 0032;
},
{
glyphname = three;
lastChange = "2016-07-31 02:24:38 +0000";
layers = (
{
layerId = "7FF32B46-F6F7-4405-9AA0-D8922FAB2D23";
paths = (
{
closed = 1;
nodes = (
"443 589 OFFCURVE",
"477 546 OFFCURVE",
"477 473 CURVE SMOOTH",
"477 400 OFFCURVE",
"369 352 OFFCURVE",
"302 352 CURVE SMOOTH",
"269 352 OFFCURVE",
"252 343 OFFCURVE",
"252 326 CURVE SMOOTH",
"252 308 OFFCURVE",
"268 299 OFFCURVE",
"300 299 CURVE SMOOTH",
"364 299 OFFCURVE",
"477 239 OFFCURVE",
"477 164 CURVE SMOOTH",
"477 89 OFFCURVE",
"443 47 OFFCURVE",
"338 47 CURVE SMOOTH",
"254 47 LINE SMOOTH",
"191 47 OFFCURVE",
"116 72 OFFCURVE",
"116 112 CURVE SMOOTH",
"116 132 OFFCURVE",
"107 142 OFFCURVE",
"90 142 CURVE SMOOTH",
"73 142 OFFCURVE",
"64 129 OFFCURVE",
"64 102 CURVE SMOOTH",
"64 49 OFFCURVE",
"135 -5 OFFCURVE",
"247 -5 CURVE SMOOTH",
"327 -5 LINE SMOOTH",
"472 -5 OFFCURVE",
"528 45 OFFCURVE",
"528 185 CURVE SMOOTH",
"528 232 OFFCURVE",
"450 311 OFFCURVE",
"401 326 CURVE",
"453 345 OFFCURVE",
"528 407 OFFCURVE",
"528 451 CURVE SMOOTH",
"528 591 OFFCURVE",
"472 641 OFFCURVE",
"327 641 CURVE SMOOTH",
"247 641 LINE SMOOTH",
"135 641 OFFCURVE",
"64 587 OFFCURVE",
"64 534 CURVE SMOOTH",
"64 507 OFFCURVE",
"73 494 OFFCURVE",
"90 494 CURVE SMOOTH",
"107 494 OFFCURVE",
"116 504 OFFCURVE",
"116 524 CURVE SMOOTH",
"116 564 OFFCURVE",
"191 589 OFFCURVE",
"254 589 CURVE SMOOTH",
"338 589 LINE SMOOTH"
);
}
);
width = 592;
}
);
note = three;
rightKerningGroup = three;
unicode = 0033;
},
{
glyphname = four;
lastChange = "2016-07-31 02:24:38 +0000";
layers = (
{
layerId = "7FF32B46-F6F7-4405-9AA0-D8922FAB2D23";
paths = (
{
closed = 1;
nodes = (
"519 170 OFFCURVE",
"530 179 OFFCURVE",
"530 196 CURVE SMOOTH",
"530 213 OFFCURVE",
"519 222 OFFCURVE",
"498 222 CURVE SMOOTH",
"442 222 LINE",
"442 641 LINE",
"376 641 LINE",
"62 233 LINE",
"62 170 LINE",
"389 170 LINE",
"389 24 LINE",
"390 3 OFFCURVE",
"399 -7 OFFCURVE",
"416 -7 CURVE SMOOTH",
"433 -7 OFFCURVE",
"442 3 OFFCURVE",
"442 24 CURVE SMOOTH",
"442 170 LINE",
"498 170 LINE SMOOTH"
);
},
{
closed = 1;
nodes = (
"389 222 LINE",
"114 222 LINE",
"389 579 LINE"
);
}
);
width = 592;
}
);
leftKerningGroup = four;
note = four;
rightKerningGroup = four;
unicode = 0034;
},
{
glyphname = five;
lastChange = "2016-07-31 02:24:38 +0000";
layers = (
{
layerId = "7FF32B46-F6F7-4405-9AA0-D8922FAB2D23";
paths = (
{
closed = 1;
nodes = (
"69 50 OFFCURVE",
"207 -9 OFFCURVE",
"291 -9 CURVE SMOOTH",
"428 -9 OFFCURVE",
"523 84 OFFCURVE",
"523 222 CURVE SMOOTH",
"523 360 OFFCURVE",
"420 439 OFFCURVE",
"308 439 CURVE SMOOTH",
"132 439 LINE",
"138 529 LINE SMOOTH",
"142 574 OFFCURVE",
"159 589 OFFCURVE",
"192 589 CURVE SMOOTH",
"449 589 LINE SMOOTH",
"470 589 OFFCURVE",
"481 598 OFFCURVE",
"481 615 CURVE SMOOTH",
"481 632 OFFCURVE",
"470 641 OFFCURVE",
"449 641 CURVE SMOOTH",
"198 641 LINE SMOOTH",
"122 641 OFFCURVE",
"91 608 OFFCURVE",
"84 512 CURVE SMOOTH",
"75 387 LINE",
"317 387 LINE SMOOTH",
"334 387 OFFCURVE",
"350 384 OFFCURVE",
"366 379 CURVE SMOOTH",
"436 356 OFFCURVE",
"471 307 OFFCURVE",
"471 231 CURVE SMOOTH",
"471 230 OFFCURVE",
"471 230 OFFCURVE",
"471 229 CURVE SMOOTH",
"471 112 OFFCURVE",
"406 44 OFFCURVE",
"295 44 CURVE SMOOTH",
"294 44 OFFCURVE",
"293 44 OFFCURVE",
"292 44 CURVE SMOOTH",
"235 44 OFFCURVE",
"180 63 OFFCURVE",
"126 102 CURVE SMOOTH",
"109 115 OFFCURVE",
"98 121 OFFCURVE",
"93 121 CURVE SMOOTH",
"92 121 OFFCURVE",
"92 121 OFFCURVE",
"92 121 CURVE SMOOTH",
"83 121 OFFCURVE",
"69 108 OFFCURVE",
"69 95 CURVE SMOOTH"
);
}
);
width = 592;
}
);
note = five;
rightKerningGroup = five;
unicode = 0035;
},
{
glyphname = six;
lastChange = "2016-07-31 02:24:38 +0000";
layers = (
{
layerId = "7FF32B46-F6F7-4405-9AA0-D8922FAB2D23";
paths = (
{
closed = 1;
nodes = (
"430 -9 OFFCURVE",
"528 82 OFFCURVE",
"528 210 CURVE SMOOTH",
"528 337 OFFCURVE",
"428 428 OFFCURVE",
"300 428 CURVE SMOOTH",
"235 428 OFFCURVE",
"182 410 OFFCURVE",
"139 375 CURVE",
"172 483 OFFCURVE",
"247 561 OFFCURVE",
"296 586 CURVE SMOOTH",
"321 599 OFFCURVE",
"333 610 OFFCURVE",
"333 621 CURVE SMOOTH",
"333 636 OFFCURVE",
"323 644 OFFCURVE",
"302 644 CURVE SMOOTH",
"260 644 OFFCURVE",
"180 562 OFFCURVE",
"139 497 CURVE SMOOTH",
"98 433 OFFCURVE",
"64 327 OFFCURVE",
"64 205 CURVE SMOOTH",
"64 83 OFFCURVE",
"162 -9 OFFCURVE",
"296 -9 CURVE SMOOTH"
);
},
{
closed = 1;
nodes = (
"408 376 OFFCURVE",
"476 310 OFFCURVE",
"476 210 CURVE SMOOTH",
"476 109 OFFCURVE",
"408 43 OFFCURVE",
"296 43 CURVE SMOOTH",
"184 43 OFFCURVE",
"116 109 OFFCURVE",
"116 210 CURVE SMOOTH",
"116 310 OFFCURVE",
"184 376 OFFCURVE",
"296 376 CURVE SMOOTH"
);
}
);
width = 592;
}
);
leftKerningGroup = six;
note = six;
rightKerningGroup = six;
unicode = 0036;
},
{
glyphname = seven;
lastChange = "2016-07-31 02:24:38 +0000";
layers = (
{
layerId = "7FF32B46-F6F7-4405-9AA0-D8922FAB2D23";
paths = (
{
closed = 1;
nodes = (
"281 -10 OFFCURVE",
"290 -1 OFFCURVE",
"297 16 CURVE SMOOTH",
"515 602 LINE SMOOTH",
"518 610 OFFCURVE",
"519 617 OFFCURVE",
"519 623 CURVE SMOOTH",
"519 638 OFFCURVE",
"510 646 OFFCURVE",
"493 646 CURVE SMOOTH",
"173 646 LINE SMOOTH",
"106 646 OFFCURVE",
"73 613 OFFCURVE",
"73 546 CURVE SMOOTH",
"73 515 OFFCURVE",
"81 499 OFFCURVE",
"98 499 CURVE SMOOTH",
"99 499 OFFCURVE",
"99 499 OFFCURVE",
"99 499 CURVE",
"116 499 OFFCURVE",
"125 510 OFFCURVE",
"125 533 CURVE SMOOTH",
"125 578 OFFCURVE",
"138 594 OFFCURVE",
"181 594 CURVE SMOOTH",
"457 594 LINE",
"246 35 LINE",
"243 28 OFFCURVE",
"241 21 OFFCURVE",
"241 14 CURVE SMOOTH",
"241 -2 OFFCURVE",
"251 -10 OFFCURVE",
"270 -10 CURVE SMOOTH"
);
}
);
width = 592;
}
);
leftKerningGroup = seven;
note = seven;
rightKerningGroup = seven;
unicode = 0037;
},
{
glyphname = eight;
lastChange = "2016-07-31 02:24:38 +0000";
layers = (
{
layerId = "7FF32B46-F6F7-4405-9AA0-D8922FAB2D23";
paths = (
{
closed = 1;
nodes = (
"130 260 OFFCURVE",
"143 275 OFFCURVE",
"162 286 CURVE SMOOTH",
"181 297 OFFCURVE",
"221 302 OFFCURVE",
"281 302 CURVE SMOOTH",
"312 302 LINE SMOOTH",
"437 302 OFFCURVE",
"476 277 OFFCURVE",
"476 194 CURVE SMOOTH",
"476 110 OFFCURVE",
"469 84 OFFCURVE",
"430 63 CURVE SMOOTH",
"410 52 OFFCURVE",
"371 47 OFFCURVE",
"312 47 CURVE SMOOTH",
"281 47 LINE SMOOTH",
"278 47 OFFCURVE",
"276 47 OFFCURVE",
"273 47 CURVE SMOOTH",
"219 47 OFFCURVE",
"180 53 OFFCURVE",
"156 66 CURVE SMOOTH",
"125 82 OFFCURVE",
"116 117 OFFCURVE",
"116 174 CURVE SMOOTH",
"116 203 OFFCURVE",
"119 226 OFFCURVE",
"125 243 CURVE"
);
},
{
closed = 1;
nodes = (
"452 -5 OFFCURVE",
"528 26 OFFCURVE",
"528 174 CURVE SMOOTH",
"528 248 OFFCURVE",
"507 299 OFFCURVE",
"465 326 CURVE",
"507 349 OFFCURVE",
"528 394 OFFCURVE",
"528 460 CURVE SMOOTH",
"528 592 OFFCURVE",
"495 641 OFFCURVE",
"318 641 CURVE SMOOTH",
"316 641 OFFCURVE",
"314 641 OFFCURVE",
"312 641 CURVE SMOOTH",
"281 641 LINE SMOOTH",
"169 640 OFFCURVE",
"64 643 OFFCURVE",
"64 472 CURVE SMOOTH",
"64 398 OFFCURVE",
"85 349 OFFCURVE",
"128 326 CURVE",
"85 299 OFFCURVE",
"64 253 OFFCURVE",
"64 186 CURVE SMOOTH",
"64 53 OFFCURVE",
"104 -5 OFFCURVE",
"281 -5 CURVE SMOOTH",
"312 -5 LINE SMOOTH"
);
},
{
closed = 1;
nodes = (
"452 380 OFFCURVE",
"443 372 OFFCURVE",
"433 365 CURVE SMOOTH",
"423 358 OFFCURVE",
"383 354 OFFCURVE",
"312 354 CURVE SMOOTH",
"281 354 LINE SMOOTH",
"231 354 OFFCURVE",
"195 357 OFFCURVE",
"174 362 CURVE SMOOTH",
"142 370 OFFCURVE",
"132 386 OFFCURVE",
"123 415 CURVE SMOOTH",
"118 430 OFFCURVE",
"116 453 OFFCURVE",
"116 485 CURVE SMOOTH",
"116 549 OFFCURVE",
"121 589 OFFCURVE",
"272 589 CURVE SMOOTH",
"275 589 OFFCURVE",
"278 589 OFFCURVE",
"281 589 CURVE SMOOTH",
"312 589 LINE SMOOTH",
"346 589 OFFCURVE",
"374 588 OFFCURVE",
"396 586 CURVE SMOOTH",
"411 585 OFFCURVE",
"421 583 OFFCURVE",
"426 580 CURVE",
"439 573 OFFCURVE",
"459 563 OFFCURVE",
"465 546 CURVE SMOOTH",
"471 529 OFFCURVE",
"476 506 OFFCURVE",
"476 470 CURVE SMOOTH",
"476 434 OFFCURVE",
"473 406 OFFCURVE",
"459 389 CURVE SMOOTH"
);
}
);
width = 592;
}
);
leftKerningGroup = eight;
note = eight;
rightKerningGroup = eight;
unicode = 0038;
},
{
glyphname = nine;
lastChange = "2016-07-31 02:24:38 +0000";
layers = (
{
layerId = "7FF32B46-F6F7-4405-9AA0-D8922FAB2D23";
paths = (
{
closed = 1;
nodes = (
"147 641 OFFCURVE",
"64 585 OFFCURVE",
"64 472 CURVE SMOOTH",
"64 359 OFFCURVE",
"147 302 OFFCURVE",
"312 302 CURVE SMOOTH",
"379 302 OFFCURVE",
"429 313 OFFCURVE",
"463 334 CURVE",
"440 233 OFFCURVE",
"396 157 OFFCURVE",
"331 106 CURVE SMOOTH",
"274 61 OFFCURVE",
"216 37 OFFCURVE",
"172 37 CURVE SMOOTH",
"150 37 OFFCURVE",
"139 28 OFFCURVE",
"139 11 CURVE SMOOTH",
"139 -7 OFFCURVE",
"149 -16 OFFCURVE",
"170 -16 CURVE SMOOTH",
"262 -16 OFFCURVE",
"343 28 OFFCURVE",
"414 116 CURVE SMOOTH",
"481 199 OFFCURVE",
"528 329 OFFCURVE",
"528 470 CURVE SMOOTH",
"528 584 OFFCURVE",
"456 641 OFFCURVE",
"312 641 CURVE SMOOTH"
);
},
{
closed = 1;
nodes = (
"211 354 OFFCURVE",
"116 368 OFFCURVE",
"116 471 CURVE SMOOTH",
"116 550 OFFCURVE",
"181 589 OFFCURVE",
"312 589 CURVE SMOOTH",
"421 589 OFFCURVE",
"476 550 OFFCURVE",
"476 472 CURVE SMOOTH",
"476 393 OFFCURVE",
"421 354 OFFCURVE",
"312 354 CURVE SMOOTH"
);
}
);
width = 592;
}
);
leftKerningGroup = nine;
note = nine;
rightKerningGroup = nine;
unicode = 0039;
},
{
glyphname = colon;
lastChange = "2016-07-31 02:24:38 +0000";
layers = (
{
layerId = "7FF32B46-F6F7-4405-9AA0-D8922FAB2D23";
paths = (
{
closed = 1;
nodes = (
"73 57 OFFCURVE",
"102 39 OFFCURVE",
"124 39 CURVE SMOOTH",
"146 39 OFFCURVE",
"175 57 OFFCURVE",
"175 80 CURVE SMOOTH",
"175 103 OFFCURVE",
"146 121 OFFCURVE",
"124 121 CURVE SMOOTH",
"102 121 OFFCURVE",
"73 103 OFFCURVE",
"73 80 CURVE SMOOTH"
);
},
{
closed = 1;
nodes = (
"73 410 OFFCURVE",
"102 392 OFFCURVE",
"124 392 CURVE SMOOTH",
"146 392 OFFCURVE",
"175 410 OFFCURVE",
"175 433 CURVE SMOOTH",
"175 456 OFFCURVE",
"146 474 OFFCURVE",
"124 474 CURVE SMOOTH",
"102 474 OFFCURVE",
"73 456 OFFCURVE",
"73 433 CURVE SMOOTH"
);
}
);
width = 248;
}
);
leftKerningGroup = colon;
note = colon;
rightKerningGroup = numbersign;
unicode = 003A;
},
{
glyphname = semicolon;
lastChange = "2016-07-31 02:24:38 +0000";
layers = (
{
layerId = "7FF32B46-F6F7-4405-9AA0-D8922FAB2D23";
paths = (
{
closed = 1;
nodes = (
"120 117 OFFCURVE",
"112 109 OFFCURVE",
"107 94 CURVE",
"83 7 LINE SMOOTH",
"81 -1 OFFCURVE",
"80 -6 OFFCURVE",
"80 -9 CURVE SMOOTH",
"80 -26 OFFCURVE",
"87 -34 OFFCURVE",
"102 -34 CURVE SMOOTH",
"112 -34 OFFCURVE",
"120 -26 OFFCURVE",
"127 -10 CURVE",
"168 73 LINE SMOOTH",
"171 79 OFFCURVE",
"173 86 OFFCURVE",
"173 94 CURVE SMOOTH",
"173 109 OFFCURVE",
"147 117 OFFCURVE",
"132 117 CURVE SMOOTH"
);
},
{
closed = 1;
nodes = (
"73 410 OFFCURVE",
"102 392 OFFCURVE",
"124 392 CURVE SMOOTH",
"146 392 OFFCURVE",
"175 410 OFFCURVE",
"175 433 CURVE SMOOTH",
"175 456 OFFCURVE",
"146 474 OFFCURVE",
"124 474 CURVE SMOOTH",
"102 474 OFFCURVE",
"73 456 OFFCURVE",
"73 433 CURVE SMOOTH"
);
}
);
width = 251;
}
);
leftKerningGroup = semicolon;
note = semicolon;
rightKerningGroup = numbersign;
unicode = 003B;
},
{
glyphname = less;
lastChange = "2016-07-31 02:24:38 +0000";
layers = (
{
layerId = "7FF32B46-F6F7-4405-9AA0-D8922FAB2D23";
paths = (
{
closed = 1;
nodes = (
"427 574 OFFCURVE",
"420 572 OFFCURVE",
"415 568 CURVE",
"51 358 LINE SMOOTH",
"39 351 OFFCURVE",
"33 343 OFFCURVE",
"33 333 CURVE SMOOTH",
"33 322 OFFCURVE",
"39 313 OFFCURVE",
"51 306 CURVE SMOOTH",
"415 96 LINE",
"422 91 OFFCURVE",
"429 89 OFFCURVE",
"436 89 CURVE SMOOTH",
"452 89 OFFCURVE",
"460 99 OFFCURVE",
"460 120 CURVE SMOOTH",
"460 127 OFFCURVE",
"453 134 OFFCURVE",
"440 141 CURVE SMOOTH",
"110 333 LINE",
"441 523 LINE",
"454 528 OFFCURVE",
"460 538 OFFCURVE",
"460 551 CURVE SMOOTH",
"460 566 OFFCURVE",
"452 574 OFFCURVE",
"435 574 CURVE SMOOTH"
);
}
);
width = 530;
}
);
note = less;
rightKerningGroup = numbersign;
unicode = 003C;
},
{
glyphname = equal;
lastChange = "2016-07-31 02:24:38 +0000";
layers = (
{
layerId = "7FF32B46-F6F7-4405-9AA0-D8922FAB2D23";
paths = (
{
closed = 1;
nodes = (
"89 410 OFFCURVE",
"79 401 OFFCURVE",
"79 384 CURVE SMOOTH",
"79 366 OFFCURVE",
"89 357 OFFCURVE",
"110 357 CURVE SMOOTH",
"355 357 LINE SMOOTH",
"378 357 OFFCURVE",
"389 366 OFFCURVE",
"389 384 CURVE SMOOTH",
"389 401 OFFCURVE",
"378 410 OFFCURVE",
"355 410 CURVE SMOOTH",
"110 410 LINE SMOOTH"
);
},
{
closed = 1;
nodes = (
"89 307 OFFCURVE",
"79 298 OFFCURVE",
"79 281 CURVE SMOOTH",
"79 263 OFFCURVE",
"89 254 OFFCURVE",
"110 254 CURVE SMOOTH",
"355 254 LINE SMOOTH",
"378 254 OFFCURVE",
"389 263 OFFCURVE",
"389 281 CURVE SMOOTH",
"389 298 OFFCURVE",
"378 307 OFFCURVE",
"355 307 CURVE SMOOTH",
"110 307 LINE SMOOTH"
);
}
);
width = 468;
}
);
note = equal;
rightKerningGroup = numbersign;
unicode = 003D;
},
{
glyphname = greater;
lastChange = "2016-07-31 02:24:38 +0000";
layers = (
{
layerId = "7FF32B46-F6F7-4405-9AA0-D8922FAB2D23";
paths = (
{
closed = 1;
nodes = (
"78 574 OFFCURVE",
"70 567 OFFCURVE",
"70 553 CURVE SMOOTH",
"70 538 OFFCURVE",
"76 528 OFFCURVE",
"89 523 CURVE",
"420 333 LINE",
"90 141 LINE SMOOTH",
"77 134 OFFCURVE",
"70 127 OFFCURVE",
"70 120 CURVE SMOOTH",
"70 105 OFFCURVE",
"78 89 OFFCURVE",
"93 89 CURVE SMOOTH",
"100 89 OFFCURVE",
"108 91 OFFCURVE",
"115 96 CURVE",
"479 306 LINE SMOOTH",
"491 313 OFFCURVE",
"497 322 OFFCURVE",
"497 333 CURVE SMOOTH",
"497 343 OFFCURVE",
"491 351 OFFCURVE",
"479 358 CURVE SMOOTH",
"115 568 LINE",
"110 572 OFFCURVE",
"103 574 OFFCURVE",
"95 574 CURVE SMOOTH"
);
}
);
width = 530;
}
);
note = greater;
rightKerningGroup = numbersign;
unicode = 003E;
},
{
glyphname = question;
lastChange = "2016-07-31 02:24:38 +0000";
layers = (
{
layerId = "7FF32B46-F6F7-4405-9AA0-D8922FAB2D23";
paths = (
{
closed = 1;
nodes = (
"200 6 OFFCURVE",
"229 -12 OFFCURVE",
"251 -12 CURVE SMOOTH",
"273 -12 OFFCURVE",
"302 6 OFFCURVE",
"302 29 CURVE SMOOTH",
"302 52 OFFCURVE",
"273 70 OFFCURVE",
"251 70 CURVE SMOOTH",
"229 70 OFFCURVE",
"200 52 OFFCURVE",
"200 29 CURVE SMOOTH"
);
},
{
closed = 1;
nodes = (
"367 324 LINE SMOOTH",
"460 349 OFFCURVE",
"494 395 OFFCURVE",
"494 485 CURVE SMOOTH",
"494 575 OFFCURVE",
"445 649 OFFCURVE",
"328 649 CURVE SMOOTH",
"252 649 LINE SMOOTH",
"185 649 OFFCURVE",
"133 639 OFFCURVE",
"98 618 CURVE SMOOTH",
"57 594 OFFCURVE",
"38 542 OFFCURVE",
"38 483 CURVE SMOOTH",
"38 453 OFFCURVE",
"47 438 OFFCURVE",
"65 438 CURVE SMOOTH",
"82 438 OFFCURVE",
"91 449 OFFCURVE",
"91 471 CURVE SMOOTH",
"91 472 OFFCURVE",
"91 474 OFFCURVE",
"91 476 CURVE SMOOTH",
"91 556 OFFCURVE",
"100 597 OFFCURVE",
"252 597 CURVE SMOOTH",
"345 597 LINE SMOOTH",
"412 597 OFFCURVE",
"442 540 OFFCURVE",
"442 485 CURVE SMOOTH",
"442 430 OFFCURVE",
"417 390 OFFCURVE",
"382 381 CURVE SMOOTH",
"225 338 LINE",
"225 194 LINE SMOOTH",
"225 172 OFFCURVE",
"234 161 OFFCURVE",
"251 161 CURVE SMOOTH",
"268 161 OFFCURVE",
"277 172 OFFCURVE",
"277 194 CURVE SMOOTH",
"277 299 LINE"
);
}
);
width = 536;
}
);
leftKerningGroup = question;
note = question;
rightKerningGroup = numbersign;
unicode = 003F;
},
{
glyphname = at;
lastChange = "2016-07-31 02:24:38 +0000";
layers = (
{
layerId = "7FF32B46-F6F7-4405-9AA0-D8922FAB2D23";
paths = (
{
closed = 1;
nodes = (
"466 -5 OFFCURVE",
"494 7 OFFCURVE",
"508 32 CURVE SMOOTH",
"521 56 OFFCURVE",
"525 73 OFFCURVE",
"525 113 CURVE SMOOTH",
"525 132 OFFCURVE",
"516 142 OFFCURVE",
"499 142 CURVE SMOOTH",
"482 142 OFFCURVE",
"473 131 OFFCURVE",
"473 108 CURVE SMOOTH",
"473 63 OFFCURVE",
"458 47 OFFCURVE",
"417 47 CURVE SMOOTH",
"283 47 LINE SMOOTH",
"176 47 OFFCURVE",
"122 118 OFFCURVE",
"122 241 CURVE SMOOTH",
"122 395 LINE SMOOTH",
"122 518 OFFCURVE",
"176 589 OFFCURVE",
"283 589 CURVE SMOOTH",
"312 589 LINE SMOOTH",
"417 589 OFFCURVE",
"473 516 OFFCURVE",
"473 401 CURVE SMOOTH",
"473 344 OFFCURVE",
"469 306 OFFCURVE",
"462 287 CURVE",
"454 268 OFFCURVE",
"439 256 OFFCURVE",
"418 250 CURVE",
"425 271 OFFCURVE",
"428 303 OFFCURVE",
"428 346 CURVE SMOOTH",
"428 432 OFFCURVE",
"398 478 OFFCURVE",
"301 478 CURVE SMOOTH",
"204 478 OFFCURVE",
"175 436 OFFCURVE",
"175 332 CURVE SMOOTH",
"175 279 OFFCURVE",
"184 242 OFFCURVE",
"202 219 CURVE SMOOTH",
"237 174 OFFCURVE",
"358 177 OFFCURVE",
"438 204 CURVE SMOOTH",
"470 215 OFFCURVE",
"490 236 OFFCURVE",
"510 269 CURVE SMOOTH",
"520 286 OFFCURVE",
"525 328 OFFCURVE",
"525 395 CURVE SMOOTH",
"525 548 OFFCURVE",
"441 641 OFFCURVE",
"312 641 CURVE SMOOTH",
"283 641 LINE SMOOTH",
"154 641 OFFCURVE",
"70 548 OFFCURVE",
"70 395 CURVE SMOOTH",
"70 241 LINE SMOOTH",
"70 88 OFFCURVE",
"154 -5 OFFCURVE",
"283 -5 CURVE SMOOTH",
"424 -5 LINE SMOOTH"
);
},
{
closed = 1;
nodes = (
"227 408 OFFCURVE",
"237 426 OFFCURVE",
"302 426 CURVE SMOOTH",
"366 426 OFFCURVE",
"376 408 OFFCURVE",
"376 332 CURVE SMOOTH",
"376 256 OFFCURVE",
"366 237 OFFCURVE",
"302 237 CURVE SMOOTH",
"237 237 OFFCURVE",
"227 255 OFFCURVE",
"227 332 CURVE SMOOTH"
);
}
);
width = 593;
}
);
note = at;
rightKerningGroup = numbersign;
unicode = 0040;
},
{
glyphname = A;
lastChange = "2016-07-31 02:24:38 +0000";
layers = (
{
layerId = "7FF32B46-F6F7-4405-9AA0-D8922FAB2D23";
paths = (
{
closed = 1;
nodes = (
"61 -16 OFFCURVE",
"70 -8 OFFCURVE",
"77 7 CURVE",
"148 199 LINE",
"422 199 LINE",
"493 7 LINE",
"500 -8 OFFCURVE",
"509 -16 OFFCURVE",
"520 -16 CURVE SMOOTH",
"537 -16 OFFCURVE",
"546 -8 OFFCURVE",
"546 9 CURVE SMOOTH",
"546 14 OFFCURVE",
"545 19 OFFCURVE",
"543 25 CURVE SMOOTH",
"316 636 LINE",
"254 636 LINE",
"27 25 LINE SMOOTH",
"25 19 OFFCURVE",
"24 14 OFFCURVE",
"24 9 CURVE SMOOTH",
"24 -8 OFFCURVE",
"33 -16 OFFCURVE",
"50 -16 CURVE SMOOTH"
);
},
{
closed = 1;
nodes = (
"168 251 LINE",
"284 560 LINE",
"402 251 LINE"
);
}
);
width = 570;
}
);
leftKerningGroup = A;
note = A;
rightKerningGroup = A;
unicode = 0041;
},
{
glyphname = B;
lastChange = "2016-07-31 02:24:38 +0000";
layers = (
{
layerId = "7FF32B46-F6F7-4405-9AA0-D8922FAB2D23";
paths = (
{
closed = 1;
nodes = (
"457 332 OFFCURVE",
"496 314 OFFCURVE",
"496 206 CURVE SMOOTH",
"496 178 LINE SMOOTH",
"496 70 OFFCURVE",
"457 52 OFFCURVE",
"326 52 CURVE SMOOTH",
"136 52 LINE",
"136 332 LINE",
"332 332 LINE SMOOTH"
);
},
{
closed = 1;
nodes = (
"490 398 OFFCURVE",
"506 437 OFFCURVE",
"506 492 CURVE SMOOTH",
"506 601 OFFCURVE",
"436 636 OFFCURVE",
"288 636 CURVE SMOOTH",
"108 636 LINE SMOOTH",
"92 636 OFFCURVE",
"84 624 OFFCURVE",
"84 600 CURVE SMOOTH",
"84 36 LINE SMOOTH",
"84 12 OFFCURVE",
"92 0 OFFCURVE",
"108 0 CURVE SMOOTH",
"326 0 LINE SMOOTH",
"479 0 OFFCURVE",
"548 36 OFFCURVE",
"548 180 CURVE SMOOTH",
"548 209 LINE SMOOTH",
"548 296 OFFCURVE",
"518 351 OFFCURVE",
"457 374 CURVE"
);
},
{
closed = 1;
nodes = (
"136 579 LINE",
"288 579 LINE SMOOTH",
"412 579 OFFCURVE",
"454 564 OFFCURVE",
"454 483 CURVE SMOOTH",
"454 402 OFFCURVE",
"411 384 OFFCURVE",
"288 384 CURVE SMOOTH",
"136 384 LINE"
);
}
);
width = 605;
}
);
leftKerningGroup = B;
note = B;
rightKerningGroup = B;
unicode = 0042;
},
{
glyphname = C;
lastChange = "2016-07-31 02:24:38 +0000";
layers = (
{
layerId = "7FF32B46-F6F7-4405-9AA0-D8922FAB2D23";
paths = (
{
closed = 1;
nodes = (
"479 0 OFFCURVE",
"507 12 OFFCURVE",
"520 36 CURVE SMOOTH",
"533 60 OFFCURVE",
"536 78 OFFCURVE",
"536 118 CURVE SMOOTH",
"536 137 OFFCURVE",
"527 147 OFFCURVE",
"510 147 CURVE SMOOTH",
"493 147 OFFCURVE",
"484 136 OFFCURVE",
"484 114 CURVE SMOOTH",
"484 69 OFFCURVE",
"472 52 OFFCURVE",
"429 52 CURVE SMOOTH",
"295 52 LINE SMOOTH",
"163 52 OFFCURVE",
"124 69 OFFCURVE",
"124 180 CURVE SMOOTH",
"124 456 LINE SMOOTH",
"124 513 OFFCURVE",
"131 546 OFFCURVE",
"170 568 CURVE SMOOTH",
"189 579 OFFCURVE",
"229 584 OFFCURVE",
"289 584 CURVE SMOOTH",
"429 584 LINE SMOOTH",
"470 584 OFFCURVE",
"484 568 OFFCURVE",
"484 523 CURVE SMOOTH",
"484 500 OFFCURVE",
"493 489 OFFCURVE",
"510 489 CURVE SMOOTH",
"527 489 OFFCURVE",
"536 499 OFFCURVE",
"536 519 CURVE SMOOTH",
"536 538 OFFCURVE",
"535 554 OFFCURVE",
"533 565 CURVE SMOOTH",
"524 612 OFFCURVE",
"492 636 OFFCURVE",
"436 636 CURVE SMOOTH",
"289 636 LINE SMOOTH",
"141 636 OFFCURVE",
"72 600 OFFCURVE",
"72 456 CURVE SMOOTH",
"72 180 LINE SMOOTH",
"72 36 OFFCURVE",
"140 0 OFFCURVE",
"295 0 CURVE SMOOTH",
"436 0 LINE SMOOTH"
);
}
);
width = 592;
}
);
leftKerningGroup = C;
note = C;
rightKerningGroup = C;
unicode = 0043;
},
{
glyphname = D;
lastChange = "2016-07-31 02:24:38 +0000";
layers = (
{
layerId = "7FF32B46-F6F7-4405-9AA0-D8922FAB2D23";
paths = (
{
closed = 1;
nodes = (
"548 531 OFFCURVE",
"533 577 OFFCURVE",
"478 611 CURVE SMOOTH",
"451 628 OFFCURVE",
"402 636 OFFCURVE",
"332 636 CURVE SMOOTH",
"108 636 LINE SMOOTH",
"92 636 OFFCURVE",
"84 624 OFFCURVE",
"84 600 CURVE SMOOTH",
"84 36 LINE SMOOTH",
"84 12 OFFCURVE",
"92 0 OFFCURVE",
"108 0 CURVE SMOOTH",
"326 0 LINE SMOOTH",
"479 0 OFFCURVE",
"548 36 OFFCURVE",
"548 180 CURVE SMOOTH",
"548 456 LINE SMOOTH"
);
},
{
closed = 1;
nodes = (
"496 69 OFFCURVE",
"457 52 OFFCURVE",
"326 52 CURVE SMOOTH",
"136 52 LINE",
"136 584 LINE",
"332 584 LINE SMOOTH",
"457 584 OFFCURVE",
"496 565 OFFCURVE",
"496 456 CURVE SMOOTH",
"496 180 LINE SMOOTH"
);
}
);
width = 620;
}
);
leftKerningGroup = B;
note = D;
rightKerningGroup = D;
unicode = 0044;
},
{
glyphname = E;
lastChange = "2016-07-31 02:24:38 +0000";
layers = (
{
layerId = "7FF32B46-F6F7-4405-9AA0-D8922FAB2D23";
paths = (
{
closed = 1;
nodes = (
"419 332 OFFCURVE",
"431 341 OFFCURVE",
"431 358 CURVE SMOOTH",
"431 375 OFFCURVE",
"419 384 OFFCURVE",
"395 384 CURVE SMOOTH",
"136 384 LINE",
"136 584 LINE",
"514 584 LINE SMOOTH",
"537 584 OFFCURVE",
"548 593 OFFCURVE",
"548 610 CURVE SMOOTH",
"548 627 OFFCURVE",
"537 636 OFFCURVE",
"514 636 CURVE SMOOTH",
"108 636 LINE SMOOTH",
"92 636 OFFCURVE",
"84 624 OFFCURVE",
"84 600 CURVE SMOOTH",
"84 36 LINE SMOOTH",
"84 12 OFFCURVE",
"92 0 OFFCURVE",
"108 0 CURVE SMOOTH",
"514 0 LINE SMOOTH",
"537 0 OFFCURVE",
"548 9 OFFCURVE",
"548 26 CURVE SMOOTH",
"548 43 OFFCURVE",
"537 52 OFFCURVE",
"514 52 CURVE SMOOTH",
"136 52 LINE",
"136 332 LINE",
"395 332 LINE SMOOTH"
);
}
);
width = 598;
}
);
leftKerningGroup = B;
note = E;
rightKerningGroup = E;
unicode = 0045;
},
{
glyphname = F;
lastChange = "2016-07-31 02:24:38 +0000";
layers = (
{
layerId = "7FF32B46-F6F7-4405-9AA0-D8922FAB2D23";
paths = (
{
closed = 1;
nodes = (
"395 332 LINE SMOOTH",
"419 332 OFFCURVE",
"431 341 OFFCURVE",
"431 358 CURVE SMOOTH",
"431 375 OFFCURVE",
"419 384 OFFCURVE",
"395 384 CURVE SMOOTH",
"136 384 LINE",
"136 584 LINE",
"514 584 LINE SMOOTH",
"537 584 OFFCURVE",
"548 593 OFFCURVE",
"548 610 CURVE SMOOTH",
"548 627 OFFCURVE",
"537 636 OFFCURVE",
"514 636 CURVE SMOOTH",
"108 636 LINE SMOOTH",
"92 636 OFFCURVE",
"84 624 OFFCURVE",
"84 600 CURVE SMOOTH",
"84 28 LINE SMOOTH",
"84 5 OFFCURVE",
"93 -7 OFFCURVE",
"110 -7 CURVE SMOOTH",
"127 -7 OFFCURVE",
"136 4 OFFCURVE",
"136 27 CURVE SMOOTH",
"136 332 LINE"
);
}
);
width = 577;
}
);
leftKerningGroup = B;
note = F;
rightKerningGroup = F;
unicode = 0046;
},
{
glyphname = G;
lastChange = "2016-07-31 02:24:38 +0000";
layers = (
{
layerId = "7FF32B46-F6F7-4405-9AA0-D8922FAB2D23";
paths = (
{
closed = 1;
nodes = (
"484 68 OFFCURVE",
"472 52 OFFCURVE",
"429 52 CURVE SMOOTH",
"289 52 LINE SMOOTH",
"164 52 OFFCURVE",
"124 70 OFFCURVE",
"124 178 CURVE SMOOTH",
"124 458 LINE SMOOTH",
"124 566 OFFCURVE",
"163 584 OFFCURVE",
"295 584 CURVE SMOOTH",
"429 584 LINE SMOOTH",
"472 584 OFFCURVE",
"484 567 OFFCURVE",
"484 523 CURVE SMOOTH",
"484 500 OFFCURVE",
"493 489 OFFCURVE",
"510 489 CURVE SMOOTH",
"527 489 OFFCURVE",
"536 499 OFFCURVE",
"536 519 CURVE SMOOTH",
"536 538 OFFCURVE",
"535 554 OFFCURVE",
"533 565 CURVE SMOOTH",
"524 612 OFFCURVE",
"492 636 OFFCURVE",
"436 636 CURVE SMOOTH",
"295 636 LINE SMOOTH",
"140 636 OFFCURVE",
"72 600 OFFCURVE",
"72 459 CURVE SMOOTH",
"72 177 LINE SMOOTH",
"72 102 OFFCURVE",
"87 57 OFFCURVE",
"143 25 CURVE",
"170 8 OFFCURVE",
"219 0 OFFCURVE",
"289 0 CURVE SMOOTH",
"436 0 LINE SMOOTH",
"517 0 OFFCURVE",
"536 44 OFFCURVE",
"536 109 CURVE SMOOTH",
"536 298 LINE",
"353 298 LINE SMOOTH",
"329 298 OFFCURVE",
"317 289 OFFCURVE",
"317 272 CURVE SMOOTH",
"317 255 OFFCURVE",
"329 246 OFFCURVE",
"353 246 CURVE SMOOTH",
"484 246 LINE",
"484 112 LINE SMOOTH"
);
}
);
width = 606;
}
);
leftKerningGroup = C;
note = G;
rightKerningGroup = G;
unicode = 0047;
},
{
glyphname = H;
lastChange = "2016-07-31 02:24:38 +0000";
layers = (
{
layerId = "7FF32B46-F6F7-4405-9AA0-D8922FAB2D23";
paths = (
{
closed = 1;
nodes = (
"496 317 LINE",
"496 27 LINE SMOOTH",
"496 4 OFFCURVE",
"505 -7 OFFCURVE",
"522 -7 CURVE SMOOTH",
"539 -7 OFFCURVE",
"548 4 OFFCURVE",
"548 27 CURVE SMOOTH",
"548 608 LINE SMOOTH",
"548 631 OFFCURVE",
"539 643 OFFCURVE",
"522 643 CURVE SMOOTH",
"505 643 OFFCURVE",
"496 631 OFFCURVE",
"496 608 CURVE SMOOTH",
"496 369 LINE",
"136 369 LINE",
"136 608 LINE SMOOTH",
"136 631 OFFCURVE",
"127 643 OFFCURVE",
"110 643 CURVE SMOOTH",
"93 643 OFFCURVE",
"84 631 OFFCURVE",
"84 608 CURVE SMOOTH",
"84 27 LINE SMOOTH",
"84 4 OFFCURVE",
"93 -7 OFFCURVE",
"110 -7 CURVE SMOOTH",
"127 -7 OFFCURVE",
"136 4 OFFCURVE",
"136 27 CURVE SMOOTH",
"136 317 LINE"
);
}
);
width = 632;
}
);
leftKerningGroup = B;
note = H;
rightKerningGroup = H;
unicode = 0048;
},
{
glyphname = I;
lastChange = "2016-07-31 02:24:38 +0000";
layers = (
{
layerId = "7FF32B46-F6F7-4405-9AA0-D8922FAB2D23";
paths = (
{
closed = 1;
nodes = (
"136 632 OFFCURVE",
"127 643 OFFCURVE",
"110 643 CURVE SMOOTH",
"93 643 OFFCURVE",
"84 632 OFFCURVE",
"84 610 CURVE SMOOTH",
"84 25 LINE SMOOTH",
"84 4 OFFCURVE",
"93 -7 OFFCURVE",
"110 -7 CURVE SMOOTH",
"127 -7 OFFCURVE",
"136 4 OFFCURVE",
"136 25 CURVE SMOOTH",
"136 610 LINE SMOOTH"
);
}
);
width = 220;
}
);
leftKerningGroup = B;
note = I;
rightKerningGroup = H;
unicode = 0049;
},
{
glyphname = J;
lastChange = "2016-07-31 02:24:38 +0000";
layers = (
{
layerId = "7FF32B46-F6F7-4405-9AA0-D8922FAB2D23";
paths = (
{
closed = 1;
nodes = (
"85 194 OFFCURVE",
"76 205 OFFCURVE",
"59 205 CURVE SMOOTH",
"41 205 OFFCURVE",
"32 194 OFFCURVE",
"32 172 CURVE SMOOTH",
"32 97 OFFCURVE",
"52 47 OFFCURVE",
"92 24 CURVE SMOOTH",
"133 0 OFFCURVE",
"169 -8 OFFCURVE",
"277 -8 CURVE SMOOTH",
"384 -8 OFFCURVE",
"469 21 OFFCURVE",
"469 165 CURVE SMOOTH",
"469 166 OFFCURVE",
"469 168 OFFCURVE",
"469 169 CURVE SMOOTH",
"469 610 LINE SMOOTH",
"469 632 OFFCURVE",
"460 643 OFFCURVE",
"443 643 CURVE SMOOTH",
"426 643 OFFCURVE",
"417 632 OFFCURVE",
"417 611 CURVE SMOOTH",
"417 170 LINE SMOOTH",
"417 62 OFFCURVE",
"378 44 OFFCURVE",
"251 44 CURVE SMOOTH",
"123 44 OFFCURVE",
"85 61 OFFCURVE",
"85 172 CURVE SMOOTH"
);
}
);
width = 550;
}
);
leftKerningGroup = J;
note = J;
rightKerningGroup = J;
unicode = 004A;
},
{
glyphname = K;
lastChange = "2016-07-31 02:24:38 +0000";
layers = (
{
layerId = "7FF32B46-F6F7-4405-9AA0-D8922FAB2D23";
paths = (
{
closed = 1;
nodes = (
"437 595 LINE",
"444 604 OFFCURVE",
"447 611 OFFCURVE",
"447 618 CURVE SMOOTH",
"447 631 OFFCURVE",
"434 643 OFFCURVE",
"419 643 CURVE SMOOTH",
"412 643 OFFCURVE",
"404 638 OFFCURVE",
"397 628 CURVE",
"136 330 LINE",
"136 610 LINE SMOOTH",
"136 632 OFFCURVE",
"127 643 OFFCURVE",
"110 643 CURVE SMOOTH",
"93 643 OFFCURVE",
"84 632 OFFCURVE",
"84 610 CURVE SMOOTH",
"84 25 LINE SMOOTH",
"84 4 OFFCURVE",
"93 -7 OFFCURVE",
"110 -7 CURVE SMOOTH",
"127 -7 OFFCURVE",
"136 4 OFFCURVE",
"136 25 CURVE SMOOTH",
"136 258 LINE",
"189 322 LINE",
"463 8 LINE SMOOTH",
"472 -2 OFFCURVE",
"479 -7 OFFCURVE",
"486 -7 CURVE SMOOTH",
"499 -7 OFFCURVE",
"514 5 OFFCURVE",
"514 18 CURVE SMOOTH",
"514 25 OFFCURVE",
"510 32 OFFCURVE",
"503 41 CURVE",
"224 356 LINE"
);
}
);
width = 518;
}
);
leftKerningGroup = B;
note = K;
rightKerningGroup = K;
unicode = 004B;
},
{
glyphname = L;
lastChange = "2016-07-31 02:24:38 +0000";
layers = (
{
layerId = "7FF32B46-F6F7-4405-9AA0-D8922FAB2D23";
paths = (
{
closed = 1;
nodes = (
"481 0 OFFCURVE",
"492 9 OFFCURVE",
"492 26 CURVE SMOOTH",
"492 43 OFFCURVE",
"481 52 OFFCURVE",
"459 52 CURVE SMOOTH",
"136 52 LINE",
"136 611 LINE SMOOTH",
"136 632 OFFCURVE",
"127 643 OFFCURVE",
"110 643 CURVE SMOOTH",
"93 643 OFFCURVE",
"84 632 OFFCURVE",
"84 611 CURVE SMOOTH",
"84 35 LINE SMOOTH",
"84 12 OFFCURVE",
"92 0 OFFCURVE",
"108 0 CURVE SMOOTH",
"459 0 LINE SMOOTH"
);
}
);
width = 516;
}
);
leftKerningGroup = B;
note = L;
rightKerningGroup = L;
unicode = 004C;
},
{
glyphname = M;
lastChange = "2016-07-31 02:24:38 +0000";
layers = (
{
layerId = "7FF32B46-F6F7-4405-9AA0-D8922FAB2D23";
paths = (
{
closed = 1;
nodes = (
"517 28 LINE SMOOTH",
"517 5 OFFCURVE",
"526 -7 OFFCURVE",
"543 -7 CURVE SMOOTH",
"560 -7 OFFCURVE",
"569 4 OFFCURVE",
"569 27 CURVE SMOOTH",
"569 608 LINE SMOOTH",
"569 631 OFFCURVE",
"561 643 OFFCURVE",
"544 643 CURVE SMOOTH",
"533 643 OFFCURVE",
"524 637 OFFCURVE",
"515 624 CURVE SMOOTH",
"326 346 LINE",
"138 624 LINE",
"130 637 OFFCURVE",
"120 643 OFFCURVE",
"108 643 CURVE SMOOTH",
"92 643 OFFCURVE",
"84 631 OFFCURVE",
"84 608 CURVE SMOOTH",
"84 27 LINE SMOOTH",
"84 4 OFFCURVE",
"93 -7 OFFCURVE",
"110 -7 CURVE SMOOTH",
"127 -7 OFFCURVE",
"136 5 OFFCURVE",
"136 28 CURVE SMOOTH",
"136 545 LINE",
"309 287 LINE",
"313 282 OFFCURVE",
"319 279 OFFCURVE",
"327 279 CURVE SMOOTH",
"334 279 OFFCURVE",
"340 282 OFFCURVE",
"344 287 CURVE",
"517 545 LINE"
);
}
);
width = 653;
}
);
leftKerningGroup = B;
note = M;
rightKerningGroup = H;
unicode = 004D;
},
{
glyphname = N;
lastChange = "2016-07-31 02:24:38 +0000";
layers = (
{
layerId = "7FF32B46-F6F7-4405-9AA0-D8922FAB2D23";
paths = (
{
closed = 1;
nodes = (
"540 -7 OFFCURVE",
"548 4 OFFCURVE",
"548 27 CURVE SMOOTH",
"548 608 LINE SMOOTH",
"548 631 OFFCURVE",
"539 643 OFFCURVE",
"522 643 CURVE SMOOTH",
"505 643 OFFCURVE",
"496 631 OFFCURVE",
"496 607 CURVE SMOOTH",
"496 96 LINE",
"138 624 LINE",
"130 637 OFFCURVE",
"120 643 OFFCURVE",
"108 643 CURVE SMOOTH",
"92 643 OFFCURVE",
"84 631 OFFCURVE",
"84 608 CURVE SMOOTH",
"84 27 LINE SMOOTH",
"84 4 OFFCURVE",
"93 -7 OFFCURVE",
"110 -7 CURVE SMOOTH",
"127 -7 OFFCURVE",
"136 4 OFFCURVE",
"136 26 CURVE SMOOTH",
"136 543 LINE",
"503 0 LINE",
"507 -5 OFFCURVE",
"514 -7 OFFCURVE",
"523 -7 CURVE SMOOTH"
);
}
);
width = 632;
}
);
leftKerningGroup = B;
note = N;
rightKerningGroup = H;
unicode = 004E;
},
{
glyphname = O;
lastChange = "2016-07-31 02:24:38 +0000";
layers = (
{
layerId = "7FF32B46-F6F7-4405-9AA0-D8922FAB2D23";
paths = (
{
closed = 1;
nodes = (
"507 97 OFFCURVE",
"529 155 OFFCURVE",
"529 228 CURVE SMOOTH",
"529 408 LINE SMOOTH",
"529 555 OFFCURVE",
"433 645 OFFCURVE",
"297 645 CURVE SMOOTH",
"161 645 OFFCURVE",
"65 556 OFFCURVE",
"65 408 CURVE SMOOTH",
"65 228 LINE SMOOTH",
"65 80 OFFCURVE",
"161 -9 OFFCURVE",
"297 -9 CURVE SMOOTH",
"365 -9 OFFCURVE",
"421 12 OFFCURVE",
"464 55 CURVE SMOOTH"
);
},
{
closed = 1;
nodes = (
"461 511 OFFCURVE",
"477 466 OFFCURVE",
"477 407 CURVE SMOOTH",
"477 229 LINE SMOOTH",
"477 112 OFFCURVE",
"412 43 OFFCURVE",
"297 43 CURVE SMOOTH",
"182 43 OFFCURVE",
"117 112 OFFCURVE",
"117 229 CURVE SMOOTH",
"117 407 LINE SMOOTH",
"117 524 OFFCURVE",
"182 593 OFFCURVE",
"297 593 CURVE SMOOTH",
"354 593 OFFCURVE",
"399 577 OFFCURVE",
"430 544 CURVE SMOOTH"
);
}
);
width = 594;
}
);
leftKerningGroup = O;
note = O;
rightKerningGroup = O;
unicode = 004F;
},
{
glyphname = P;
lastChange = "2016-07-31 02:24:38 +0000";
layers = (
{
layerId = "7FF32B46-F6F7-4405-9AA0-D8922FAB2D23";
paths = (
{
closed = 1;
nodes = (
"333 327 LINE SMOOTH",
"448 327 OFFCURVE",
"506 381 OFFCURVE",
"506 488 CURVE SMOOTH",
"506 597 OFFCURVE",
"433 636 OFFCURVE",
"289 636 CURVE SMOOTH",
"108 636 LINE SMOOTH",
"92 636 OFFCURVE",
"84 624 OFFCURVE",
"84 600 CURVE SMOOTH",
"84 25 LINE SMOOTH",
"84 4 OFFCURVE",
"93 -7 OFFCURVE",
"110 -7 CURVE SMOOTH",
"127 -7 OFFCURVE",
"136 4 OFFCURVE",
"136 25 CURVE SMOOTH",
"136 327 LINE"
);
},
{
closed = 1;
nodes = (
"136 584 LINE",
"289 584 LINE SMOOTH",
"410 584 OFFCURVE",
"454 566 OFFCURVE",
"454 482 CURVE SMOOTH",
"454 398 OFFCURVE",
"412 379 OFFCURVE",
"289 379 CURVE SMOOTH",
"136 379 LINE"
);
}
);
width = 540;
}
);
leftKerningGroup = B;
note = P;
rightKerningGroup = P;
unicode = 0050;
},
{
glyphname = Q;
lastChange = "2016-07-31 02:24:38 +0000";
layers = (
{
layerId = "7FF32B46-F6F7-4405-9AA0-D8922FAB2D23";
paths = (
{
closed = 1;
nodes = (
"461 511 OFFCURVE",
"477 466 OFFCURVE",
"477 407 CURVE SMOOTH",
"477 229 LINE SMOOTH",
"477 178 OFFCURVE",
"466 138 OFFCURVE",
"443 107 CURVE",
"389 160 LINE SMOOTH",
"380 169 OFFCURVE",
"371 173 OFFCURVE",
"364 173 CURVE SMOOTH",
"348 173 OFFCURVE",
"337 161 OFFCURVE",
"337 146 CURVE SMOOTH",
"337 139 OFFCURVE",
"341 131 OFFCURVE",
"350 124 CURVE",
"406 72 LINE",
"379 53 OFFCURVE",
"339 43 OFFCURVE",
"288 43 CURVE SMOOTH",
"185 43 OFFCURVE",
"117 112 OFFCURVE",
"117 229 CURVE SMOOTH",
"117 407 LINE SMOOTH",
"117 524 OFFCURVE",
"182 593 OFFCURVE",
"297 593 CURVE SMOOTH",
"354 593 OFFCURVE",
"399 577 OFFCURVE",
"430 544 CURVE SMOOTH"
);
},
{
closed = 1;
nodes = (
"485 -8 OFFCURVE",
"493 -12 OFFCURVE",
"501 -12 CURVE SMOOTH",
"516 -12 OFFCURVE",
"526 1 OFFCURVE",
"526 14 CURVE SMOOTH",
"526 21 OFFCURVE",
"522 28 OFFCURVE",
"515 37 CURVE",
"480 71 LINE",
"513 111 OFFCURVE",
"529 163 OFFCURVE",
"529 228 CURVE SMOOTH",
"529 408 LINE SMOOTH",
"529 555 OFFCURVE",
"433 645 OFFCURVE",
"297 645 CURVE SMOOTH",
"161 645 OFFCURVE",
"65 556 OFFCURVE",
"65 408 CURVE SMOOTH",
"65 228 LINE SMOOTH",
"65 80 OFFCURVE",
"164 -9 OFFCURVE",
"289 -9 CURVE SMOOTH",
"352 -9 OFFCURVE",
"403 5 OFFCURVE",
"443 34 CURVE",
"478 -1 LINE SMOOTH"
);
}
);
width = 594;
}
);
leftKerningGroup = O;
note = Q;
rightKerningGroup = O;
unicode = 0051;
},
{
glyphname = R;
lastChange = "2016-07-31 02:24:38 +0000";
layers = (
{
layerId = "7FF32B46-F6F7-4405-9AA0-D8922FAB2D23";
paths = (
{
closed = 1;
nodes = (
"136 579 LINE",
"288 579 LINE SMOOTH",
"411 579 OFFCURVE",
"454 561 OFFCURVE",
"454 477 CURVE SMOOTH",
"454 393 OFFCURVE",
"412 374 OFFCURVE",
"288 374 CURVE SMOOTH",
"136 374 LINE"
);
},
{
closed = 1;
nodes = (
"514 32 OFFCURVE",
"509 55 OFFCURVE",
"499 93 CURVE SMOOTH",
"479 169 OFFCURVE",
"433 289 OFFCURVE",
"389 332 CURVE",
"467 348 OFFCURVE",
"506 398 OFFCURVE",
"506 481 CURVE SMOOTH",
"506 600 OFFCURVE",
"433 636 OFFCURVE",
"288 636 CURVE SMOOTH",
"108 636 LINE SMOOTH",
"92 636 OFFCURVE",
"84 624 OFFCURVE",
"84 600 CURVE SMOOTH",
"84 25 LINE SMOOTH",
"84 4 OFFCURVE",
"93 -7 OFFCURVE",
"110 -7 CURVE SMOOTH",
"127 -7 OFFCURVE",
"136 4 OFFCURVE",
"136 25 CURVE SMOOTH",
"136 322 LINE",
"324 322 LINE",
"380 279 OFFCURVE",
"429 162 OFFCURVE",
"448 91 CURVE SMOOTH",
"457 56 OFFCURVE",
"462 34 OFFCURVE",
"462 25 CURVE SMOOTH",
"462 4 OFFCURVE",
"471 -7 OFFCURVE",
"488 -7 CURVE SMOOTH",
"505 -7 OFFCURVE",
"514 4 OFFCURVE",
"514 25 CURVE SMOOTH"
);
}
);
width = 569;
}
);
leftKerningGroup = B;
note = R;
rightKerningGroup = R;
unicode = 0052;
},
{
glyphname = S;
lastChange = "2016-07-31 02:24:38 +0000";
layers = (
{
layerId = "7FF32B46-F6F7-4405-9AA0-D8922FAB2D23";
paths = (
{
closed = 1;
nodes = (
"447 592 OFFCURVE",
"484 577 OFFCURVE",
"484 466 CURVE SMOOTH",
"484 444 OFFCURVE",
"493 433 OFFCURVE",
"511 433 CURVE SMOOTH",
"528 433 OFFCURVE",
"537 444 OFFCURVE",
"537 466 CURVE SMOOTH",
"537 542 OFFCURVE",
"523 587 OFFCURVE",
"465 620 CURVE SMOOTH",
"436 636 OFFCURVE",
"385 644 OFFCURVE",
"314 644 CURVE SMOOTH",
"238 644 LINE SMOOTH",
"111 644 OFFCURVE",
"61 572 OFFCURVE",
"61 482 CURVE SMOOTH",
"61 392 OFFCURVE",
"97 344 OFFCURVE",
"190 324 CURVE SMOOTH",
"425 272 LINE SMOOTH",
"453 265 OFFCURVE",
"485 221 OFFCURVE",
"485 161 CURVE SMOOTH",
"485 101 OFFCURVE",
"457 44 OFFCURVE",
"386 44 CURVE SMOOTH",
"284 44 LINE SMOOTH",
"152 44 OFFCURVE",
"114 61 OFFCURVE",
"114 172 CURVE SMOOTH",
"114 194 OFFCURVE",
"105 205 OFFCURVE",
"88 205 CURVE SMOOTH",
"70 205 OFFCURVE",
"61 194 OFFCURVE",
"61 172 CURVE SMOOTH",
"61 96 OFFCURVE",
"76 50 OFFCURVE",
"133 17 CURVE SMOOTH",
"161 0 OFFCURVE",
"211 -8 OFFCURVE",
"284 -8 CURVE SMOOTH",
"367 -8 LINE SMOOTH",
"488 -8 OFFCURVE",
"537 67 OFFCURVE",
"537 156 CURVE SMOOTH",
"537 252 OFFCURVE",
"495 309 OFFCURVE",
"410 328 CURVE SMOOTH",
"173 379 LINE SMOOTH",
"140 386 OFFCURVE",
"113 428 OFFCURVE",
"113 482 CURVE SMOOTH",
"113 536 OFFCURVE",
"144 592 OFFCURVE",
"216 592 CURVE SMOOTH",
"314 592 LINE SMOOTH"
);
}
);
width = 599;
}
);
leftKerningGroup = S;
note = S;
rightKerningGroup = S;
unicode = 0053;
},
{
glyphname = T;
lastChange = "2016-07-31 02:24:38 +0000";
layers = (
{
layerId = "7FF32B46-F6F7-4405-9AA0-D8922FAB2D23";
paths = (
{
closed = 1;
nodes = (
"38 636 OFFCURVE",
"27 627 OFFCURVE",
"27 610 CURVE SMOOTH",
"27 593 OFFCURVE",
"38 584 OFFCURVE",
"60 584 CURVE SMOOTH",
"214 584 LINE",
"214 25 LINE SMOOTH",
"214 4 OFFCURVE",
"223 -7 OFFCURVE",
"242 -7 CURVE SMOOTH",
"260 -7 OFFCURVE",
"269 3 OFFCURVE",
"269 23 CURVE SMOOTH",
"269 24 OFFCURVE",
"269 24 OFFCURVE",
"269 25 CURVE SMOOTH",
"269 584 LINE",
"421 584 LINE SMOOTH",
"443 584 OFFCURVE",
"454 593 OFFCURVE",
"454 610 CURVE SMOOTH",
"454 627 OFFCURVE",
"443 636 OFFCURVE",
"421 636 CURVE SMOOTH",
"60 636 LINE SMOOTH"
);
}
);
width = 481;
}
);
leftKerningGroup = T;
note = T;
rightKerningGroup = T;
unicode = 0054;
},
{
glyphname = U;
lastChange = "2016-07-31 02:24:38 +0000";
layers = (
{
layerId = "7FF32B46-F6F7-4405-9AA0-D8922FAB2D23";
paths = (
{
closed = 1;
nodes = (
"490 112 OFFCURVE",
"425 43 OFFCURVE",
"310 43 CURVE SMOOTH",
"195 43 OFFCURVE",
"130 112 OFFCURVE",
"130 229 CURVE SMOOTH",
"130 611 LINE SMOOTH",
"130 632 OFFCURVE",
"121 643 OFFCURVE",
"104 643 CURVE SMOOTH",
"87 643 OFFCURVE",
"78 632 OFFCURVE",
"78 610 CURVE SMOOTH",
"78 228 LINE SMOOTH",
"78 80 OFFCURVE",
"174 -9 OFFCURVE",
"310 -9 CURVE SMOOTH",
"446 -9 OFFCURVE",
"542 81 OFFCURVE",
"542 228 CURVE SMOOTH",
"542 610 LINE SMOOTH",
"542 632 OFFCURVE",
"533 643 OFFCURVE",
"516 643 CURVE SMOOTH",
"499 643 OFFCURVE",
"490 632 OFFCURVE",
"490 611 CURVE SMOOTH",
"490 229 LINE SMOOTH"
);
}
);
width = 620;
}
);
leftKerningGroup = U;
note = U;
rightKerningGroup = U;
unicode = 0055;
},
{
glyphname = V;
lastChange = "2016-07-31 02:24:38 +0000";
layers = (
{
layerId = "7FF32B46-F6F7-4405-9AA0-D8922FAB2D23";
paths = (
{
closed = 1;
nodes = (
"24 622 OFFCURVE",
"25 617 OFFCURVE",
"27 611 CURVE SMOOTH",
"254 0 LINE",
"316 0 LINE",
"543 611 LINE SMOOTH",
"545 617 OFFCURVE",
"546 622 OFFCURVE",
"546 627 CURVE SMOOTH",
"546 644 OFFCURVE",
"537 652 OFFCURVE",
"520 652 CURVE SMOOTH",
"509 652 OFFCURVE",
"500 644 OFFCURVE",
"493 629 CURVE",
"286 76 LINE",
"77 629 LINE",
"70 644 OFFCURVE",
"61 652 OFFCURVE",
"50 652 CURVE SMOOTH",
"33 652 OFFCURVE",
"24 644 OFFCURVE",
"24 627 CURVE SMOOTH"
);
}
);
width = 570;
}
);
leftKerningGroup = V;
note = V;
rightKerningGroup = V;
unicode = 0056;
},
{
glyphname = W;
lastChange = "2016-07-31 02:24:38 +0000";
layers = (
{
layerId = "7FF32B46-F6F7-4405-9AA0-D8922FAB2D23";
paths = (
{
closed = 1;
nodes = (
"483 643 OFFCURVE",
"473 652 OFFCURVE",
"458 652 CURVE SMOOTH",
"443 652 OFFCURVE",
"433 643 OFFCURVE",
"428 626 CURVE SMOOTH",
"253 72 LINE",
"79 631 LINE SMOOTH",
"74 646 OFFCURVE",
"64 653 OFFCURVE",
"49 653 CURVE SMOOTH",
"34 653 OFFCURVE",
"27 647 OFFCURVE",
"27 634 CURVE SMOOTH",
"27 630 OFFCURVE",
"28 624 OFFCURVE",
"31 616 CURVE",
"224 0 LINE",
"281 0 LINE",
"457 553 LINE",
"634 0 LINE",
"692 0 LINE",
"884 612 LINE",
"887 620 OFFCURVE",
"888 626 OFFCURVE",
"888 630 CURVE SMOOTH",
"888 643 OFFCURVE",
"881 649 OFFCURVE",
"866 649 CURVE SMOOTH",
"851 649 OFFCURVE",
"841 642 OFFCURVE",
"836 627 CURVE SMOOTH",
"664 72 LINE",
"488 626 LINE SMOOTH"
);
}
);
width = 915;
}
);
leftKerningGroup = W;
note = W;
rightKerningGroup = W;
unicode = 0057;
},
{
glyphname = X;
lastChange = "2016-07-31 02:24:38 +0000";
layers = (
{
layerId = "7FF32B46-F6F7-4405-9AA0-D8922FAB2D23";
paths = (
{
closed = 1;
nodes = (
"87 625 LINE SMOOTH",
"78 637 OFFCURVE",
"71 643 OFFCURVE",
"64 643 CURVE SMOOTH",
"51 643 OFFCURVE",
"36 635 OFFCURVE",
"36 618 CURVE SMOOTH",
"36 609 OFFCURVE",
"39 602 OFFCURVE",
"44 596 CURVE",
"247 317 LINE",
"44 39 LINE SMOOTH",
"39 32 OFFCURVE",
"36 25 OFFCURVE",
"36 18 CURVE SMOOTH",
"36 4 OFFCURVE",
"48 -7 OFFCURVE",
"64 -7 CURVE SMOOTH",
"71 -7 OFFCURVE",
"79 -2 OFFCURVE",
"87 9 CURVE SMOOTH",
"279 277 LINE",
"472 9 LINE SMOOTH",
"480 -2 OFFCURVE",
"488 -7 OFFCURVE",
"495 -7 CURVE SMOOTH",
"510 -7 OFFCURVE",
"523 2 OFFCURVE",
"523 17 CURVE SMOOTH",
"523 24 OFFCURVE",
"520 32 OFFCURVE",
"515 39 CURVE SMOOTH",
"312 317 LINE",
"515 596 LINE",
"520 602 OFFCURVE",
"523 609 OFFCURVE",
"523 617 CURVE SMOOTH",
"523 618 OFFCURVE",
"523 618 OFFCURVE",
"523 619 CURVE SMOOTH",
"523 635 OFFCURVE",
"514 643 OFFCURVE",
"496 643 CURVE SMOOTH",
"489 643 OFFCURVE",
"481 637 OFFCURVE",
"472 625 CURVE SMOOTH",
"279 358 LINE"
);
}
);
width = 559;
}
);
leftKerningGroup = X;
note = X;
rightKerningGroup = X;
unicode = 0058;
},
{
glyphname = Y;
lastChange = "2016-07-31 02:24:38 +0000";
layers = (
{
layerId = "7FF32B46-F6F7-4405-9AA0-D8922FAB2D23";
paths = (
{
closed = 1;
nodes = (
"234 3 OFFCURVE",
"243 -7 OFFCURVE",
"260 -7 CURVE SMOOTH",
"277 -7 OFFCURVE",
"286 3 OFFCURVE",
"287 24 CURVE",
"287 308 LINE",
"495 597 LINE SMOOTH",
"500 604 OFFCURVE",
"503 611 OFFCURVE",
"503 618 CURVE SMOOTH",
"503 631 OFFCURVE",
"489 643 OFFCURVE",
"476 643 CURVE SMOOTH",
"469 643 OFFCURVE",
"461 637 OFFCURVE",
"452 625 CURVE SMOOTH",
"260 358 LINE",
"67 625 LINE SMOOTH",
"58 637 OFFCURVE",
"50 643 OFFCURVE",
"43 643 CURVE SMOOTH",
"30 643 OFFCURVE",
"17 632 OFFCURVE",
"17 619 CURVE SMOOTH",
"17 612 OFFCURVE",
"20 605 OFFCURVE",
"25 597 CURVE",
"234 308 LINE",
"234 24 LINE SMOOTH"
);
}
);
width = 521;
}
);
leftKerningGroup = Y;
note = Y;
rightKerningGroup = Y;
unicode = 0059;
},
{
glyphname = Z;
lastChange = "2016-07-31 02:24:38 +0000";
layers = (
{
layerId = "7FF32B46-F6F7-4405-9AA0-D8922FAB2D23";
paths = (
{
closed = 1;
nodes = (
"497 0 OFFCURVE",
"509 9 OFFCURVE",
"509 26 CURVE SMOOTH",
"509 43 OFFCURVE",
"497 52 OFFCURVE",
"474 52 CURVE SMOOTH",
"110 52 LINE",
"509 593 LINE",
"509 646 LINE",
"81 646 LINE SMOOTH",
"57 646 OFFCURVE",
"45 637 OFFCURVE",
"45 620 CURVE SMOOTH",
"45 603 OFFCURVE",
"57 594 OFFCURVE",
"81 594 CURVE SMOOTH",
"447 594 LINE",
"46 51 LINE",
"46 0 LINE",
"474 0 LINE SMOOTH"
);
}
);
width = 555;
}
);
leftKerningGroup = Z;
note = Z;
rightKerningGroup = Z;
unicode = 005A;
},
{
glyphname = bracketleft;
lastChange = "2016-07-31 02:24:38 +0000";
layers = (
{
layerId = "7FF32B46-F6F7-4405-9AA0-D8922FAB2D23";
paths = (
{
closed = 1;
nodes = (
"210 683 LINE",
"80 683 LINE",
"80 -47 LINE",
"210 -47 LINE",
"210 5 LINE",
"132 5 LINE",
"132 631 LINE",
"210 631 LINE"
);
}
);
width = 255;
}
);
note = bracketleft;
rightKerningGroup = bracketleft;
unicode = 005B;
},
{
glyphname = backslash;
lastChange = "2016-07-31 02:24:38 +0000";
layers = (
{
layerId = "7FF32B46-F6F7-4405-9AA0-D8922FAB2D23";
paths = (
{
closed = 1;
nodes = (
"43 621 OFFCURVE",
"44 615 OFFCURVE",
"46 608 CURVE",
"264 10 LINE SMOOTH",
"269 -5 OFFCURVE",
"278 -13 OFFCURVE",
"289 -13 CURVE SMOOTH",
"307 -13 OFFCURVE",
"316 -5 OFFCURVE",
"316 11 CURVE SMOOTH",
"316 15 OFFCURVE",
"315 21 OFFCURVE",
"313 29 CURVE",
"95 627 LINE SMOOTH",
"90 642 OFFCURVE",
"81 650 OFFCURVE",
"69 650 CURVE SMOOTH",
"52 650 OFFCURVE",
"43 642 OFFCURVE",
"43 626 CURVE SMOOTH"
);
}
);
width = 359;
}
);
leftKerningGroup = backslash;
note = backslash;
rightKerningGroup = backslash;
unicode = 005C;
},
{
glyphname = bracketright;
lastChange = "2016-07-31 02:24:38 +0000";
layers = (
{
layerId = "7FF32B46-F6F7-4405-9AA0-D8922FAB2D23";
paths = (
{
closed = 1;
nodes = (
"45 -47 LINE",
"175 -47 LINE",
"175 683 LINE",
"45 683 LINE",
"45 631 LINE",
"123 631 LINE",
"123 5 LINE",
"45 5 LINE"
);
}
);
width = 255;
}
);
leftKerningGroup = bracketright;
note = bracketright;
rightKerningGroup = numbersign;
unicode = 005D;
},
{
glyphname = asciicircum;
lastChange = "2016-07-31 02:24:38 +0000";
layers = (
{
layerId = "7FF32B46-F6F7-4405-9AA0-D8922FAB2D23";
paths = (
{
closed = 1;
nodes = (
"311 381 LINE",
"318 367 OFFCURVE",
"329 360 OFFCURVE",
"343 360 CURVE SMOOTH",
"356 360 OFFCURVE",
"363 368 OFFCURVE",
"363 383 CURVE SMOOTH",
"363 388 OFFCURVE",
"362 392 OFFCURVE",
"361 395 CURVE",
"252 641 LINE",
"192 641 LINE",
"82 395 LINE",
"81 390 OFFCURVE",
"80 386 OFFCURVE",
"80 383 CURVE SMOOTH",
"80 368 OFFCURVE",
"87 360 OFFCURVE",
"101 360 CURVE SMOOTH",
"114 360 OFFCURVE",
"125 367 OFFCURVE",
"132 381 CURVE",
"222 581 LINE"
);
}
);
width = 443;
}
);
note = asciicircum;
rightKerningGroup = numbersign;
unicode = 005E;
},
{
glyphname = underscore;
lastChange = "2016-07-31 02:24:38 +0000";
layers = (
{
layerId = "7FF32B46-F6F7-4405-9AA0-D8922FAB2D23";
paths = (
{
closed = 1;
nodes = (
"469 -47 OFFCURVE",
"480 -38 OFFCURVE",
"480 -21 CURVE SMOOTH",
"480 -4 OFFCURVE",
"469 5 OFFCURVE",
"447 5 CURVE SMOOTH",
"28 5 LINE SMOOTH",
"6 5 OFFCURVE",
"-5 -4 OFFCURVE",
"-5 -21 CURVE SMOOTH",
"-5 -38 OFFCURVE",
"6 -47 OFFCURVE",
"28 -47 CURVE SMOOTH",
"447 -47 LINE SMOOTH"
);
}
);
width = 475;
}
);
note = underscore;
rightKerningGroup = numbersign;
unicode = 005F;
},
{
glyphname = grave;
lastChange = "2016-07-31 02:24:38 +0000";
layers = (
{
layerId = "7FF32B46-F6F7-4405-9AA0-D8922FAB2D23";
paths = (
{
closed = 1;
nodes = (
"29 650 OFFCURVE",
"32 642 OFFCURVE",
"38 635 CURVE SMOOTH",
"134 520 LINE",
"143 510 OFFCURVE",
"151 505 OFFCURVE",
"158 505 CURVE SMOOTH",
"171 505 OFFCURVE",
"184 515 OFFCURVE",
"184 531 CURVE SMOOTH",
"184 538 OFFCURVE",
"181 546 OFFCURVE",
"175 553 CURVE SMOOTH",
"79 668 LINE",
"70 678 OFFCURVE",
"63 683 OFFCURVE",
"56 683 CURVE SMOOTH",
"42 683 OFFCURVE",
"29 672 OFFCURVE",
"29 657 CURVE SMOOTH"
);
}
);
width = 212;
}
);
note = grave;
rightKerningGroup = numbersign;
unicode = 0060;
},
{
glyphname = a;
lastChange = "2016-07-31 02:24:38 +0000";
layers = (
{
layerId = "7FF32B46-F6F7-4405-9AA0-D8922FAB2D23";
paths = (
{
closed = 1;
nodes = (
"139 52 OFFCURVE",
"112 81 OFFCURVE",
"112 127 CURVE SMOOTH",
"112 173 OFFCURVE",
"119 206 OFFCURVE",
"160 227 CURVE SMOOTH",
"180 238 OFFCURVE",
"221 243 OFFCURVE",
"283 243 CURVE SMOOTH",
"430 243 LINE",
"430 228 LINE SMOOTH",
"430 111 OFFCURVE",
"373 52 OFFCURVE",
"260 52 CURVE SMOOTH",
"167 52 LINE SMOOTH"
);
},
{
closed = 1;
nodes = (
"60 326 OFFCURVE",
"69 314 OFFCURVE",
"86 314 CURVE SMOOTH",
"103 314 OFFCURVE",
"112 326 OFFCURVE",
"112 349 CURVE SMOOTH",
"112 389 OFFCURVE",
"153 409 OFFCURVE",
"234 409 CURVE SMOOTH",
"375 409 LINE SMOOTH",
"418 409 OFFCURVE",
"430 393 OFFCURVE",
"430 352 CURVE SMOOTH",
"430 295 LINE",
"283 295 LINE SMOOTH",
"131 295 OFFCURVE",
"60 258 OFFCURVE",
"60 123 CURVE SMOOTH",
"60 48 OFFCURVE",
"104 0 OFFCURVE",
"167 0 CURVE SMOOTH",
"260 0 LINE SMOOTH",
"335 0 OFFCURVE",
"392 21 OFFCURVE",
"430 63 CURVE",
"430 28 LINE SMOOTH",
"430 5 OFFCURVE",
"439 -7 OFFCURVE",
"456 -7 CURVE SMOOTH",
"473 -7 OFFCURVE",
"482 4 OFFCURVE",
"482 27 CURVE SMOOTH",
"482 335 LINE SMOOTH",
"482 428 OFFCURVE",
"459 461 OFFCURVE",
"382 461 CURVE SMOOTH",
"227 461 LINE SMOOTH",
"116 461 OFFCURVE",
"60 424 OFFCURVE",
"60 349 CURVE SMOOTH"
);
}
);
width = 554;
}
);
leftKerningGroup = a;
note = a;
rightKerningGroup = a;
unicode = 0061;
},
{
glyphname = b;
lastChange = "2016-07-31 02:24:38 +0000";
layers = (
{
layerId = "7FF32B46-F6F7-4405-9AA0-D8922FAB2D23";
paths = (
{
closed = 1;
nodes = (
"127 631 OFFCURVE",
"118 643 OFFCURVE",
"101 643 CURVE SMOOTH",
"84 643 OFFCURVE",
"75 631 OFFCURVE",
"75 607 CURVE SMOOTH",
"75 27 LINE SMOOTH",
"75 4 OFFCURVE",
"84 -7 OFFCURVE",
"101 -7 CURVE SMOOTH",
"118 -7 OFFCURVE",
"127 5 OFFCURVE",
"127 28 CURVE SMOOTH",
"127 63 LINE",
"166 21 OFFCURVE",
"223 0 OFFCURVE",
"298 0 CURVE SMOOTH",
"327 0 LINE SMOOTH",
"480 0 OFFCURVE",
"549 36 OFFCURVE",
"549 176 CURVE SMOOTH",
"549 285 LINE SMOOTH",
"549 425 OFFCURVE",
"480 461 OFFCURVE",
"327 461 CURVE SMOOTH",
"298 461 LINE SMOOTH",
"223 461 OFFCURVE",
"166 440 OFFCURVE",
"127 398 CURVE",
"127 607 LINE SMOOTH"
);
},
{
closed = 1;
nodes = (
"330 409 OFFCURVE",
"333 409 OFFCURVE",
"336 409 CURVE SMOOTH",
"449 409 OFFCURVE",
"496 396 OFFCURVE",
"497 284 CURVE SMOOTH",
"497 177 LINE SMOOTH",
"497 120 OFFCURVE",
"490 89 OFFCURVE",
"450 68 CURVE SMOOTH",
"430 57 OFFCURVE",
"389 52 OFFCURVE",
"327 52 CURVE SMOOTH",
"298 52 LINE SMOOTH",
"184 52 OFFCURVE",
"127 111 OFFCURVE",
"127 228 CURVE SMOOTH",
"127 232 LINE SMOOTH",
"127 350 OFFCURVE",
"184 409 OFFCURVE",
"298 409 CURVE SMOOTH",
"327 409 LINE SMOOTH"
);
}
);
width = 611;
}
);
note = b;
rightKerningGroup = b;
unicode = 0062;
},
{
glyphname = c;
lastChange = "2016-07-31 02:24:38 +0000";
layers = (
{
layerId = "7FF32B46-F6F7-4405-9AA0-D8922FAB2D23";
paths = (
{
closed = 1;
nodes = (
"469 0 OFFCURVE",
"497 12 OFFCURVE",
"510 36 CURVE SMOOTH",
"523 60 OFFCURVE",
"526 78 OFFCURVE",
"526 118 CURVE SMOOTH",
"526 137 OFFCURVE",
"517 147 OFFCURVE",
"500 147 CURVE SMOOTH",
"483 147 OFFCURVE",
"474 136 OFFCURVE",
"474 114 CURVE SMOOTH",
"474 69 OFFCURVE",
"462 52 OFFCURVE",
"419 52 CURVE SMOOTH",
"285 52 LINE SMOOTH",
"161 52 OFFCURVE",
"114 66 OFFCURVE",
"114 177 CURVE SMOOTH",
"114 284 LINE SMOOTH",
"114 341 OFFCURVE",
"121 372 OFFCURVE",
"162 393 CURVE SMOOTH",
"182 404 OFFCURVE",
"223 409 OFFCURVE",
"285 409 CURVE SMOOTH",
"419 409 LINE SMOOTH",
"460 409 OFFCURVE",
"474 393 OFFCURVE",
"474 348 CURVE SMOOTH",
"474 325 OFFCURVE",
"483 314 OFFCURVE",
"500 314 CURVE SMOOTH",
"517 314 OFFCURVE",
"526 324 OFFCURVE",
"526 343 CURVE SMOOTH",
"526 362 OFFCURVE",
"525 378 OFFCURVE",
"523 389 CURVE SMOOTH",
"514 437 OFFCURVE",
"482 461 OFFCURVE",
"426 461 CURVE SMOOTH",
"285 461 LINE SMOOTH",
"132 461 OFFCURVE",
"62 425 OFFCURVE",
"62 285 CURVE SMOOTH",
"62 176 LINE SMOOTH",
"62 36 OFFCURVE",
"132 0 OFFCURVE",
"285 0 CURVE SMOOTH",
"426 0 LINE SMOOTH"
);
}
);
width = 584;
}
);
leftKerningGroup = c;
note = c;
rightKerningGroup = c;
unicode = 0063;
},
{
glyphname = d;
lastChange = "2016-07-31 02:24:38 +0000";
layers = (
{
layerId = "7FF32B46-F6F7-4405-9AA0-D8922FAB2D23";
paths = (
{
closed = 1;
nodes = (
"131 461 OFFCURVE",
"62 425 OFFCURVE",
"62 285 CURVE SMOOTH",
"62 176 LINE SMOOTH",
"62 36 OFFCURVE",
"131 0 OFFCURVE",
"284 0 CURVE SMOOTH",
"313 0 LINE SMOOTH",
"388 0 OFFCURVE",
"445 21 OFFCURVE",
"484 63 CURVE",
"484 28 LINE SMOOTH",
"484 5 OFFCURVE",
"493 -7 OFFCURVE",
"510 -7 CURVE SMOOTH",
"527 -7 OFFCURVE",
"536 4 OFFCURVE",
"536 27 CURVE SMOOTH",
"536 607 LINE SMOOTH",
"536 631 OFFCURVE",
"527 643 OFFCURVE",
"510 643 CURVE SMOOTH",
"493 643 OFFCURVE",
"484 631 OFFCURVE",
"484 607 CURVE SMOOTH",
"484 461 LINE",
"284 461 LINE SMOOTH"
);
},
{
closed = 1;
nodes = (
"484 111 OFFCURVE",
"427 52 OFFCURVE",
"313 52 CURVE SMOOTH",
"284 52 LINE SMOOTH",
"160 52 OFFCURVE",
"114 66 OFFCURVE",
"114 177 CURVE SMOOTH",
"114 284 LINE SMOOTH",
"114 341 OFFCURVE",
"121 372 OFFCURVE",
"161 393 CURVE SMOOTH",
"181 404 OFFCURVE",
"222 409 OFFCURVE",
"284 409 CURVE SMOOTH",
"484 409 LINE",
"484 228 LINE SMOOTH"
);
}
);
width = 611;
}
);
leftKerningGroup = c;
note = d;
rightKerningGroup = numbersign;
unicode = 0064;
},
{
glyphname = e;
lastChange = "2016-07-31 02:24:38 +0000";
layers = (
{
layerId = "7FF32B46-F6F7-4405-9AA0-D8922FAB2D23";
paths = (
{
closed = 1;
nodes = (
"536 425 OFFCURVE",
"467 461 OFFCURVE",
"314 461 CURVE SMOOTH",
"285 461 LINE SMOOTH",
"132 461 OFFCURVE",
"62 425 OFFCURVE",
"62 285 CURVE SMOOTH",
"62 176 LINE SMOOTH",
"62 36 OFFCURVE",
"132 0 OFFCURVE",
"285 0 CURVE SMOOTH",
"426 0 LINE SMOOTH",
"427 0 OFFCURVE",
"428 0 OFFCURVE",
"429 0 CURVE SMOOTH",
"470 0 OFFCURVE",
"497 12 OFFCURVE",
"510 36 CURVE SMOOTH",
"523 60 OFFCURVE",
"526 78 OFFCURVE",
"526 118 CURVE SMOOTH",
"526 137 OFFCURVE",
"517 147 OFFCURVE",
"500 147 CURVE SMOOTH",
"483 147 OFFCURVE",
"474 136 OFFCURVE",
"474 114 CURVE SMOOTH",
"474 69 OFFCURVE",
"462 52 OFFCURVE",
"419 52 CURVE SMOOTH",
"285 52 LINE SMOOTH",
"161 52 OFFCURVE",
"114 66 OFFCURVE",
"114 177 CURVE SMOOTH",
"114 245 LINE",
"536 245 LINE",
"536 285 LINE SMOOTH"
);
},
{
closed = 1;
nodes = (
"442 409 OFFCURVE",
"483 392 OFFCURVE",
"484 297 CURVE",
"114 297 LINE",
"115 392 OFFCURVE",
"156 409 OFFCURVE",
"285 409 CURVE SMOOTH",
"314 409 LINE SMOOTH"
);
}
);
width = 592;
}
);
leftKerningGroup = c;
note = e;
rightKerningGroup = e;
unicode = 0065;
},
{
glyphname = f;
lastChange = "2016-07-31 02:24:38 +0000";
layers = (
{
layerId = "7FF32B46-F6F7-4405-9AA0-D8922FAB2D23";
paths = (
{
closed = 1;
nodes = (
"159 636 OFFCURVE",
"83 608 OFFCURVE",
"80 461 CURVE",
"59 460 OFFCURVE",
"49 451 OFFCURVE",
"49 436 CURVE SMOOTH",
"49 420 OFFCURVE",
"59 411 OFFCURVE",
"80 410 CURVE",
"80 28 LINE SMOOTH",
"80 5 OFFCURVE",
"89 -7 OFFCURVE",
"106 -7 CURVE SMOOTH",
"123 -7 OFFCURVE",
"132 5 OFFCURVE",
"132 28 CURVE SMOOTH",
"132 409 LINE",
"270 409 LINE SMOOTH",
"294 409 OFFCURVE",
"306 418 OFFCURVE",
"306 435 CURVE SMOOTH",
"306 452 OFFCURVE",
"294 461 OFFCURVE",
"270 461 CURVE SMOOTH",
"132 461 LINE",
"132 516 OFFCURVE",
"145 550 OFFCURVE",
"172 565 CURVE SMOOTH",
"201 581 OFFCURVE",
"232 584 OFFCURVE",
"288 584 CURVE SMOOTH",
"315 584 OFFCURVE",
"329 592 OFFCURVE",
"329 608 CURVE SMOOTH",
"329 609 OFFCURVE",
"328 610 OFFCURVE",
"328 610 CURVE",
"328 627 OFFCURVE",
"313 636 OFFCURVE",
"284 636 CURVE SMOOTH"
);
}
);
width = 323;
}
);
leftKerningGroup = f;
note = f;
rightKerningGroup = f;
unicode = 0066;
},
{
glyphname = g;
lastChange = "2016-07-31 02:24:38 +0000";
layers = (
{
layerId = "7FF32B46-F6F7-4405-9AA0-D8922FAB2D23";
paths = (
{
closed = 1;
nodes = (
"536 457 OFFCURVE",
"527 468 OFFCURVE",
"510 468 CURVE SMOOTH",
"493 468 OFFCURVE",
"484 456 OFFCURVE",
"484 433 CURVE SMOOTH",
"484 398 LINE",
"445 440 OFFCURVE",
"388 461 OFFCURVE",
"313 461 CURVE SMOOTH",
"284 461 LINE SMOOTH",
"131 461 OFFCURVE",
"62 425 OFFCURVE",
"62 285 CURVE SMOOTH",
"62 176 LINE SMOOTH",
"62 36 OFFCURVE",
"131 0 OFFCURVE",
"284 0 CURVE SMOOTH",
"484 0 LINE",
"484 -103 LINE SMOOTH",
"484 -143 OFFCURVE",
"477 -153 OFFCURVE",
"438 -153 CURVE SMOOTH",
"169 -153 LINE SMOOTH",
"128 -153 OFFCURVE",
"114 -137 OFFCURVE",
"114 -92 CURVE SMOOTH",
"114 -69 OFFCURVE",
"105 -58 OFFCURVE",
"88 -58 CURVE SMOOTH",
"71 -58 OFFCURVE",
"62 -68 OFFCURVE",
"62 -87 CURVE SMOOTH",
"62 -106 OFFCURVE",
"63 -122 OFFCURVE",
"65 -133 CURVE SMOOTH",
"74 -181 OFFCURVE",
"106 -205 OFFCURVE",
"162 -205 CURVE SMOOTH",
"445 -205 LINE SMOOTH",
"516 -205 OFFCURVE",
"536 -174 OFFCURVE",
"536 -87 CURVE SMOOTH",
"536 434 LINE SMOOTH"
);
},
{
closed = 1;
nodes = (
"160 52 OFFCURVE",
"114 66 OFFCURVE",
"114 177 CURVE SMOOTH",
"114 284 LINE SMOOTH",
"114 341 OFFCURVE",
"121 372 OFFCURVE",
"161 393 CURVE SMOOTH",
"181 404 OFFCURVE",
"222 409 OFFCURVE",
"284 409 CURVE SMOOTH",
"313 409 LINE SMOOTH",
"427 409 OFFCURVE",
"484 350 OFFCURVE",
"484 233 CURVE SMOOTH",
"484 52 LINE",
"284 52 LINE SMOOTH"
);
}
);
width = 611;
}
);
leftKerningGroup = c;
note = g;
rightKerningGroup = g;
unicode = 0067;
},
{
glyphname = h;
lastChange = "2016-07-31 02:24:38 +0000";
layers = (
{
layerId = "7FF32B46-F6F7-4405-9AA0-D8922FAB2D23";
paths = (
{
closed = 1;
nodes = (
"330 409 OFFCURVE",
"333 409 OFFCURVE",
"336 409 CURVE SMOOTH",
"449 409 OFFCURVE",
"496 396 OFFCURVE",
"497 284 CURVE SMOOTH",
"497 27 LINE SMOOTH",
"497 4 OFFCURVE",
"506 -7 OFFCURVE",
"523 -7 CURVE SMOOTH",
"540 -7 OFFCURVE",
"549 4 OFFCURVE",
"549 27 CURVE SMOOTH",
"549 285 LINE SMOOTH",
"549 425 OFFCURVE",
"480 461 OFFCURVE",
"327 461 CURVE SMOOTH",
"298 461 LINE SMOOTH",
"223 461 OFFCURVE",
"166 440 OFFCURVE",
"127 398 CURVE",
"127 607 LINE SMOOTH",
"127 631 OFFCURVE",
"118 643 OFFCURVE",
"101 643 CURVE SMOOTH",
"84 643 OFFCURVE",
"75 631 OFFCURVE",
"75 607 CURVE SMOOTH",
"75 27 LINE SMOOTH",
"75 4 OFFCURVE",
"84 -7 OFFCURVE",
"101 -7 CURVE SMOOTH",
"118 -7 OFFCURVE",
"127 4 OFFCURVE",
"127 27 CURVE SMOOTH",
"127 231 LINE SMOOTH",
"127 350 OFFCURVE",
"184 409 OFFCURVE",
"298 409 CURVE SMOOTH",
"327 409 LINE SMOOTH"
);
}
);
width = 619;
}
);
note = h;
rightKerningGroup = h;
unicode = 0068;
},
{
glyphname = i;
lastChange = "2016-07-31 02:24:38 +0000";
layers = (
{
layerId = "7FF32B46-F6F7-4405-9AA0-D8922FAB2D23";
paths = (
{
closed = 1;
nodes = (
"126 462 OFFCURVE",
"117 473 OFFCURVE",
"100 473 CURVE SMOOTH",
"83 473 OFFCURVE",
"74 462 OFFCURVE",
"74 440 CURVE SMOOTH",
"74 20 LINE SMOOTH",
"74 -1 OFFCURVE",
"83 -12 OFFCURVE",
"100 -12 CURVE SMOOTH",
"117 -12 OFFCURVE",
"126 -1 OFFCURVE",
"126 20 CURVE SMOOTH",
"126 440 LINE SMOOTH"
);
},
{
closed = 1;
nodes = (
"49 578 OFFCURVE",
"78 560 OFFCURVE",
"100 560 CURVE SMOOTH",
"122 560 OFFCURVE",
"151 578 OFFCURVE",
"151 601 CURVE SMOOTH",
"151 624 OFFCURVE",
"122 642 OFFCURVE",
"100 642 CURVE SMOOTH",
"78 642 OFFCURVE",
"49 624 OFFCURVE",
"49 601 CURVE SMOOTH"
);
}
);
width = 200;
}
);
note = i;
rightKerningGroup = numbersign;
unicode = 0069;
},
{
glyphname = j;
lastChange = "2016-07-31 02:24:38 +0000";
layers = (
{
layerId = "7FF32B46-F6F7-4405-9AA0-D8922FAB2D23";
paths = (
{
closed = 1;
nodes = (
"48 578 OFFCURVE",
"77 560 OFFCURVE",
"99 560 CURVE SMOOTH",
"121 560 OFFCURVE",
"150 578 OFFCURVE",
"150 601 CURVE SMOOTH",
"150 624 OFFCURVE",
"121 642 OFFCURVE",
"99 642 CURVE SMOOTH",
"77 642 OFFCURVE",
"48 624 OFFCURVE",
"48 601 CURVE SMOOTH"
);
},
{
closed = 1;
nodes = (
"127 456 OFFCURVE",
"118 468 OFFCURVE",
"101 468 CURVE SMOOTH",
"84 468 OFFCURVE",
"75 456 OFFCURVE",
"75 432 CURVE SMOOTH",
"75 0 LINE SMOOTH",
"75 -105 OFFCURVE",
"37 -123 OFFCURVE",
"-86 -123 CURVE SMOOTH",
"-110 -123 OFFCURVE",
"-122 -132 OFFCURVE",
"-122 -149 CURVE SMOOTH",
"-122 -166 OFFCURVE",
"-110 -175 OFFCURVE",
"-86 -175 CURVE SMOOTH",
"51 -175 OFFCURVE",
"127 -147 OFFCURVE",
"127 -4 CURVE SMOOTH",
"127 -3 OFFCURVE",
"127 -1 OFFCURVE",
"127 0 CURVE SMOOTH",
"127 432 LINE SMOOTH"
);
}
);
width = 202;
}
);
note = j;
rightKerningGroup = numbersign;
unicode = 006A;
},
{
glyphname = k;
lastChange = "2016-07-31 02:24:38 +0000";
layers = (
{
layerId = "7FF32B46-F6F7-4405-9AA0-D8922FAB2D23";
paths = (
{
closed = 1;
nodes = (
"358 417 LINE",
"366 425 OFFCURVE",
"370 433 OFFCURVE",
"370 440 CURVE SMOOTH",
"370 455 OFFCURVE",
"357 466 OFFCURVE",
"344 466 CURVE SMOOTH",
"337 466 OFFCURVE",
"330 462 OFFCURVE",
"321 454 CURVE",
"127 269 LINE",
"127 610 LINE SMOOTH",
"127 632 OFFCURVE",
"118 643 OFFCURVE",
"101 643 CURVE SMOOTH",
"84 643 OFFCURVE",
"75 632 OFFCURVE",
"75 610 CURVE SMOOTH",
"75 24 LINE SMOOTH",
"75 3 OFFCURVE",
"84 -7 OFFCURVE",
"101 -7 CURVE SMOOTH",
"118 -7 OFFCURVE",
"127 4 OFFCURVE",
"127 25 CURVE SMOOTH",
"127 206 LINE",
"156 235 LINE",
"393 6 LINE",
"402 -2 OFFCURVE",
"411 -6 OFFCURVE",
"418 -6 CURVE SMOOTH",
"432 -6 OFFCURVE",
"442 7 OFFCURVE",
"442 20 CURVE SMOOTH",
"442 27 OFFCURVE",
"438 34 OFFCURVE",
"431 43 CURVE",
"192 265 LINE"
);
}
);
width = 454;
}
);
note = k;
rightKerningGroup = k;
unicode = 006B;
},
{
glyphname = l;
lastChange = "2016-07-31 02:24:38 +0000";
layers = (
{
layerId = "7FF32B46-F6F7-4405-9AA0-D8922FAB2D23";
paths = (
{
closed = 1;
nodes = (
"220 0 OFFCURVE",
"232 9 OFFCURVE",
"232 26 CURVE SMOOTH",
"232 43 OFFCURVE",
"221 52 OFFCURVE",
"198 52 CURVE SMOOTH",
"153 52 OFFCURVE",
"142 67 OFFCURVE",
"142 110 CURVE SMOOTH",
"142 608 LINE SMOOTH",
"142 631 OFFCURVE",
"133 643 OFFCURVE",
"116 643 CURVE SMOOTH",
"99 643 OFFCURVE",
"90 631 OFFCURVE",
"90 608 CURVE SMOOTH",
"90 127 LINE SMOOTH",
"90 34 OFFCURVE",
"113 0 OFFCURVE",
"190 0 CURVE SMOOTH",
"197 0 LINE SMOOTH"
);
}
);
width = 271;
}
);
leftKerningGroup = l;
note = l;
rightKerningGroup = l;
unicode = 006C;
},
{
glyphname = m;
lastChange = "2016-07-31 02:24:38 +0000";
layers = (
{
layerId = "7FF32B46-F6F7-4405-9AA0-D8922FAB2D23";
paths = (
{
closed = 1;
nodes = (
"390 4 OFFCURVE",
"399 -7 OFFCURVE",
"416 -7 CURVE SMOOTH",
"433 -7 OFFCURVE",
"442 4 OFFCURVE",
"442 27 CURVE SMOOTH",
"442 231 LINE SMOOTH",
"442 350 OFFCURVE",
"488 409 OFFCURVE",
"580 409 CURVE SMOOTH",
"582 409 OFFCURVE",
"584 409 OFFCURVE",
"586 409 CURVE SMOOTH",
"670 409 OFFCURVE",
"707 396 OFFCURVE",
"707 284 CURVE SMOOTH",
"707 27 LINE SMOOTH",
"707 4 OFFCURVE",
"716 -7 OFFCURVE",
"733 -7 CURVE SMOOTH",
"750 -7 OFFCURVE",
"759 4 OFFCURVE",
"759 27 CURVE SMOOTH",
"759 285 LINE SMOOTH",
"759 424 OFFCURVE",
"698 461 OFFCURVE",
"573 461 CURVE SMOOTH",
"510 461 OFFCURVE",
"462 434 OFFCURVE",
"428 381 CURVE",
"406 434 OFFCURVE",
"353 461 OFFCURVE",
"268 461 CURVE SMOOTH",
"193 461 OFFCURVE",
"163 443 OFFCURVE",
"126 398 CURVE",
"126 432 LINE SMOOTH",
"126 456 OFFCURVE",
"117 468 OFFCURVE",
"100 468 CURVE SMOOTH",
"83 468 OFFCURVE",
"74 456 OFFCURVE",
"74 433 CURVE SMOOTH",
"74 27 LINE SMOOTH",
"74 4 OFFCURVE",
"83 -7 OFFCURVE",
"100 -7 CURVE SMOOTH",
"117 -7 OFFCURVE",
"126 4 OFFCURVE",
"126 27 CURVE SMOOTH",
"126 231 LINE SMOOTH",
"126 350 OFFCURVE",
"172 409 OFFCURVE",
"265 409 CURVE SMOOTH",
"358 409 OFFCURVE",
"390 392 OFFCURVE",
"390 284 CURVE SMOOTH",
"390 27 LINE SMOOTH"
);
}
);
width = 830;
}
);
leftKerningGroup = m;
note = m;
rightKerningGroup = h;
unicode = 006D;
},
{
glyphname = n;
lastChange = "2016-07-31 02:24:38 +0000";
layers = (
{
layerId = "7FF32B46-F6F7-4405-9AA0-D8922FAB2D23";
paths = (
{
closed = 1;
nodes = (
"329 409 OFFCURVE",
"332 409 OFFCURVE",
"335 409 CURVE SMOOTH",
"450 409 OFFCURVE",
"496 396 OFFCURVE",
"496 284 CURVE SMOOTH",
"496 27 LINE SMOOTH",
"496 4 OFFCURVE",
"505 -7 OFFCURVE",
"522 -7 CURVE SMOOTH",
"539 -7 OFFCURVE",
"548 4 OFFCURVE",
"548 27 CURVE SMOOTH",
"548 285 LINE SMOOTH",
"548 425 OFFCURVE",
"479 461 OFFCURVE",
"326 461 CURVE SMOOTH",
"297 461 LINE SMOOTH",
"222 461 OFFCURVE",
"165 440 OFFCURVE",
"126 398 CURVE",
"126 432 LINE SMOOTH",
"126 456 OFFCURVE",
"117 468 OFFCURVE",
"100 468 CURVE SMOOTH",
"83 468 OFFCURVE",
"74 456 OFFCURVE",
"74 433 CURVE SMOOTH",
"74 27 LINE SMOOTH",
"74 4 OFFCURVE",
"83 -7 OFFCURVE",
"100 -7 CURVE SMOOTH",
"117 -7 OFFCURVE",
"126 4 OFFCURVE",
"126 27 CURVE SMOOTH",
"126 231 LINE SMOOTH",
"126 350 OFFCURVE",
"183 409 OFFCURVE",
"297 409 CURVE SMOOTH",
"326 409 LINE SMOOTH"
);
}
);
width = 617;
}
);
leftKerningGroup = m;
note = n;
rightKerningGroup = h;
unicode = 006E;
},
{
glyphname = o;
lastChange = "2016-07-31 02:24:38 +0000";
layers = (
{
layerId = "7FF32B46-F6F7-4405-9AA0-D8922FAB2D23";
paths = (
{
closed = 1;
nodes = (
"467 0 OFFCURVE",
"536 36 OFFCURVE",
"536 176 CURVE SMOOTH",
"536 285 LINE SMOOTH",
"536 425 OFFCURVE",
"467 461 OFFCURVE",
"314 461 CURVE SMOOTH",
"285 461 LINE SMOOTH",
"132 461 OFFCURVE",
"62 425 OFFCURVE",
"62 285 CURVE SMOOTH",
"62 176 LINE SMOOTH",
"62 36 OFFCURVE",
"132 0 OFFCURVE",
"285 0 CURVE SMOOTH",
"314 0 LINE SMOOTH"
);
},
{
closed = 1;
nodes = (
"161 52 OFFCURVE",
"114 66 OFFCURVE",
"114 177 CURVE SMOOTH",
"114 284 LINE SMOOTH",
"114 341 OFFCURVE",
"121 372 OFFCURVE",
"162 393 CURVE SMOOTH",
"182 404 OFFCURVE",
"223 409 OFFCURVE",
"285 409 CURVE SMOOTH",
"314 409 LINE SMOOTH",
"317 409 OFFCURVE",
"320 409 OFFCURVE",
"323 409 CURVE SMOOTH",
"438 409 OFFCURVE",
"484 396 OFFCURVE",
"484 284 CURVE SMOOTH",
"484 177 LINE SMOOTH",
"484 120 OFFCURVE",
"477 89 OFFCURVE",
"437 68 CURVE SMOOTH",
"417 57 OFFCURVE",
"376 52 OFFCURVE",
"314 52 CURVE SMOOTH",
"285 52 LINE SMOOTH"
);
}
);
width = 598;
}
);
leftKerningGroup = c;
note = o;
rightKerningGroup = b;
unicode = 006F;
},
{
glyphname = p;
lastChange = "2016-07-31 02:24:38 +0000";
layers = (
{
layerId = "7FF32B46-F6F7-4405-9AA0-D8922FAB2D23";
paths = (
{
closed = 1;
nodes = (
"497 69 OFFCURVE",
"459 52 OFFCURVE",
"328 52 CURVE SMOOTH",
"127 52 LINE",
"127 232 LINE SMOOTH",
"127 350 OFFCURVE",
"184 409 OFFCURVE",
"298 409 CURVE SMOOTH",
"327 409 LINE SMOOTH",
"330 409 OFFCURVE",
"333 409 OFFCURVE",
"336 409 CURVE SMOOTH",
"449 409 OFFCURVE",
"496 396 OFFCURVE",
"497 284 CURVE SMOOTH",
"497 177 LINE SMOOTH"
);
},
{
closed = 1;
nodes = (
"549 425 OFFCURVE",
"480 461 OFFCURVE",
"327 461 CURVE SMOOTH",
"298 461 LINE SMOOTH",
"223 461 OFFCURVE",
"166 440 OFFCURVE",
"127 398 CURVE",
"127 433 LINE SMOOTH",
"127 456 OFFCURVE",
"118 468 OFFCURVE",
"101 468 CURVE SMOOTH",
"84 468 OFFCURVE",
"75 457 OFFCURVE",
"75 434 CURVE SMOOTH",
"75 -147 LINE SMOOTH",
"75 -170 OFFCURVE",
"84 -182 OFFCURVE",
"101 -182 CURVE SMOOTH",
"118 -182 OFFCURVE",
"127 -170 OFFCURVE",
"127 -147 CURVE SMOOTH",
"127 0 LINE",
"328 0 LINE SMOOTH",
"480 0 OFFCURVE",
"549 36 OFFCURVE",
"549 176 CURVE SMOOTH",
"549 285 LINE SMOOTH"
);
}
);
width = 611;
}
);
leftKerningGroup = m;
note = p;
rightKerningGroup = b;
unicode = 0070;
},
{
glyphname = q;
lastChange = "2016-07-31 02:24:38 +0000";
layers = (
{
layerId = "7FF32B46-F6F7-4405-9AA0-D8922FAB2D23";
paths = (
{
closed = 1;
nodes = (
"114 341 OFFCURVE",
"121 372 OFFCURVE",
"162 393 CURVE SMOOTH",
"182 404 OFFCURVE",
"223 409 OFFCURVE",
"285 409 CURVE SMOOTH",
"314 409 LINE SMOOTH",
"427 409 OFFCURVE",
"484 350 OFFCURVE",
"484 232 CURVE SMOOTH",
"484 52 LINE",
"284 52 LINE SMOOTH",
"160 52 OFFCURVE",
"114 66 OFFCURVE",
"114 177 CURVE SMOOTH",
"114 284 LINE SMOOTH"
);
},
{
closed = 1;
nodes = (
"62 36 OFFCURVE",
"131 0 OFFCURVE",
"284 0 CURVE SMOOTH",
"484 0 LINE",
"484 -147 LINE SMOOTH",
"484 -170 OFFCURVE",
"493 -182 OFFCURVE",
"510 -182 CURVE SMOOTH",
"527 -182 OFFCURVE",
"536 -170 OFFCURVE",
"536 -147 CURVE SMOOTH",
"536 434 LINE SMOOTH",
"536 457 OFFCURVE",
"527 468 OFFCURVE",
"510 468 CURVE SMOOTH",
"493 468 OFFCURVE",
"484 456 OFFCURVE",
"484 433 CURVE SMOOTH",
"484 398 LINE",
"446 440 OFFCURVE",
"389 461 OFFCURVE",
"314 461 CURVE SMOOTH",
"285 461 LINE SMOOTH",
"132 461 OFFCURVE",
"62 425 OFFCURVE",
"62 285 CURVE SMOOTH",
"62 176 LINE SMOOTH"
);
}
);
width = 611;
}
);
leftKerningGroup = c;
note = q;
rightKerningGroup = g;
unicode = 0071;
},
{
glyphname = r;
lastChange = "2016-07-31 02:24:38 +0000";
layers = (
{
layerId = "7FF32B46-F6F7-4405-9AA0-D8922FAB2D23";
paths = (
{
closed = 1;
nodes = (
"356 409 OFFCURVE",
"368 418 OFFCURVE",
"368 435 CURVE SMOOTH",
"368 452 OFFCURVE",
"356 461 OFFCURVE",
"333 461 CURVE SMOOTH",
"287 461 LINE SMOOTH",
"219 461 OFFCURVE",
"165 440 OFFCURVE",
"126 398 CURVE",
"126 432 LINE SMOOTH",
"126 456 OFFCURVE",
"117 468 OFFCURVE",
"100 468 CURVE SMOOTH",
"83 468 OFFCURVE",
"74 456 OFFCURVE",
"74 433 CURVE SMOOTH",
"74 27 LINE SMOOTH",
"74 4 OFFCURVE",
"83 -7 OFFCURVE",
"100 -7 CURVE SMOOTH",
"117 -7 OFFCURVE",
"126 4 OFFCURVE",
"126 27 CURVE SMOOTH",
"126 231 LINE SMOOTH",
"126 346 OFFCURVE",
"183 409 OFFCURVE",
"287 409 CURVE SMOOTH",
"333 409 LINE SMOOTH"
);
}
);
width = 383;
}
);
leftKerningGroup = m;
note = r;
rightKerningGroup = r;
unicode = 0072;
},
{
glyphname = s;
lastChange = "2016-07-31 02:24:38 +0000";
layers = (
{
layerId = "7FF32B46-F6F7-4405-9AA0-D8922FAB2D23";
paths = (
{
closed = 1;
nodes = (
"136 262 OFFCURVE",
"112 289 OFFCURVE",
"112 340 CURVE SMOOTH",
"112 386 OFFCURVE",
"132 409 OFFCURVE",
"171 409 CURVE SMOOTH",
"417 409 LINE SMOOTH",
"458 409 OFFCURVE",
"472 393 OFFCURVE",
"472 348 CURVE SMOOTH",
"472 325 OFFCURVE",
"481 314 OFFCURVE",
"498 314 CURVE SMOOTH",
"515 314 OFFCURVE",
"524 324 OFFCURVE",
"524 343 CURVE SMOOTH",
"524 362 OFFCURVE",
"523 378 OFFCURVE",
"521 389 CURVE SMOOTH",
"512 437 OFFCURVE",
"480 461 OFFCURVE",
"424 461 CURVE SMOOTH",
"199 461 LINE SMOOTH",
"96 461 OFFCURVE",
"60 420 OFFCURVE",
"60 340 CURVE SMOOTH",
"60 253 OFFCURVE",
"103 210 OFFCURVE",
"189 210 CURVE SMOOTH",
"415 210 LINE SMOOTH",
"450 210 OFFCURVE",
"474 175 OFFCURVE",
"474 126 CURVE SMOOTH",
"474 77 OFFCURVE",
"454 52 OFFCURVE",
"415 52 CURVE SMOOTH",
"167 52 LINE SMOOTH",
"124 52 OFFCURVE",
"112 69 OFFCURVE",
"112 114 CURVE SMOOTH",
"112 136 OFFCURVE",
"103 147 OFFCURVE",
"86 147 CURVE SMOOTH",
"69 147 OFFCURVE",
"60 137 OFFCURVE",
"60 118 CURVE SMOOTH",
"60 98 OFFCURVE",
"61 82 OFFCURVE",
"63 71 CURVE SMOOTH",
"72 24 OFFCURVE",
"104 0 OFFCURVE",
"160 0 CURVE SMOOTH",
"388 0 LINE SMOOTH",
"488 0 OFFCURVE",
"526 43 OFFCURVE",
"526 126 CURVE SMOOTH",
"526 217 OFFCURVE",
"483 262 OFFCURVE",
"398 262 CURVE SMOOTH",
"171 262 LINE SMOOTH"
);
}
);
width = 586;
}
);
leftKerningGroup = s;
note = s;
rightKerningGroup = s;
unicode = 0073;
},
{
glyphname = t;
lastChange = "2016-07-31 02:24:38 +0000";
layers = (
{
layerId = "7FF32B46-F6F7-4405-9AA0-D8922FAB2D23";
paths = (
{
closed = 1;
nodes = (
"268 409 LINE SMOOTH",
"292 409 OFFCURVE",
"304 418 OFFCURVE",
"304 435 CURVE SMOOTH",
"304 452 OFFCURVE",
"292 461 OFFCURVE",
"268 461 CURVE SMOOTH",
"130 461 LINE",
"130 565 LINE SMOOTH",
"130 589 OFFCURVE",
"121 601 OFFCURVE",
"104 601 CURVE SMOOTH",
"87 601 OFFCURVE",
"78 589 OFFCURVE",
"78 565 CURVE SMOOTH",
"78 461 LINE",
"57 460 OFFCURVE",
"47 452 OFFCURVE",
"47 436 CURVE SMOOTH",
"47 420 OFFCURVE",
"57 411 OFFCURVE",
"78 410 CURVE",
"78 176 LINE SMOOTH",
"78 37 OFFCURVE",
"147 0 OFFCURVE",
"291 0 CURVE SMOOTH",
"314 0 OFFCURVE",
"326 9 OFFCURVE",
"326 26 CURVE SMOOTH",
"326 43 OFFCURVE",
"314 52 OFFCURVE",
"291 52 CURVE SMOOTH",
"168 52 OFFCURVE",
"130 69 OFFCURVE",
"130 177 CURVE SMOOTH",
"130 409 LINE"
);
}
);
width = 344;
}
);
leftKerningGroup = t;
note = t;
rightKerningGroup = t;
unicode = 0074;
},
{
glyphname = u;
lastChange = "2016-07-31 02:24:38 +0000";
layers = (
{
layerId = "7FF32B46-F6F7-4405-9AA0-D8922FAB2D23";
paths = (
{
closed = 1;
nodes = (
"168 52 OFFCURVE",
"122 66 OFFCURVE",
"122 177 CURVE SMOOTH",
"122 434 LINE SMOOTH",
"122 457 OFFCURVE",
"113 468 OFFCURVE",
"96 468 CURVE SMOOTH",
"79 468 OFFCURVE",
"70 457 OFFCURVE",
"70 434 CURVE SMOOTH",
"70 176 LINE SMOOTH",
"70 36 OFFCURVE",
"139 0 OFFCURVE",
"292 0 CURVE SMOOTH",
"321 0 LINE SMOOTH",
"396 0 OFFCURVE",
"453 21 OFFCURVE",
"492 63 CURVE",
"492 29 LINE SMOOTH",
"492 5 OFFCURVE",
"501 -7 OFFCURVE",
"518 -7 CURVE SMOOTH",
"535 -7 OFFCURVE",
"544 5 OFFCURVE",
"544 28 CURVE SMOOTH",
"544 434 LINE SMOOTH",
"544 457 OFFCURVE",
"535 468 OFFCURVE",
"518 468 CURVE SMOOTH",
"501 468 OFFCURVE",
"492 457 OFFCURVE",
"492 434 CURVE SMOOTH",
"492 230 LINE SMOOTH",
"492 111 OFFCURVE",
"435 52 OFFCURVE",
"321 52 CURVE SMOOTH",
"292 52 LINE SMOOTH"
);
}
);
width = 618;
}
);
leftKerningGroup = u;
note = u;
rightKerningGroup = g;
unicode = 0075;
},
{
glyphname = v;
lastChange = "2016-07-31 02:24:38 +0000";
layers = (
{
layerId = "7FF32B46-F6F7-4405-9AA0-D8922FAB2D23";
paths = (
{
closed = 1;
nodes = (
"478 436 LINE",
"481 442 OFFCURVE",
"482 448 OFFCURVE",
"482 453 CURVE SMOOTH",
"482 466 OFFCURVE",
"475 473 OFFCURVE",
"460 473 CURVE SMOOTH",
"445 473 OFFCURVE",
"435 466 OFFCURVE",
"430 452 CURVE",
"252 51 LINE",
"80 451 LINE SMOOTH",
"73 466 OFFCURVE",
"64 473 OFFCURVE",
"52 473 CURVE SMOOTH",
"36 473 OFFCURVE",
"28 466 OFFCURVE",
"28 452 CURVE SMOOTH",
"28 447 OFFCURVE",
"29 442 OFFCURVE",
"32 436 CURVE",
"212 0 LINE",
"286 0 LINE"
);
}
);
width = 509;
}
);
leftKerningGroup = v;
note = v;
rightKerningGroup = v;
unicode = 0076;
},
{
glyphname = w;
lastChange = "2016-07-31 02:24:38 +0000";
layers = (
{
layerId = "7FF32B46-F6F7-4405-9AA0-D8922FAB2D23";
paths = (
{
closed = 1;
nodes = (
"761 444 OFFCURVE",
"762 450 OFFCURVE",
"762 454 CURVE SMOOTH",
"762 467 OFFCURVE",
"755 473 OFFCURVE",
"740 473 CURVE SMOOTH",
"725 473 OFFCURVE",
"715 466 OFFCURVE",
"710 451 CURVE SMOOTH",
"565 48 LINE",
"425 446 LINE SMOOTH",
"420 460 OFFCURVE",
"411 467 OFFCURVE",
"398 467 CURVE SMOOTH",
"385 467 OFFCURVE",
"375 460 OFFCURVE",
"369 446 CURVE",
"223 48 LINE",
"83 451 LINE SMOOTH",
"78 466 OFFCURVE",
"68 473 OFFCURVE",
"53 473 CURVE SMOOTH",
"38 473 OFFCURVE",
"31 467 OFFCURVE",
"31 454 CURVE SMOOTH",
"31 450 OFFCURVE",
"32 444 OFFCURVE",
"35 436 CURVE",
"181 0 LINE",
"260 0 LINE",
"397 374 LINE",
"524 0 LINE",
"603 0 LINE",
"758 436 LINE SMOOTH"
);
}
);
width = 792;
}
);
leftKerningGroup = w;
note = w;
rightKerningGroup = w;
unicode = 0077;
},
{
glyphname = x;
lastChange = "2016-07-31 02:24:38 +0000";
layers = (
{
layerId = "7FF32B46-F6F7-4405-9AA0-D8922FAB2D23";
paths = (
{
closed = 1;
nodes = (
"462 425 LINE SMOOTH",
"469 433 OFFCURVE",
"472 441 OFFCURVE",
"472 448 CURVE SMOOTH",
"472 462 OFFCURVE",
"460 472 OFFCURVE",
"446 472 CURVE SMOOTH",
"439 472 OFFCURVE",
"431 468 OFFCURVE",
"423 460 CURVE",
"257 267 LINE",
"90 460 LINE",
"81 468 OFFCURVE",
"73 472 OFFCURVE",
"66 472 CURVE SMOOTH",
"53 472 OFFCURVE",
"40 462 OFFCURVE",
"40 448 CURVE SMOOTH",
"40 441 OFFCURVE",
"43 433 OFFCURVE",
"50 425 CURVE SMOOTH",
"221 230 LINE",
"50 36 LINE",
"43 23 OFFCURVE",
"40 14 OFFCURVE",
"40 9 CURVE SMOOTH",
"40 0 OFFCURVE",
"53 -11 OFFCURVE",
"66 -11 CURVE SMOOTH",
"73 -11 OFFCURVE",
"81 -7 OFFCURVE",
"90 1 CURVE",
"257 194 LINE",
"423 1 LINE",
"431 -7 OFFCURVE",
"439 -11 OFFCURVE",
"446 -11 CURVE SMOOTH",
"460 -11 OFFCURVE",
"472 -1 OFFCURVE",
"472 12 CURVE SMOOTH",
"472 18 OFFCURVE",
"469 26 OFFCURVE",
"462 36 CURVE",
"291 230 LINE"
);
}
);
width = 512;
}
);
leftKerningGroup = x;
note = x;
rightKerningGroup = x;
unicode = 0078;
},
{
glyphname = y;
lastChange = "2016-07-31 02:24:38 +0000";
layers = (
{
layerId = "7FF32B46-F6F7-4405-9AA0-D8922FAB2D23";
paths = (
{
closed = 1;
nodes = (
"168 52 OFFCURVE",
"122 66 OFFCURVE",
"122 177 CURVE SMOOTH",
"122 434 LINE SMOOTH",
"122 457 OFFCURVE",
"113 468 OFFCURVE",
"96 468 CURVE SMOOTH",
"79 468 OFFCURVE",
"70 457 OFFCURVE",
"70 434 CURVE SMOOTH",
"70 176 LINE SMOOTH",
"70 36 OFFCURVE",
"139 0 OFFCURVE",
"292 0 CURVE SMOOTH",
"321 0 LINE SMOOTH",
"396 0 OFFCURVE",
"453 21 OFFCURVE",
"492 63 CURVE",
"492 -103 LINE SMOOTH",
"492 -143 OFFCURVE",
"485 -153 OFFCURVE",
"446 -153 CURVE SMOOTH",
"177 -153 LINE SMOOTH",
"136 -153 OFFCURVE",
"122 -137 OFFCURVE",
"122 -92 CURVE SMOOTH",
"122 -69 OFFCURVE",
"113 -58 OFFCURVE",
"96 -58 CURVE SMOOTH",
"79 -58 OFFCURVE",
"70 -68 OFFCURVE",
"70 -87 CURVE SMOOTH",
"70 -106 OFFCURVE",
"71 -122 OFFCURVE",
"73 -133 CURVE SMOOTH",
"82 -181 OFFCURVE",
"114 -205 OFFCURVE",
"170 -205 CURVE SMOOTH",
"453 -205 LINE SMOOTH",
"524 -205 OFFCURVE",
"544 -174 OFFCURVE",
"544 -87 CURVE SMOOTH",
"544 434 LINE SMOOTH",
"544 457 OFFCURVE",
"535 468 OFFCURVE",
"518 468 CURVE SMOOTH",
"501 468 OFFCURVE",
"492 457 OFFCURVE",
"492 434 CURVE SMOOTH",
"492 230 LINE SMOOTH",
"492 111 OFFCURVE",
"435 52 OFFCURVE",
"321 52 CURVE SMOOTH",
"292 52 LINE SMOOTH"
);
}
);
width = 619;
}
);
leftKerningGroup = u;
note = y;
rightKerningGroup = g;
unicode = 0079;
},
{
glyphname = z;
lastChange = "2016-07-31 02:24:38 +0000";
layers = (
{
layerId = "7FF32B46-F6F7-4405-9AA0-D8922FAB2D23";
paths = (
{
closed = 1;
nodes = (
"480 461 LINE",
"159 461 LINE SMOOTH",
"82 461 OFFCURVE",
"59 427 OFFCURVE",
"59 332 CURVE SMOOTH",
"59 308 OFFCURVE",
"68 296 OFFCURVE",
"85 296 CURVE SMOOTH",
"102 296 OFFCURVE",
"111 309 OFFCURVE",
"111 334 CURVE SMOOTH",
"111 385 OFFCURVE",
"119 409 OFFCURVE",
"166 409 CURVE SMOOTH",
"416 409 LINE",
"59 64 LINE",
"59 0 LINE",
"401 0 LINE SMOOTH",
"478 0 OFFCURVE",
"501 36 OFFCURVE",
"501 129 CURVE SMOOTH",
"501 153 OFFCURVE",
"493 165 OFFCURVE",
"476 165 CURVE",
"475 164 OFFCURVE",
"475 164 OFFCURVE",
"475 164 CURVE SMOOTH",
"458 164 OFFCURVE",
"449 151 OFFCURVE",
"449 126 CURVE SMOOTH",
"449 75 OFFCURVE",
"441 52 OFFCURVE",
"393 52 CURVE SMOOTH",
"126 52 LINE",
"480 394 LINE"
);
}
);
width = 552;
}
);
leftKerningGroup = z;
note = z;
rightKerningGroup = z;
unicode = 007A;
},
{
glyphname = braceleft;
lastChange = "2016-07-31 02:24:38 +0000";
layers = (
{
layerId = "7FF32B46-F6F7-4405-9AA0-D8922FAB2D23";
paths = (
{
closed = 1;
nodes = (
"163 264 OFFCURVE",
"139 291 OFFCURVE",
"92 317 CURVE",
"139 346 OFFCURVE",
"163 371 OFFCURVE",
"163 393 CURVE SMOOTH",
"163 415 OFFCURVE",
"158 441 OFFCURVE",
"149 472 CURVE SMOOTH",
"140 503 OFFCURVE",
"135 531 OFFCURVE",
"135 558 CURVE SMOOTH",
"135 611 OFFCURVE",
"144 631 OFFCURVE",
"213 631 CURVE",
"213 683 LINE",
"120 683 OFFCURVE",
"83 655 OFFCURVE",
"83 528 CURVE SMOOTH",
"83 515 OFFCURVE",
"88 494 OFFCURVE",
"97 464 CURVE SMOOTH",
"106 433 OFFCURVE",
"111 411 OFFCURVE",
"111 398 CURVE SMOOTH",
"111 371 OFFCURVE",
"66 336 OFFCURVE",
"38 321 CURVE",
"38 313 LINE",
"66 300 OFFCURVE",
"111 265 OFFCURVE",
"111 238 CURVE SMOOTH",
"111 225 OFFCURVE",
"106 203 OFFCURVE",
"97 173 CURVE SMOOTH",
"88 142 OFFCURVE",
"83 121 OFFCURVE",
"83 108 CURVE SMOOTH",
"83 -19 OFFCURVE",
"120 -47 OFFCURVE",
"213 -47 CURVE",
"213 5 LINE",
"142 5 OFFCURVE",
"135 25 OFFCURVE",
"135 78 CURVE SMOOTH",
"135 105 OFFCURVE",
"140 133 OFFCURVE",
"149 164 CURVE SMOOTH",
"158 195 OFFCURVE",
"163 219 OFFCURVE",
"163 236 CURVE SMOOTH"
);
}
);
width = 262;
}
);
note = braceleft;
rightKerningGroup = braceleft;
unicode = 007B;
},
{
glyphname = bar;
lastChange = "2016-07-31 02:24:38 +0000";
layers = (
{
layerId = "7FF32B46-F6F7-4405-9AA0-D8922FAB2D23";
paths = (
{
closed = 1;
nodes = (
"133 632 OFFCURVE",
"124 643 OFFCURVE",
"107 643 CURVE SMOOTH",
"90 643 OFFCURVE",
"81 632 OFFCURVE",
"81 610 CURVE SMOOTH",
"81 25 LINE SMOOTH",
"81 4 OFFCURVE",
"90 -7 OFFCURVE",
"107 -7 CURVE SMOOTH",
"124 -7 OFFCURVE",
"133 4 OFFCURVE",
"133 25 CURVE SMOOTH",
"133 610 LINE SMOOTH"
);
}
);
width = 214;
}
);
note = bar;
rightKerningGroup = numbersign;
unicode = 007C;
},
{
glyphname = braceright;
lastChange = "2016-07-31 02:24:38 +0000";
layers = (
{
layerId = "7FF32B46-F6F7-4405-9AA0-D8922FAB2D23";
paths = (
{
closed = 1;
nodes = (
"99 219 OFFCURVE",
"104 195 OFFCURVE",
"113 164 CURVE SMOOTH",
"122 133 OFFCURVE",
"127 105 OFFCURVE",
"127 78 CURVE SMOOTH",
"127 25 OFFCURVE",
"120 5 OFFCURVE",
"49 5 CURVE",
"49 -47 LINE",
"142 -47 OFFCURVE",
"179 -19 OFFCURVE",
"179 108 CURVE SMOOTH",
"179 121 OFFCURVE",
"174 142 OFFCURVE",
"165 173 CURVE SMOOTH",
"156 203 OFFCURVE",
"151 225 OFFCURVE",
"151 238 CURVE SMOOTH",
"151 265 OFFCURVE",
"196 300 OFFCURVE",
"224 313 CURVE",
"224 321 LINE",
"196 336 OFFCURVE",
"151 371 OFFCURVE",
"151 398 CURVE SMOOTH",
"151 411 OFFCURVE",
"156 433 OFFCURVE",
"165 463 CURVE SMOOTH",
"174 494 OFFCURVE",
"179 515 OFFCURVE",
"179 528 CURVE SMOOTH",
"179 655 OFFCURVE",
"142 683 OFFCURVE",
"49 683 CURVE",
"49 631 LINE",
"118 631 OFFCURVE",
"127 611 OFFCURVE",
"127 558 CURVE SMOOTH",
"127 531 OFFCURVE",
"122 503 OFFCURVE",
"113 472 CURVE SMOOTH",
"104 441 OFFCURVE",
"99 415 OFFCURVE",
"99 393 CURVE SMOOTH",
"99 371 OFFCURVE",
"123 346 OFFCURVE",
"170 317 CURVE",
"123 291 OFFCURVE",
"99 264 OFFCURVE",
"99 236 CURVE SMOOTH"
);
}
);
width = 262;
}
);
leftKerningGroup = braceright;
note = braceright;
rightKerningGroup = numbersign;
unicode = 007D;
},
{
glyphname = asciitilde;
lastChange = "2016-07-31 02:24:38 +0000";
layers = (
{
layerId = "7FF32B46-F6F7-4405-9AA0-D8922FAB2D23";
paths = (
{
closed = 1;
nodes = (
"142 274 OFFCURVE",
"136 271 OFFCURVE",
"131 265 CURVE",
"85 227 LINE SMOOTH",
"76 220 OFFCURVE",
"71 212 OFFCURVE",
"71 203 CURVE SMOOTH",
"71 186 OFFCURVE",
"84 177 OFFCURVE",
"96 177 CURVE SMOOTH",
"102 177 OFFCURVE",
"109 180 OFFCURVE",
"118 186 CURVE",
"149 214 LINE",
"152 217 OFFCURVE",
"155 218 OFFCURVE",
"158 218 CURVE SMOOTH",
"160 218 OFFCURVE",
"162 217 OFFCURVE",
"163 216 CURVE",
"261 180 LINE",
"262 180 LINE SMOOTH",
"265 180 OFFCURVE",
"268 179 OFFCURVE",
"269 178 CURVE",
"278 178 LINE SMOOTH",
"282 178 OFFCURVE",
"287 181 OFFCURVE",
"292 186 CURVE",
"339 225 LINE",
"348 234 OFFCURVE",
"353 243 OFFCURVE",
"353 252 CURVE SMOOTH",
"353 267 OFFCURVE",
"344 275 OFFCURVE",
"327 275 CURVE SMOOTH",
"321 275 OFFCURVE",
"314 272 OFFCURVE",
"305 266 CURVE",
"274 238 LINE",
"271 235 OFFCURVE",
"268 234 OFFCURVE",
"266 234 CURVE",
"261 236 LINE",
"163 272 LINE",
"150 274 LINE"
);
}
);
width = 425;
}
);
note = asciitilde;
rightKerningGroup = numbersign;
unicode = 007E;
},
{
glyphname = exclamdown;
lastChange = "2016-07-31 02:24:38 +0000";
layers = (
{
layerId = "7FF32B46-F6F7-4405-9AA0-D8922FAB2D23";
paths = (
{
closed = 1;
nodes = (
"141 304 OFFCURVE",
"132 315 OFFCURVE",
"115 315 CURVE SMOOTH",
"98 315 OFFCURVE",
"89 304 OFFCURVE",
"89 282 CURVE SMOOTH",
"89 -138 LINE SMOOTH",
"89 -159 OFFCURVE",
"98 -170 OFFCURVE",
"115 -170 CURVE SMOOTH",
"132 -170 OFFCURVE",
"141 -159 OFFCURVE",
"141 -138 CURVE SMOOTH",
"141 282 LINE SMOOTH"
);
},
{
closed = 1;
nodes = (
"63 427 OFFCURVE",
"93 409 OFFCURVE",
"115 409 CURVE SMOOTH",
"137 409 OFFCURVE",
"166 427 OFFCURVE",
"166 450 CURVE SMOOTH",
"166 473 OFFCURVE",
"138 491 OFFCURVE",
"115 491 CURVE SMOOTH",
"92 491 OFFCURVE",
"63 473 OFFCURVE",
"63 450 CURVE SMOOTH"
);
}
);
width = 230;
}
);
note = exclamdown;
rightKerningGroup = exclamdown;
unicode = 00A1;
},
{
glyphname = cent;
lastChange = "2016-07-31 02:24:38 +0000";
layers = (
{
layerId = "7FF32B46-F6F7-4405-9AA0-D8922FAB2D23";
paths = (
{
closed = 1;
nodes = (
"320 118 LINE SMOOTH",
"321 118 OFFCURVE",
"322 118 OFFCURVE",
"323 118 CURVE SMOOTH",
"364 118 OFFCURVE",
"391 130 OFFCURVE",
"404 154 CURVE SMOOTH",
"417 178 OFFCURVE",
"421 196 OFFCURVE",
"421 236 CURVE SMOOTH",
"421 255 OFFCURVE",
"412 265 OFFCURVE",
"395 265 CURVE SMOOTH",
"378 265 OFFCURVE",
"369 254 OFFCURVE",
"369 231 CURVE SMOOTH",
"369 185 OFFCURVE",
"354 170 OFFCURVE",
"313 170 CURVE SMOOTH",
"270 170 LINE",
"270 468 LINE",
"315 468 LINE SMOOTH",
"356 468 OFFCURVE",
"369 454 OFFCURVE",
"369 408 CURVE SMOOTH",
"369 385 OFFCURVE",
"378 373 OFFCURVE",
"395 373 CURVE SMOOTH",
"412 373 OFFCURVE",
"421 383 OFFCURVE",
"421 404 CURVE SMOOTH",
"421 424 OFFCURVE",
"420 439 OFFCURVE",
"418 450 CURVE SMOOTH",
"409 497 OFFCURVE",
"377 520 OFFCURVE",
"322 520 CURVE SMOOTH",
"270 520 LINE",
"270 615 LINE SMOOTH",
"270 637 OFFCURVE",
"261 648 OFFCURVE",
"244 648 CURVE SMOOTH",
"227 648 OFFCURVE",
"218 637 OFFCURVE",
"218 615 CURVE SMOOTH",
"218 519 LINE",
"107 512 OFFCURVE",
"49 467 OFFCURVE",
"49 340 CURVE SMOOTH",
"49 298 LINE SMOOTH",
"49 169 OFFCURVE",
"105 125 OFFCURVE",
"218 118 CURVE",
"218 20 LINE SMOOTH",
"218 -1 OFFCURVE",
"227 -12 OFFCURVE",
"244 -12 CURVE SMOOTH",
"261 -12 OFFCURVE",
"270 -1 OFFCURVE",
"270 20 CURVE SMOOTH",
"270 118 LINE"
);
},
{
closed = 1;
nodes = (
"131 175 OFFCURVE",
"101 201 OFFCURVE",
"101 298 CURVE SMOOTH",
"101 340 LINE SMOOTH",
"101 435 OFFCURVE",
"134 463 OFFCURVE",
"218 467 CURVE",
"218 171 LINE"
);
}
);
width = 478;
}
);
note = cent;
rightKerningGroup = numbersign;
unicode = 00A2;
},
{
glyphname = sterling;
lastChange = "2016-07-31 02:24:38 +0000";
layers = (
{
layerId = "7FF32B46-F6F7-4405-9AA0-D8922FAB2D23";
paths = (
{
closed = 1;
nodes = (
"65 4 OFFCURVE",
"72 -5 OFFCURVE",
"87 -5 CURVE SMOOTH",
"410 -5 LINE SMOOTH",
"432 -5 OFFCURVE",
"443 4 OFFCURVE",
"443 21 CURVE SMOOTH",
"443 38 OFFCURVE",
"432 47 OFFCURVE",
"410 47 CURVE SMOOTH",
"119 47 LINE",
"143 317 LINE",
"181 317 LINE SMOOTH",
"202 317 OFFCURVE",
"213 326 OFFCURVE",
"213 343 CURVE SMOOTH",
"213 360 OFFCURVE",
"202 369 OFFCURVE",
"181 369 CURVE SMOOTH",
"147 369 LINE",
"156 468 LINE SMOOTH",
"165 575 OFFCURVE",
"206 596 OFFCURVE",
"282 596 CURVE SMOOTH",
"358 596 OFFCURVE",
"389 582 OFFCURVE",
"389 501 CURVE SMOOTH",
"389 479 OFFCURVE",
"398 468 OFFCURVE",
"415 468 CURVE SMOOTH",
"432 468 OFFCURVE",
"441 479 OFFCURVE",
"441 501 CURVE SMOOTH",
"441 616 OFFCURVE",
"383 648 OFFCURVE",
"288 648 CURVE SMOOTH",
"193 648 OFFCURVE",
"117 619 OFFCURVE",
"104 468 CURVE SMOOTH",
"66 32 LINE",
"65 30 OFFCURVE",
"65 27 OFFCURVE",
"65 23 CURVE SMOOTH"
);
}
);
width = 501;
}
);
note = sterling;
rightKerningGroup = numbersign;
unicode = 00A3;
},
{
glyphname = currency;
lastChange = "2016-07-31 02:24:38 +0000";
layers = (
{
layerId = "7FF32B46-F6F7-4405-9AA0-D8922FAB2D23";
paths = (
{
closed = 1;
nodes = (
"306 335 OFFCURVE",
"352 287 OFFCURVE",
"352 230 CURVE SMOOTH",
"352 173 OFFCURVE",
"305 126 OFFCURVE",
"248 126 CURVE SMOOTH",
"191 126 OFFCURVE",
"143 173 OFFCURVE",
"143 231 CURVE SMOOTH",
"143 289 OFFCURVE",
"190 335 OFFCURVE",
"248 335 CURVE SMOOTH"
);
},
{
closed = 1;
nodes = (
"72 92 OFFCURVE",
"68 84 OFFCURVE",
"68 77 CURVE SMOOTH",
"68 61 OFFCURVE",
"81 51 OFFCURVE",
"95 51 CURVE SMOOTH",
"102 51 OFFCURVE",
"109 56 OFFCURVE",
"117 65 CURVE",
"162 109 LINE",
"187 91 OFFCURVE",
"216 82 OFFCURVE",
"248 82 CURVE SMOOTH",
"280 82 OFFCURVE",
"308 91 OFFCURVE",
"333 109 CURVE",
"377 65 LINE SMOOTH",
"386 56 OFFCURVE",
"393 51 OFFCURVE",
"400 51 CURVE SMOOTH",
"413 51 OFFCURVE",
"427 66 OFFCURVE",
"427 78 CURVE SMOOTH",
"427 84 OFFCURVE",
"422 92 OFFCURVE",
"413 101 CURVE SMOOTH",
"369 145 LINE",
"387 170 OFFCURVE",
"396 198 OFFCURVE",
"396 231 CURVE SMOOTH",
"396 263 OFFCURVE",
"387 291 OFFCURVE",
"369 315 CURVE",
"413 360 LINE",
"422 368 OFFCURVE",
"427 376 OFFCURVE",
"427 385 CURVE SMOOTH",
"427 401 OFFCURVE",
"418 409 OFFCURVE",
"400 409 CURVE SMOOTH",
"393 409 OFFCURVE",
"386 405 OFFCURVE",
"377 397 CURVE",
"333 352 LINE",
"308 370 OFFCURVE",
"280 379 OFFCURVE",
"248 379 CURVE SMOOTH",
"216 379 OFFCURVE",
"187 370 OFFCURVE",
"162 352 CURVE",
"117 397 LINE",
"108 405 OFFCURVE",
"100 409 OFFCURVE",
"94 409 CURVE SMOOTH",
"82 409 OFFCURVE",
"68 396 OFFCURVE",
"68 384 CURVE SMOOTH",
"68 377 OFFCURVE",
"72 369 OFFCURVE",
"80 360 CURVE",
"125 315 LINE",
"108 290 OFFCURVE",
"99 262 OFFCURVE",
"99 231 CURVE SMOOTH",
"99 199 OFFCURVE",
"108 171 OFFCURVE",
"125 146 CURVE",
"80 101 LINE"
);
}
);
width = 495;
}
);
note = currency;
rightKerningGroup = numbersign;
unicode = 00A4;
},
{
glyphname = yen;
lastChange = "2016-07-31 02:24:38 +0000";
layers = (
{
layerId = "7FF32B46-F6F7-4405-9AA0-D8922FAB2D23";
paths = (
{
closed = 1;
nodes = (
"244 277 LINE",
"144 277 LINE SMOOTH",
"123 277 OFFCURVE",
"112 268 OFFCURVE",
"112 251 CURVE SMOOTH",
"112 234 OFFCURVE",
"123 225 OFFCURVE",
"144 225 CURVE SMOOTH",
"244 225 LINE",
"244 188 LINE",
"144 188 LINE SMOOTH",
"123 188 OFFCURVE",
"112 179 OFFCURVE",
"112 162 CURVE SMOOTH",
"112 145 OFFCURVE",
"123 136 OFFCURVE",
"144 136 CURVE SMOOTH",
"244 136 LINE",
"244 20 LINE SMOOTH",
"244 -1 OFFCURVE",
"253 -12 OFFCURVE",
"270 -12 CURVE SMOOTH",
"287 -12 OFFCURVE",
"295 -2 OFFCURVE",
"295 18 CURVE SMOOTH",
"295 19 OFFCURVE",
"295 19 OFFCURVE",
"295 20 CURVE SMOOTH",
"295 136 LINE",
"389 136 LINE SMOOTH",
"411 136 OFFCURVE",
"422 145 OFFCURVE",
"422 162 CURVE SMOOTH",
"422 179 OFFCURVE",
"411 188 OFFCURVE",
"389 188 CURVE SMOOTH",
"295 188 LINE",
"295 225 LINE",
"389 225 LINE SMOOTH",
"411 225 OFFCURVE",
"422 234 OFFCURVE",
"422 251 CURVE SMOOTH",
"422 268 OFFCURVE",
"411 277 OFFCURVE",
"389 277 CURVE SMOOTH",
"295 277 LINE",
"295 308 LINE",
"499 601 LINE",
"504 609 OFFCURVE",
"507 616 OFFCURVE",
"507 623 CURVE SMOOTH",
"507 636 OFFCURVE",
"494 648 OFFCURVE",
"479 648 CURVE SMOOTH",
"472 648 OFFCURVE",
"464 642 OFFCURVE",
"456 630 CURVE SMOOTH",
"269 363 LINE",
"81 630 LINE SMOOTH",
"72 642 OFFCURVE",
"64 648 OFFCURVE",
"57 648 CURVE SMOOTH",
"44 648 OFFCURVE",
"31 637 OFFCURVE",
"31 624 CURVE SMOOTH",
"31 617 OFFCURVE",
"34 610 OFFCURVE",
"39 601 CURVE",
"244 308 LINE"
);
}
);
width = 538;
}
);
note = yen;
rightKerningGroup = numbersign;
unicode = 00A5;
},
{
glyphname = brokenbar;
lastChange = "2016-07-31 02:24:38 +0000";
layers = (
{
layerId = "7FF32B46-F6F7-4405-9AA0-D8922FAB2D23";
paths = (
{
closed = 1;
nodes = (
"81 379 OFFCURVE",
"90 368 OFFCURVE",
"107 368 CURVE SMOOTH",
"124 368 OFFCURVE",
"132 379 OFFCURVE",
"132 401 CURVE SMOOTH",
"132 616 LINE SMOOTH",
"132 637 OFFCURVE",
"124 648 OFFCURVE",
"107 648 CURVE SMOOTH",
"90 648 OFFCURVE",
"81 637 OFFCURVE",
"81 616 CURVE SMOOTH",
"81 401 LINE SMOOTH"
);
},
{
closed = 1;
nodes = (
"81 -1 OFFCURVE",
"90 -12 OFFCURVE",
"107 -12 CURVE SMOOTH",
"124 -12 OFFCURVE",
"132 -1 OFFCURVE",
"132 22 CURVE SMOOTH",
"132 237 LINE SMOOTH",
"132 258 OFFCURVE",
"124 268 OFFCURVE",
"107 268 CURVE SMOOTH",
"90 268 OFFCURVE",
"81 258 OFFCURVE",
"81 237 CURVE SMOOTH",
"81 22 LINE SMOOTH"
);
}
);
width = 213;
}
);
note = brokenbar;
rightKerningGroup = numbersign;
unicode = 00A6;
},
{
glyphname = section;
lastChange = "2016-07-31 02:24:38 +0000";
layers = (
{
layerId = "7FF32B46-F6F7-4405-9AA0-D8922FAB2D23";
paths = (
{
closed = 1;
nodes = (
"445 509 OFFCURVE",
"445 511 OFFCURVE",
"445 512 CURVE SMOOTH",
"445 580 OFFCURVE",
"412 598 OFFCURVE",
"365 599 CURVE SMOOTH",
"180 599 LINE SMOOTH",
"110 599 OFFCURVE",
"75 564 OFFCURVE",
"75 495 CURVE SMOOTH",
"75 450 OFFCURVE",
"90 418 OFFCURVE",
"121 400 CURVE",
"90 385 OFFCURVE",
"75 353 OFFCURVE",
"75 306 CURVE SMOOTH",
"75 241 OFFCURVE",
"110 203 OFFCURVE",
"179 194 CURVE SMOOTH",
"354 169 LINE SMOOTH",
"380 166 OFFCURVE",
"393 142 OFFCURVE",
"393 99 CURVE SMOOTH",
"393 62 OFFCURVE",
"383 47 OFFCURVE",
"351 47 CURVE SMOOTH",
"167 47 LINE SMOOTH",
"132 47 OFFCURVE",
"127 53 OFFCURVE",
"127 89 CURVE SMOOTH",
"127 107 OFFCURVE",
"118 116 OFFCURVE",
"101 116 CURVE SMOOTH",
"84 116 OFFCURVE",
"75 104 OFFCURVE",
"75 80 CURVE SMOOTH",
"75 32 OFFCURVE",
"91 -5 OFFCURVE",
"156 -5 CURVE SMOOTH",
"340 -5 LINE SMOOTH",
"410 -5 OFFCURVE",
"445 30 OFFCURVE",
"445 99 CURVE SMOOTH",
"445 144 OFFCURVE",
"430 176 OFFCURVE",
"399 194 CURVE",
"430 209 OFFCURVE",
"445 241 OFFCURVE",
"445 289 CURVE SMOOTH",
"445 354 OFFCURVE",
"410 391 OFFCURVE",
"341 400 CURVE SMOOTH",
"166 425 LINE SMOOTH",
"140 428 OFFCURVE",
"127 452 OFFCURVE",
"127 495 CURVE SMOOTH",
"127 531 OFFCURVE",
"137 547 OFFCURVE",
"169 547 CURVE SMOOTH",
"353 547 LINE SMOOTH",
"388 547 OFFCURVE",
"393 541 OFFCURVE",
"393 505 CURVE SMOOTH",
"393 487 OFFCURVE",
"402 478 OFFCURVE",
"419 478 CURVE SMOOTH",
"436 478 OFFCURVE",
"445 488 OFFCURVE",
"445 508 CURVE SMOOTH"
);
},
{
closed = 1;
nodes = (
"301 368 OFFCURVE",
"393 345 OFFCURVE",
"393 289 CURVE SMOOTH",
"393 232 OFFCURVE",
"386 226 OFFCURVE",
"298 226 CURVE SMOOTH",
"210 226 OFFCURVE",
"127 252 OFFCURVE",
"127 307 CURVE SMOOTH",
"127 362 OFFCURVE",
"135 368 OFFCURVE",
"218 368 CURVE SMOOTH"
);
}
);
width = 520;
}
);
note = section;
rightKerningGroup = numbersign;
unicode = 00A7;
},
{
glyphname = dieresis;
lastChange = "2016-07-31 02:24:38 +0000";
layers = (
{
layerId = "7FF32B46-F6F7-4405-9AA0-D8922FAB2D23";
paths = (
{
closed = 1;
nodes = (
"60 607 OFFCURVE",
"89 589 OFFCURVE",
"111 589 CURVE SMOOTH",
"133 589 OFFCURVE",
"162 607 OFFCURVE",
"162 630 CURVE SMOOTH",
"162 653 OFFCURVE",
"133 671 OFFCURVE",
"111 671 CURVE SMOOTH",
"89 671 OFFCURVE",
"60 653 OFFCURVE",
"60 630 CURVE SMOOTH"
);
},
{
closed = 1;
nodes = (
"206 607 OFFCURVE",
"235 589 OFFCURVE",
"257 589 CURVE SMOOTH",
"279 589 OFFCURVE",
"308 607 OFFCURVE",
"308 630 CURVE SMOOTH",
"308 653 OFFCURVE",
"279 671 OFFCURVE",
"257 671 CURVE SMOOTH",
"235 671 OFFCURVE",
"206 653 OFFCURVE",
"206 630 CURVE SMOOTH"
);
}
);
width = 367;
}
);
note = dieresis;
rightKerningGroup = numbersign;
unicode = 00A8;
},
{
glyphname = copyright;
lastChange = "2016-07-31 02:24:38 +0000";
layers = (
{
layerId = "7FF32B46-F6F7-4405-9AA0-D8922FAB2D23";
paths = (
{
closed = 1;
nodes = (
"249 421 OFFCURVE",
"206 392 OFFCURVE",
"206 337 CURVE SMOOTH",
"206 298 LINE SMOOTH",
"206 243 OFFCURVE",
"249 214 OFFCURVE",
"301 214 CURVE SMOOTH",
"351 214 LINE SMOOTH",
"388 214 OFFCURVE",
"406 233 OFFCURVE",
"406 272 CURVE SMOOTH",
"406 295 OFFCURVE",
"369 295 OFFCURVE",
"366 268 CURVE SMOOTH",
"365 259 OFFCURVE",
"359 254 OFFCURVE",
"349 255 CURVE",
"301 255 LINE SMOOTH",
"269 255 OFFCURVE",
"246 271 OFFCURVE",
"246 298 CURVE SMOOTH",
"246 337 LINE SMOOTH",
"246 364 OFFCURVE",
"269 380 OFFCURVE",
"301 380 CURVE SMOOTH",
"349 380 LINE SMOOTH",
"361 380 OFFCURVE",
"367 374 OFFCURVE",
"367 363 CURVE SMOOTH",
"367 352 OFFCURVE",
"374 346 OFFCURVE",
"387 346 CURVE SMOOTH",
"400 346 OFFCURVE",
"406 352 OFFCURVE",
"406 363 CURVE SMOOTH",
"406 402 OFFCURVE",
"388 421 OFFCURVE",
"351 421 CURVE SMOOTH",
"301 421 LINE SMOOTH"
);
},
{
closed = 1;
nodes = (
"465 82 OFFCURVE",
"533 119 OFFCURVE",
"533 262 CURVE SMOOTH",
"533 373 LINE SMOOTH",
"533 516 OFFCURVE",
"465 553 OFFCURVE",
"321 553 CURVE SMOOTH",
"292 553 LINE SMOOTH",
"155 553 OFFCURVE",
"79 521 OFFCURVE",
"79 373 CURVE SMOOTH",
"79 262 LINE SMOOTH",
"79 187 OFFCURVE",
"95 142 OFFCURVE",
"149 108 CURVE SMOOTH",
"176 91 OFFCURVE",
"223 82 OFFCURVE",
"292 82 CURVE SMOOTH",
"321 82 LINE SMOOTH"
);
},
{
closed = 1;
nodes = (
"169 134 OFFCURVE",
"131 153 OFFCURVE",
"131 262 CURVE SMOOTH",
"131 373 LINE SMOOTH",
"131 482 OFFCURVE",
"169 501 OFFCURVE",
"292 501 CURVE SMOOTH",
"321 501 LINE SMOOTH",
"442 501 OFFCURVE",
"481 482 OFFCURVE",
"481 373 CURVE SMOOTH",
"481 262 LINE SMOOTH",
"481 153 OFFCURVE",
"442 134 OFFCURVE",
"321 134 CURVE SMOOTH",
"292 134 LINE SMOOTH"
);
}
);
width = 612;
}
);
note = copyright;
rightKerningGroup = numbersign;
unicode = 00A9;
},
{
glyphname = ordfeminine;
lastChange = "2016-07-31 02:24:38 +0000";
layers = (
{
layerId = "7FF32B46-F6F7-4405-9AA0-D8922FAB2D23";
paths = (
{
closed = 1;
nodes = (
"306 159 OFFCURVE",
"315 167 OFFCURVE",
"315 182 CURVE SMOOTH",
"315 197 OFFCURVE",
"306 204 OFFCURVE",
"287 204 CURVE SMOOTH",
"91 204 LINE SMOOTH",
"74 204 OFFCURVE",
"65 197 OFFCURVE",
"65 182 CURVE SMOOTH",
"65 167 OFFCURVE",
"74 159 OFFCURVE",
"91 159 CURVE SMOOTH",
"287 159 LINE SMOOTH"
);
},
{
closed = 1;
nodes = (
"247 306 OFFCURVE",
"226 285 OFFCURVE",
"187 285 CURVE SMOOTH",
"150 285 LINE SMOOTH",
"137 285 OFFCURVE",
"131 293 OFFCURVE",
"131 310 CURVE SMOOTH",
"131 342 OFFCURVE",
"145 349 OFFCURVE",
"192 349 CURVE SMOOTH",
"249 349 LINE"
);
},
{
closed = 1;
nodes = (
"242 425 OFFCURVE",
"249 418 OFFCURVE",
"249 404 CURVE SMOOTH",
"249 390 LINE",
"192 390 LINE SMOOTH",
"124 390 OFFCURVE",
"90 367 OFFCURVE",
"90 320 CURVE SMOOTH",
"90 272 OFFCURVE",
"115 244 OFFCURVE",
"150 244 CURVE SMOOTH",
"187 244 LINE SMOOTH",
"216 244 OFFCURVE",
"237 253 OFFCURVE",
"249 270 CURVE",
"249 258 LINE SMOOTH",
"249 247 OFFCURVE",
"256 241 OFFCURVE",
"269 241 CURVE SMOOTH",
"282 241 OFFCURVE",
"289 247 OFFCURVE",
"290 258 CURVE",
"290 397 LINE SMOOTH",
"290 443 OFFCURVE",
"271 466 OFFCURVE",
"232 466 CURVE SMOOTH",
"147 466 LINE SMOOTH",
"114 466 OFFCURVE",
"90 437 OFFCURVE",
"90 409 CURVE SMOOTH",
"90 394 OFFCURVE",
"97 387 OFFCURVE",
"111 387 CURVE SMOOTH",
"124 387 OFFCURVE",
"131 393 OFFCURVE",
"131 406 CURVE SMOOTH",
"131 419 OFFCURVE",
"137 425 OFFCURVE",
"150 425 CURVE SMOOTH",
"229 425 LINE SMOOTH"
);
}
);
width = 380;
}
);
note = ordfeminine;
rightKerningGroup = numbersign;
unicode = 00AA;
},
{
glyphname = logicalnot;
lastChange = "2016-07-31 02:24:38 +0000";
layers = (
{
layerId = "7FF32B46-F6F7-4405-9AA0-D8922FAB2D23";
paths = (
{
closed = 1;
nodes = (
"443 246 OFFCURVE",
"432 257 OFFCURVE",
"409 257 CURVE SMOOTH",
"111 257 LINE",
"90 256 OFFCURVE",
"80 247 OFFCURVE",
"80 230 CURVE SMOOTH",
"80 213 OFFCURVE",
"90 204 OFFCURVE",
"111 204 CURVE SMOOTH",
"390 204 LINE",
"390 141 LINE SMOOTH",
"390 119 OFFCURVE",
"399 108 OFFCURVE",
"416 108 CURVE SMOOTH",
"433 108 OFFCURVE",
"442 119 OFFCURVE",
"443 141 CURVE",
"443 225 LINE SMOOTH"
);
}
);
width = 522;
}
);
note = logicalnot;
rightKerningGroup = numbersign;
unicode = 00AC;
},
{
glyphname = registered;
lastChange = "2016-07-31 02:24:38 +0000";
layers = (
{
layerId = "7FF32B46-F6F7-4405-9AA0-D8922FAB2D23";
paths = (
{
closed = 1;
nodes = (
"169 134 OFFCURVE",
"131 153 OFFCURVE",
"131 262 CURVE SMOOTH",
"131 373 LINE SMOOTH",
"131 482 OFFCURVE",
"169 501 OFFCURVE",
"292 501 CURVE SMOOTH",
"321 501 LINE SMOOTH",
"442 501 OFFCURVE",
"481 482 OFFCURVE",
"481 373 CURVE SMOOTH",
"481 262 LINE SMOOTH",
"481 153 OFFCURVE",
"442 134 OFFCURVE",
"321 134 CURVE SMOOTH",
"292 134 LINE SMOOTH"
);
},
{
closed = 1;
nodes = (
"465 82 OFFCURVE",
"533 119 OFFCURVE",
"533 262 CURVE SMOOTH",
"533 373 LINE SMOOTH",
"533 516 OFFCURVE",
"465 553 OFFCURVE",
"321 553 CURVE SMOOTH",
"292 553 LINE SMOOTH",
"155 553 OFFCURVE",
"79 521 OFFCURVE",
"79 373 CURVE SMOOTH",
"79 262 LINE SMOOTH",
"79 187 OFFCURVE",
"95 142 OFFCURVE",
"149 108 CURVE SMOOTH",
"176 91 OFFCURVE",
"223 82 OFFCURVE",
"292 82 CURVE SMOOTH",
"321 82 LINE SMOOTH"
);
},
{
closed = 1;
nodes = (
"414 404 OFFCURVE",
"378 426 OFFCURVE",
"305 426 CURVE SMOOTH",
"221 426 LINE SMOOTH",
"208 426 OFFCURVE",
"202 421 OFFCURVE",
"202 411 CURVE SMOOTH",
"202 217 LINE SMOOTH",
"202 208 OFFCURVE",
"209 203 OFFCURVE",
"223 203 CURVE SMOOTH",
"236 203 OFFCURVE",
"243 208 OFFCURVE",
"243 217 CURVE SMOOTH",
"243 298 LINE",
"314 298 LINE",
"345 279 OFFCURVE",
"372 232 OFFCURVE",
"376 216 CURVE",
"376 207 OFFCURVE",
"385 203 OFFCURVE",
"402 203 CURVE SMOOTH",
"411 203 OFFCURVE",
"416 207 OFFCURVE",
"417 216 CURVE",
"417 235 OFFCURVE",
"385 285 OFFCURVE",
"366 301 CURVE",
"398 311 OFFCURVE",
"414 331 OFFCURVE",
"414 361 CURVE SMOOTH"
);
},
{
closed = 1;
nodes = (
"243 385 LINE",
"305 385 LINE SMOOTH",
"332 385 OFFCURVE",
"350 384 OFFCURVE",
"359 381 CURVE SMOOTH",
"368 378 OFFCURVE",
"373 371 OFFCURVE",
"373 362 CURVE SMOOTH",
"373 352 OFFCURVE",
"368 346 OFFCURVE",
"359 343 CURVE SMOOTH",
"349 340 OFFCURVE",
"331 339 OFFCURVE",
"305 339 CURVE SMOOTH",
"243 339 LINE"
);
}
);
width = 612;
}
);
leftKerningGroup = registered;
note = registered;
rightKerningGroup = registered;
unicode = 00AE;
},
{
glyphname = macron;
lastChange = "2016-07-31 02:24:38 +0000";
layers = (
{
layerId = "7FF32B46-F6F7-4405-9AA0-D8922FAB2D23";
paths = (
{
closed = 1;
nodes = (
"70 726 OFFCURVE",
"60 717 OFFCURVE",
"60 700 CURVE SMOOTH",
"60 682 OFFCURVE",
"70 673 OFFCURVE",
"91 673 CURVE SMOOTH",
"336 673 LINE SMOOTH",
"359 673 OFFCURVE",
"370 682 OFFCURVE",
"370 700 CURVE SMOOTH",
"370 717 OFFCURVE",
"359 726 OFFCURVE",
"336 726 CURVE SMOOTH",
"91 726 LINE SMOOTH"
);
}
);
width = 429;
}
);
note = macron;
rightKerningGroup = numbersign;
unicode = 00AF;
},
{
glyphname = degree;
lastChange = "2016-07-31 02:24:38 +0000";
layers = (
{
layerId = "7FF32B46-F6F7-4405-9AA0-D8922FAB2D23";
paths = (
{
closed = 1;
nodes = (
"152 623 OFFCURVE",
"174 632 OFFCURVE",
"201 632 CURVE SMOOTH",
"254 632 OFFCURVE",
"299 587 OFFCURVE",
"299 534 CURVE SMOOTH",
"299 481 OFFCURVE",
"255 437 OFFCURVE",
"202 437 CURVE SMOOTH",
"149 437 OFFCURVE",
"104 482 OFFCURVE",
"104 535 CURVE SMOOTH",
"104 562 OFFCURVE",
"114 585 OFFCURVE",
"133 604 CURVE SMOOTH"
);
},
{
closed = 1;
nodes = (
"68 611 OFFCURVE",
"53 576 OFFCURVE",
"53 535 CURVE SMOOTH",
"53 454 OFFCURVE",
"120 386 OFFCURVE",
"201 386 CURVE SMOOTH",
"282 386 OFFCURVE",
"350 454 OFFCURVE",
"350 535 CURVE SMOOTH",
"350 616 OFFCURVE",
"282 683 OFFCURVE",
"201 683 CURVE SMOOTH",
"160 683 OFFCURVE",
"126 669 OFFCURVE",
"97 640 CURVE SMOOTH"
);
}
);
width = 403;
}
);
note = degree;
rightKerningGroup = numbersign;
unicode = 00B0;
},
{
glyphname = plusminus;
lastChange = "2016-07-31 02:24:38 +0000";
layers = (
{
layerId = "7FF32B46-F6F7-4405-9AA0-D8922FAB2D23";
paths = (
{
closed = 1;
nodes = (
"78 53 OFFCURVE",
"68 44 OFFCURVE",
"68 27 CURVE SMOOTH",
"68 9 OFFCURVE",
"78 0 OFFCURVE",
"99 0 CURVE SMOOTH",
"477 0 LINE SMOOTH",
"500 0 OFFCURVE",
"511 9 OFFCURVE",
"511 27 CURVE SMOOTH",
"511 44 OFFCURVE",
"500 53 OFFCURVE",
"477 53 CURVE SMOOTH",
"99 53 LINE SMOOTH"
);
},
{
closed = 1;
nodes = (
"477 265 LINE SMOOTH",
"500 265 OFFCURVE",
"511 274 OFFCURVE",
"511 292 CURVE SMOOTH",
"511 309 OFFCURVE",
"500 318 OFFCURVE",
"477 318 CURVE SMOOTH",
"315 318 LINE",
"315 440 LINE SMOOTH",
"315 462 OFFCURVE",
"306 473 OFFCURVE",
"289 473 CURVE SMOOTH",
"272 473 OFFCURVE",
"263 462 OFFCURVE",
"263 440 CURVE SMOOTH",
"263 318 LINE",
"99 318 LINE SMOOTH",
"78 318 OFFCURVE",
"68 309 OFFCURVE",
"68 292 CURVE SMOOTH",
"68 274 OFFCURVE",
"78 265 OFFCURVE",
"99 265 CURVE SMOOTH",
"263 265 LINE",
"263 143 LINE SMOOTH",
"263 122 OFFCURVE",
"272 111 OFFCURVE",
"289 111 CURVE SMOOTH",
"306 111 OFFCURVE",
"315 122 OFFCURVE",
"315 143 CURVE SMOOTH",
"315 265 LINE"
);
}
);
width = 579;
}
);
note = plusminus;
rightKerningGroup = numbersign;
unicode = 00B1;
},
{
glyphname = twosuperior;
lastChange = "2016-07-31 02:24:38 +0000";
layers = (
{
layerId = "7FF32B46-F6F7-4405-9AA0-D8922FAB2D23";
paths = (
{
closed = 1;
nodes = (
"95 530 OFFCURVE",
"128 559 OFFCURVE",
"189 588 CURVE SMOOTH",
"212 599 OFFCURVE",
"233 612 OFFCURVE",
"252 628 CURVE SMOOTH",
"271 645 OFFCURVE",
"280 664 OFFCURVE",
"280 683 CURVE SMOOTH",
"280 702 OFFCURVE",
"277 718 OFFCURVE",
"271 731 CURVE SMOOTH",
"258 758 OFFCURVE",
"220 772 OFFCURVE",
"155 772 CURVE SMOOTH",
"125 772 LINE SMOOTH",
"82 772 OFFCURVE",
"45 740 OFFCURVE",
"45 713 CURVE SMOOTH",
"45 686 OFFCURVE",
"57 680 OFFCURVE",
"69 680 CURVE SMOOTH",
"80 680 OFFCURVE",
"91 690 OFFCURVE",
"91 703 CURVE SMOOTH",
"91 720 OFFCURVE",
"104 729 OFFCURVE",
"129 729 CURVE SMOOTH",
"155 729 LINE SMOOTH",
"222 729 OFFCURVE",
"237 725 OFFCURVE",
"237 682 CURVE SMOOTH",
"237 666 OFFCURVE",
"214 647 OFFCURVE",
"169 624 CURVE SMOOTH",
"150 615 OFFCURVE",
"132 604 OFFCURVE",
"113 593 CURVE SMOOTH",
"68 566 OFFCURVE",
"45 529 OFFCURVE",
"45 483 CURVE SMOOTH",
"45 456 LINE",
"253 456 LINE SMOOTH",
"266 456 OFFCURVE",
"280 469 OFFCURVE",
"280 477 CURVE SMOOTH",
"280 490 OFFCURVE",
"271 498 OFFCURVE",
"253 499 CURVE",
"92 499 LINE"
);
}
);
width = 325;
}
);
note = twosuperior;
rightKerningGroup = numbersign;
unicode = 00B2;
},
{
glyphname = threesuperior;
lastChange = "2016-07-31 02:24:38 +0000";
layers = (
{
layerId = "7FF32B46-F6F7-4405-9AA0-D8922FAB2D23";
paths = (
{
closed = 1;
nodes = (
"213 512 OFFCURVE",
"203 499 OFFCURVE",
"150 499 CURVE SMOOTH",
"138 499 LINE SMOOTH",
"107 499 OFFCURVE",
"78 511 OFFCURVE",
"78 527 CURVE SMOOTH",
"78 539 OFFCURVE",
"70 545 OFFCURVE",
"55 545 CURVE SMOOTH",
"40 545 OFFCURVE",
"32 538 OFFCURVE",
"32 523 CURVE SMOOTH",
"32 494 OFFCURVE",
"74 456 OFFCURVE",
"134 456 CURVE SMOOTH",
"146 456 LINE SMOOTH",
"219 456 OFFCURVE",
"255 481 OFFCURVE",
"255 532 CURVE SMOOTH",
"255 580 OFFCURVE",
"227 605 OFFCURVE",
"196 618 CURVE",
"235 635 OFFCURVE",
"255 658 OFFCURVE",
"255 687 CURVE SMOOTH",
"255 746 OFFCURVE",
"225 772 OFFCURVE",
"146 772 CURVE SMOOTH",
"134 772 LINE SMOOTH",
"74 772 OFFCURVE",
"32 734 OFFCURVE",
"32 705 CURVE SMOOTH",
"32 690 OFFCURVE",
"40 683 OFFCURVE",
"55 683 CURVE SMOOTH",
"70 683 OFFCURVE",
"78 689 OFFCURVE",
"78 701 CURVE SMOOTH",
"78 717 OFFCURVE",
"107 729 OFFCURVE",
"138 729 CURVE SMOOTH",
"150 729 LINE SMOOTH",
"185 729 OFFCURVE",
"205 722 OFFCURVE",
"210 709 CURVE SMOOTH",
"212 704 OFFCURVE",
"213 695 OFFCURVE",
"213 684 CURVE SMOOTH",
"213 661 OFFCURVE",
"165 639 OFFCURVE",
"130 639 CURVE SMOOTH",
"112 639 OFFCURVE",
"103 632 OFFCURVE",
"103 618 CURVE SMOOTH",
"103 603 OFFCURVE",
"112 596 OFFCURVE",
"130 596 CURVE SMOOTH",
"165 596 OFFCURVE",
"213 569 OFFCURVE",
"213 541 CURVE SMOOTH"
);
}
);
width = 295;
}
);
note = threesuperior;
rightKerningGroup = numbersign;
unicode = 00B3;
},
{
glyphname = acute;
lastChange = "2016-07-31 02:24:38 +0000";
layers = (
{
layerId = "7FF32B46-F6F7-4405-9AA0-D8922FAB2D23";
paths = (
{
closed = 1;
nodes = (
"181 642 OFFCURVE",
"184 650 OFFCURVE",
"184 657 CURVE SMOOTH",
"184 672 OFFCURVE",
"171 683 OFFCURVE",
"158 683 CURVE SMOOTH",
"151 683 OFFCURVE",
"143 678 OFFCURVE",
"134 668 CURVE",
"38 553 LINE SMOOTH",
"32 546 OFFCURVE",
"29 538 OFFCURVE",
"29 531 CURVE SMOOTH",
"29 516 OFFCURVE",
"43 505 OFFCURVE",
"56 505 CURVE SMOOTH",
"63 505 OFFCURVE",
"70 510 OFFCURVE",
"79 520 CURVE",
"175 635 LINE SMOOTH"
);
}
);
width = 212;
}
);
note = acute;
rightKerningGroup = numbersign;
unicode = 00B4;
},
{
glyphname = paragraph;
lastChange = "2016-07-31 02:24:38 +0000";
layers = (
{
layerId = "7FF32B46-F6F7-4405-9AA0-D8922FAB2D23";
paths = (
{
closed = 1;
nodes = (
"247 641 LINE SMOOTH",
"107 641 OFFCURVE",
"35 602 OFFCURVE",
"35 493 CURVE SMOOTH",
"35 384 OFFCURVE",
"98 332 OFFCURVE",
"205 332 CURVE SMOOTH",
"242 332 LINE",
"242 20 LINE SMOOTH",
"242 -1 OFFCURVE",
"251 -12 OFFCURVE",
"268 -12 CURVE SMOOTH",
"285 -12 OFFCURVE",
"294 -1 OFFCURVE",
"294 20 CURVE SMOOTH",
"294 589 LINE",
"325 589 LINE",
"325 20 LINE SMOOTH",
"325 -1 OFFCURVE",
"334 -12 OFFCURVE",
"351 -12 CURVE SMOOTH",
"368 -12 OFFCURVE",
"377 -1 OFFCURVE",
"377 20 CURVE SMOOTH",
"377 641 LINE"
);
}
);
width = 467;
}
);
note = paragraph;
rightKerningGroup = numbersign;
unicode = 00B6;
},
{
glyphname = periodcentered;
lastChange = "2016-07-31 02:24:38 +0000";
layers = (
{
layerId = "7FF32B46-F6F7-4405-9AA0-D8922FAB2D23";
paths = (
{
closed = 1;
nodes = (
"70 364 OFFCURVE",
"99 346 OFFCURVE",
"121 346 CURVE SMOOTH",
"143 346 OFFCURVE",
"172 364 OFFCURVE",
"172 387 CURVE SMOOTH",
"172 410 OFFCURVE",
"143 428 OFFCURVE",
"121 428 CURVE SMOOTH",
"99 428 OFFCURVE",
"70 410 OFFCURVE",
"70 387 CURVE SMOOTH"
);
}
);
width = 242;
}
);
note = periodcentered;
rightKerningGroup = numbersign;
unicode = 00B7;
},
{
glyphname = cedilla;
lastChange = "2016-07-31 02:24:38 +0000";
layers = (
{
layerId = "7FF32B46-F6F7-4405-9AA0-D8922FAB2D23";
paths = (
{
closed = 1;
nodes = (
"91 9 OFFCURVE",
"91 9 OFFCURVE",
"91 8 CURVE SMOOTH",
"91 -21 OFFCURVE",
"106 -46 OFFCURVE",
"136 -67 CURVE SMOOTH",
"152 -78 OFFCURVE",
"160 -89 OFFCURVE",
"160 -99 CURVE SMOOTH",
"160 -116 OFFCURVE",
"146 -125 OFFCURVE",
"118 -125 CURVE SMOOTH",
"109 -125 OFFCURVE",
"96 -122 OFFCURVE",
"81 -116 CURVE SMOOTH",
"66 -110 OFFCURVE",
"56 -107 OFFCURVE",
"52 -107 CURVE SMOOTH",
"42 -107 OFFCURVE",
"37 -114 OFFCURVE",
"37 -129 CURVE SMOOTH",
"37 -158 OFFCURVE",
"80 -175 OFFCURVE",
"124 -175 CURVE SMOOTH",
"167 -175 OFFCURVE",
"212 -142 OFFCURVE",
"212 -93 CURVE SMOOTH",
"212 -69 OFFCURVE",
"201 -51 OFFCURVE",
"178 -38 CURVE SMOOTH",
"155 -25 OFFCURVE",
"143 -9 OFFCURVE",
"143 10 CURVE",
"91 10 LINE"
);
}
);
width = 242;
}
);
note = cedilla;
rightKerningGroup = numbersign;
unicode = 00B8;
},
{
glyphname = onesuperior;
lastChange = "2016-07-31 02:24:38 +0000";
layers = (
{
layerId = "7FF32B46-F6F7-4405-9AA0-D8922FAB2D23";
paths = (
{
closed = 1;
nodes = (
"69 775 OFFCURVE",
"62 771 OFFCURVE",
"53 764 CURVE",
"5 714 LINE",
"-11 701 OFFCURVE",
"-13 673 OFFCURVE",
"16 673 CURVE SMOOTH",
"24 673 OFFCURVE",
"31 677 OFFCURVE",
"37 685 CURVE",
"55 703 LINE",
"55 480 LINE SMOOTH",
"55 462 OFFCURVE",
"62 453 OFFCURVE",
"77 453 CURVE SMOOTH",
"92 453 OFFCURVE",
"99 462 OFFCURVE",
"99 480 CURVE SMOOTH",
"99 751 LINE SMOOTH",
"99 767 OFFCURVE",
"91 775 OFFCURVE",
"76 775 CURVE SMOOTH"
);
}
);
width = 154;
}
);
note = onesuperior;
rightKerningGroup = numbersign;
unicode = 00B9;
},
{
glyphname = ordmasculine;
lastChange = "2016-07-31 02:24:38 +0000";
layers = (
{
layerId = "7FF32B46-F6F7-4405-9AA0-D8922FAB2D23";
paths = (
{
closed = 1;
nodes = (
"140 285 OFFCURVE",
"131 290 OFFCURVE",
"131 333 CURVE SMOOTH",
"131 377 LINE SMOOTH",
"131 420 OFFCURVE",
"140 425 OFFCURVE",
"185 425 CURVE SMOOTH",
"194 425 LINE SMOOTH",
"239 425 OFFCURVE",
"249 420 OFFCURVE",
"249 377 CURVE SMOOTH",
"249 333 LINE SMOOTH",
"249 290 OFFCURVE",
"239 285 OFFCURVE",
"194 285 CURVE SMOOTH",
"185 285 LINE SMOOTH"
);
},
{
closed = 1;
nodes = (
"266 244 OFFCURVE",
"290 264 OFFCURVE",
"290 333 CURVE SMOOTH",
"290 377 LINE SMOOTH",
"290 446 OFFCURVE",
"266 466 OFFCURVE",
"194 466 CURVE SMOOTH",
"185 466 LINE SMOOTH",
"114 466 OFFCURVE",
"90 446 OFFCURVE",
"90 377 CURVE SMOOTH",
"90 333 LINE SMOOTH",
"90 264 OFFCURVE",
"113 244 OFFCURVE",
"185 244 CURVE SMOOTH",
"194 244 LINE SMOOTH"
);
},
{
closed = 1;
nodes = (
"306 159 OFFCURVE",
"315 167 OFFCURVE",
"315 182 CURVE SMOOTH",
"315 197 OFFCURVE",
"306 204 OFFCURVE",
"287 204 CURVE SMOOTH",
"91 204 LINE SMOOTH",
"74 204 OFFCURVE",
"65 197 OFFCURVE",
"65 182 CURVE SMOOTH",
"65 167 OFFCURVE",
"74 159 OFFCURVE",
"91 159 CURVE SMOOTH",
"287 159 LINE SMOOTH"
);
}
);
width = 380;
}
);
note = ordmasculine;
rightKerningGroup = numbersign;
unicode = 00BA;
},
{
glyphname = onequarter;
lastChange = "2016-07-31 02:25:57 +0000";
layers = (
{
layerId = "7FF32B46-F6F7-4405-9AA0-D8922FAB2D23";
paths = (
{
closed = 1;
nodes = (
"515 95 OFFCURVE",
"515 95 OFFCURVE",
"516 95 CURVE SMOOTH",
"532 95 OFFCURVE",
"540 102 OFFCURVE",
"540 116 CURVE SMOOTH",
"540 131 OFFCURVE",
"531 138 OFFCURVE",
"514 138 CURVE SMOOTH",
"470 138 LINE",
"470 310 LINE",
"416 310 LINE",
"294 147 LINE",
"294 95 LINE",
"426 95 LINE",
"426 18 LINE SMOOTH",
"426 0 OFFCURVE",
"433 -9 OFFCURVE",
"448 -9 CURVE SMOOTH",
"463 -9 OFFCURVE",
"470 0 OFFCURVE",
"470 18 CURVE SMOOTH",
"470 95 LINE",
"514 95 LINE SMOOTH"
);
},
{
closed = 1;
nodes = (
"426 256 LINE",
"426 138 LINE",
"338 138 LINE"
);
},
{
closed = 1;
nodes = (
"165 641 OFFCURVE",
"158 637 OFFCURVE",
"149 630 CURVE",
"101 580 LINE",
"85 567 OFFCURVE",
"83 539 OFFCURVE",
"112 539 CURVE SMOOTH",
"120 539 OFFCURVE",
"127 543 OFFCURVE",
"133 551 CURVE",
"151 569 LINE",
"151 346 LINE SMOOTH",
"151 328 OFFCURVE",
"158 319 OFFCURVE",
"173 319 CURVE SMOOTH",
"188 319 OFFCURVE",
"195 328 OFFCURVE",
"195 346 CURVE SMOOTH",
"195 617 LINE SMOOTH",
"195 633 OFFCURVE",
"187 641 OFFCURVE",
"172 641 CURVE SMOOTH"
);
},
{
closed = 1;
nodes = (
"509 532 OFFCURVE",
"502 539 OFFCURVE",
"489 539 CURVE SMOOTH",
"481 539 OFFCURVE",
"473 535 OFFCURVE",
"465 527 CURVE SMOOTH",
"55 118 LINE",
"47 109 OFFCURVE",
"43 101 OFFCURVE",
"43 93 CURVE SMOOTH",
"43 80 OFFCURVE",
"50 73 OFFCURVE",
"63 73 CURVE SMOOTH",
"71 73 OFFCURVE",
"79 77 OFFCURVE",
"88 85 CURVE",
"497 495 LINE SMOOTH",
"505 503 OFFCURVE",
"509 511 OFFCURVE",
"509 519 CURVE SMOOTH"
);
}
);
width = 584;
}
);
note = onequarter;
rightKerningGroup = numbersign;
unicode = 00BC;
},
{
glyphname = onehalf;
lastChange = "2016-07-31 02:25:57 +0000";
layers = (
{
layerId = "7FF32B46-F6F7-4405-9AA0-D8922FAB2D23";
paths = (
{
closed = 1;
nodes = (
"374 68 OFFCURVE",
"407 97 OFFCURVE",
"468 126 CURVE SMOOTH",
"491 137 OFFCURVE",
"512 150 OFFCURVE",
"531 166 CURVE SMOOTH",
"550 183 OFFCURVE",
"559 202 OFFCURVE",
"559 221 CURVE SMOOTH",
"559 240 OFFCURVE",
"556 256 OFFCURVE",
"550 269 CURVE SMOOTH",
"537 296 OFFCURVE",
"499 310 OFFCURVE",
"434 310 CURVE SMOOTH",
"404 310 LINE SMOOTH",
"361 310 OFFCURVE",
"324 278 OFFCURVE",
"324 251 CURVE SMOOTH",
"324 224 OFFCURVE",
"336 218 OFFCURVE",
"348 218 CURVE SMOOTH",
"359 218 OFFCURVE",
"370 228 OFFCURVE",
"370 241 CURVE SMOOTH",
"370 258 OFFCURVE",
"383 267 OFFCURVE",
"408 267 CURVE SMOOTH",
"434 267 LINE SMOOTH",
"501 267 OFFCURVE",
"516 263 OFFCURVE",
"516 220 CURVE SMOOTH",
"516 204 OFFCURVE",
"493 185 OFFCURVE",
"448 162 CURVE SMOOTH",
"429 153 OFFCURVE",
"411 142 OFFCURVE",
"392 131 CURVE SMOOTH",
"347 104 OFFCURVE",
"324 67 OFFCURVE",
"324 21 CURVE SMOOTH",
"324 -6 LINE",
"532 -6 LINE SMOOTH",
"545 -6 OFFCURVE",
"559 7 OFFCURVE",
"559 15 CURVE SMOOTH",
"559 28 OFFCURVE",
"550 36 OFFCURVE",
"532 37 CURVE",
"371 37 LINE"
);
},
{
closed = 1;
nodes = (
"173 641 OFFCURVE",
"166 637 OFFCURVE",
"157 630 CURVE",
"109 580 LINE",
"93 567 OFFCURVE",
"91 539 OFFCURVE",
"120 539 CURVE SMOOTH",
"128 539 OFFCURVE",
"135 543 OFFCURVE",
"141 551 CURVE",
"159 569 LINE",
"159 346 LINE SMOOTH",
"159 328 OFFCURVE",
"166 319 OFFCURVE",
"181 319 CURVE SMOOTH",
"196 319 OFFCURVE",
"203 328 OFFCURVE",
"203 346 CURVE SMOOTH",
"203 617 LINE SMOOTH",
"203 633 OFFCURVE",
"195 641 OFFCURVE",
"180 641 CURVE SMOOTH"
);
},
{
closed = 1;
nodes = (
"506 532 OFFCURVE",
"499 539 OFFCURVE",
"486 539 CURVE SMOOTH",
"478 539 OFFCURVE",
"470 535 OFFCURVE",
"462 527 CURVE SMOOTH",
"52 118 LINE",
"44 109 OFFCURVE",
"40 101 OFFCURVE",
"40 93 CURVE SMOOTH",
"40 80 OFFCURVE",
"47 73 OFFCURVE",
"60 73 CURVE SMOOTH",
"68 73 OFFCURVE",
"76 77 OFFCURVE",
"85 85 CURVE",
"494 495 LINE SMOOTH",
"502 503 OFFCURVE",
"506 511 OFFCURVE",
"506 519 CURVE SMOOTH"
);
}
);
width = 612;
}
);
note = onehalf;
rightKerningGroup = numbersign;
unicode = 00BD;
},
{
glyphname = threequarters;
lastChange = "2016-07-31 02:25:57 +0000";
layers = (
{
layerId = "7FF32B46-F6F7-4405-9AA0-D8922FAB2D23";
paths = (
{
closed = 1;
nodes = (
"561 95 OFFCURVE",
"561 95 OFFCURVE",
"562 95 CURVE SMOOTH",
"578 95 OFFCURVE",
"586 102 OFFCURVE",
"586 116 CURVE SMOOTH",
"586 131 OFFCURVE",
"577 138 OFFCURVE",
"560 138 CURVE SMOOTH",
"516 138 LINE",
"516 310 LINE",
"462 310 LINE",
"340 147 LINE",
"340 95 LINE",
"472 95 LINE",
"472 18 LINE SMOOTH",
"472 0 OFFCURVE",
"479 -9 OFFCURVE",
"494 -9 CURVE SMOOTH",
"509 -9 OFFCURVE",
"516 0 OFFCURVE",
"516 18 CURVE SMOOTH",
"516 95 LINE",
"560 95 LINE SMOOTH"
);
},
{
closed = 1;
nodes = (
"472 256 LINE",
"472 138 LINE",
"384 138 LINE"
);
},
{
closed = 1;
nodes = (
"244 381 OFFCURVE",
"234 368 OFFCURVE",
"181 368 CURVE SMOOTH",
"169 368 LINE SMOOTH",
"138 368 OFFCURVE",
"109 380 OFFCURVE",
"109 396 CURVE SMOOTH",
"109 408 OFFCURVE",
"101 414 OFFCURVE",
"86 414 CURVE SMOOTH",
"71 414 OFFCURVE",
"63 407 OFFCURVE",
"63 392 CURVE SMOOTH",
"63 363 OFFCURVE",
"105 325 OFFCURVE",
"165 325 CURVE SMOOTH",
"177 325 LINE SMOOTH",
"250 325 OFFCURVE",
"286 350 OFFCURVE",
"286 401 CURVE SMOOTH",
"286 449 OFFCURVE",
"258 474 OFFCURVE",
"227 487 CURVE",
"266 504 OFFCURVE",
"286 527 OFFCURVE",
"286 556 CURVE SMOOTH",
"286 615 OFFCURVE",
"256 641 OFFCURVE",
"177 641 CURVE SMOOTH",
"165 641 LINE SMOOTH",
"105 641 OFFCURVE",
"63 603 OFFCURVE",
"63 574 CURVE SMOOTH",
"63 559 OFFCURVE",
"71 552 OFFCURVE",
"86 552 CURVE SMOOTH",
"101 552 OFFCURVE",
"109 558 OFFCURVE",
"109 570 CURVE SMOOTH",
"109 586 OFFCURVE",
"138 598 OFFCURVE",
"169 598 CURVE SMOOTH",
"181 598 LINE SMOOTH",
"216 598 OFFCURVE",
"236 591 OFFCURVE",
"241 578 CURVE SMOOTH",
"243 573 OFFCURVE",
"244 564 OFFCURVE",
"244 553 CURVE SMOOTH",
"244 530 OFFCURVE",
"196 508 OFFCURVE",
"161 508 CURVE SMOOTH",
"143 508 OFFCURVE",
"134 501 OFFCURVE",
"134 487 CURVE SMOOTH",
"134 472 OFFCURVE",
"143 465 OFFCURVE",
"161 465 CURVE SMOOTH",
"196 465 OFFCURVE",
"244 438 OFFCURVE",
"244 410 CURVE SMOOTH"
);
},
{
closed = 1;
nodes = (
"560 532 OFFCURVE",
"553 539 OFFCURVE",
"540 539 CURVE SMOOTH",
"532 539 OFFCURVE",
"524 535 OFFCURVE",
"516 527 CURVE SMOOTH",
"106 118 LINE",
"98 109 OFFCURVE",
"94 101 OFFCURVE",
"94 93 CURVE SMOOTH",
"94 80 OFFCURVE",
"101 73 OFFCURVE",
"114 73 CURVE SMOOTH",
"122 73 OFFCURVE",
"130 77 OFFCURVE",
"139 85 CURVE",
"548 495 LINE SMOOTH",
"556 503 OFFCURVE",
"560 511 OFFCURVE",
"560 519 CURVE SMOOTH"
);
}
);
width = 631;
}
);
note = threequarters;
rightKerningGroup = numbersign;
unicode = 00BE;
},
{
glyphname = questiondown;
lastChange = "2016-07-31 02:24:38 +0000";
layers = (
{
layerId = "7FF32B46-F6F7-4405-9AA0-D8922FAB2D23";
paths = (
{
closed = 1;
nodes = (
"333 473 OFFCURVE",
"304 491 OFFCURVE",
"281 491 CURVE SMOOTH",
"258 491 OFFCURVE",
"230 473 OFFCURVE",
"230 450 CURVE SMOOTH",
"230 427 OFFCURVE",
"260 409 OFFCURVE",
"282 409 CURVE SMOOTH",
"304 409 OFFCURVE",
"333 427 OFFCURVE",
"333 450 CURVE SMOOTH"
);
},
{
closed = 1;
nodes = (
"166 155 LINE SMOOTH",
"73 130 OFFCURVE",
"38 85 OFFCURVE",
"38 -5 CURVE SMOOTH",
"38 -95 OFFCURVE",
"88 -170 OFFCURVE",
"205 -170 CURVE SMOOTH",
"281 -170 LINE SMOOTH",
"348 -170 OFFCURVE",
"399 -160 OFFCURVE",
"434 -139 CURVE SMOOTH",
"474 -115 OFFCURVE",
"494 -63 OFFCURVE",
"494 -3 CURVE SMOOTH",
"494 26 OFFCURVE",
"485 41 OFFCURVE",
"468 41 CURVE SMOOTH",
"450 41 OFFCURVE",
"441 28 OFFCURVE",
"441 3 CURVE SMOOTH",
"441 -48 OFFCURVE",
"434 -82 OFFCURVE",
"396 -102 CURVE",
"377 -113 OFFCURVE",
"338 -118 OFFCURVE",
"281 -118 CURVE SMOOTH",
"187 -118 LINE SMOOTH",
"120 -118 OFFCURVE",
"90 -60 OFFCURVE",
"90 -6 CURVE SMOOTH",
"90 48 OFFCURVE",
"115 89 OFFCURVE",
"150 98 CURVE SMOOTH",
"307 141 LINE",
"307 285 LINE SMOOTH",
"307 307 OFFCURVE",
"298 318 OFFCURVE",
"281 318 CURVE SMOOTH",
"264 318 OFFCURVE",
"255 307 OFFCURVE",
"255 285 CURVE SMOOTH",
"255 180 LINE"
);
}
);
width = 529;
}
);
note = questiondown;
rightKerningGroup = questiondown;
unicode = 00BF;
},
{
glyphname = Agrave;
lastChange = "2016-07-31 02:25:57 +0000";
layers = (
{
layerId = "7FF32B46-F6F7-4405-9AA0-D8922FAB2D23";
paths = (
{
closed = 1;
nodes = (
"177 787 OFFCURVE",
"181 779 OFFCURVE",
"190 769 CURVE",
"259 701 LINE",
"267 692 OFFCURVE",
"275 688 OFFCURVE",
"283 688 CURVE SMOOTH",
"299 688 OFFCURVE",
"309 701 OFFCURVE",
"309 714 CURVE SMOOTH",
"309 720 OFFCURVE",
"305 728 OFFCURVE",
"297 737 CURVE",
"227 806 LINE",
"219 815 OFFCURVE",
"211 819 OFFCURVE",
"204 819 CURVE SMOOTH",
"189 819 OFFCURVE",
"177 805 OFFCURVE",
"177 793 CURVE SMOOTH"
);
},
{
closed = 1;
nodes = (
"61 -16 OFFCURVE",
"70 -8 OFFCURVE",
"77 7 CURVE",
"148 199 LINE",
"422 199 LINE",
"493 7 LINE",
"500 -8 OFFCURVE",
"509 -16 OFFCURVE",
"520 -16 CURVE SMOOTH",
"537 -16 OFFCURVE",
"546 -8 OFFCURVE",
"546 9 CURVE SMOOTH",
"546 14 OFFCURVE",
"545 19 OFFCURVE",
"543 25 CURVE SMOOTH",
"316 636 LINE",
"254 636 LINE",
"27 25 LINE SMOOTH",
"25 19 OFFCURVE",
"24 14 OFFCURVE",
"24 9 CURVE SMOOTH",
"24 -8 OFFCURVE",
"33 -16 OFFCURVE",
"50 -16 CURVE SMOOTH"
);
},
{
closed = 1;
nodes = (
"168 251 LINE",
"284 560 LINE",
"402 251 LINE"
);
}
);
width = 570;
}
);
leftKerningGroup = A;
note = Agrave;
rightKerningGroup = A;
unicode = 00C0;
},
{
glyphname = Aacute;
lastChange = "2016-07-31 02:25:57 +0000";
layers = (
{
layerId = "7FF32B46-F6F7-4405-9AA0-D8922FAB2D23";
paths = (
{
closed = 1;
nodes = (
"369 779 OFFCURVE",
"373 787 OFFCURVE",
"373 793 CURVE SMOOTH",
"373 805 OFFCURVE",
"363 819 OFFCURVE",
"347 819 CURVE SMOOTH",
"339 819 OFFCURVE",
"331 815 OFFCURVE",
"323 806 CURVE",
"254 738 LINE",
"245 728 OFFCURVE",
"241 720 OFFCURVE",
"241 713 CURVE SMOOTH",
"241 700 OFFCURVE",
"253 688 OFFCURVE",
"268 688 CURVE SMOOTH",
"275 688 OFFCURVE",
"283 692 OFFCURVE",
"291 701 CURVE",
"361 770 LINE"
);
},
{
closed = 1;
nodes = (
"61 -16 OFFCURVE",
"70 -8 OFFCURVE",
"77 7 CURVE",
"148 199 LINE",
"422 199 LINE",
"493 7 LINE",
"500 -8 OFFCURVE",
"509 -16 OFFCURVE",
"520 -16 CURVE SMOOTH",
"537 -16 OFFCURVE",
"546 -8 OFFCURVE",
"546 9 CURVE SMOOTH",
"546 14 OFFCURVE",
"545 19 OFFCURVE",
"543 25 CURVE SMOOTH",
"316 636 LINE",
"254 636 LINE",
"27 25 LINE SMOOTH",
"25 19 OFFCURVE",
"24 14 OFFCURVE",
"24 9 CURVE SMOOTH",
"24 -8 OFFCURVE",
"33 -16 OFFCURVE",
"50 -16 CURVE SMOOTH"
);
},
{
closed = 1;
nodes = (
"168 251 LINE",
"284 560 LINE",
"402 251 LINE"
);
}
);
width = 570;
}
);
leftKerningGroup = A;
note = Aacute;
rightKerningGroup = A;
unicode = 00C1;
},
{
glyphname = Acircumflex;
lastChange = "2016-07-31 02:25:57 +0000";
layers = (
{
layerId = "7FF32B46-F6F7-4405-9AA0-D8922FAB2D23";
paths = (
{
closed = 1;
nodes = (
"146 682 OFFCURVE",
"144 676 OFFCURVE",
"144 669 CURVE SMOOTH",
"144 654 OFFCURVE",
"152 646 OFFCURVE",
"167 646 CURVE",
"174 647 OFFCURVE",
"178 648 OFFCURVE",
"181 651 CURVE SMOOTH",
"182 652 OFFCURVE",
"184 654 OFFCURVE",
"185 655 CURVE SMOOTH",
"186 656 OFFCURVE",
"188 657 OFFCURVE",
"190 660 CURVE SMOOTH",
"192 663 OFFCURVE",
"194 665 OFFCURVE",
"195 666 CURVE SMOOTH",
"285 762 LINE",
"376 666 LINE SMOOTH",
"377 665 OFFCURVE",
"380 662 OFFCURVE",
"385 656 CURVE",
"390 649 OFFCURVE",
"397 646 OFFCURVE",
"404 646 CURVE SMOOTH",
"419 646 OFFCURVE",
"427 654 OFFCURVE",
"427 669 CURVE SMOOTH",
"427 676 OFFCURVE",
"425 682 OFFCURVE",
"421 687 CURVE SMOOTH",
"314 819 LINE",
"255 819 LINE",
"150 687 LINE SMOOTH"
);
},
{
closed = 1;
nodes = (
"61 -16 OFFCURVE",
"70 -8 OFFCURVE",
"77 7 CURVE",
"148 199 LINE",
"422 199 LINE",
"493 7 LINE",
"500 -8 OFFCURVE",
"509 -16 OFFCURVE",
"520 -16 CURVE SMOOTH",
"537 -16 OFFCURVE",
"546 -8 OFFCURVE",
"546 9 CURVE SMOOTH",
"546 14 OFFCURVE",
"545 19 OFFCURVE",
"543 25 CURVE SMOOTH",
"316 636 LINE",
"254 636 LINE",
"27 25 LINE SMOOTH",
"25 19 OFFCURVE",
"24 14 OFFCURVE",
"24 9 CURVE SMOOTH",
"24 -8 OFFCURVE",
"33 -16 OFFCURVE",
"50 -16 CURVE SMOOTH"
);
},
{
closed = 1;
nodes = (
"168 251 LINE",
"284 560 LINE",
"402 251 LINE"
);
}
);
width = 570;
}
);
leftKerningGroup = A;
note = Acircumflex;
rightKerningGroup = A;
unicode = 00C2;
},
{
glyphname = Atilde;
lastChange = "2016-07-31 02:25:57 +0000";
layers = (
{
layerId = "7FF32B46-F6F7-4405-9AA0-D8922FAB2D23";
paths = (
{
closed = 1;
nodes = (
"215 798 OFFCURVE",
"209 795 OFFCURVE",
"204 789 CURVE",
"158 751 LINE SMOOTH",
"149 744 OFFCURVE",
"144 736 OFFCURVE",
"144 727 CURVE SMOOTH",
"144 710 OFFCURVE",
"157 701 OFFCURVE",
"169 701 CURVE SMOOTH",
"175 701 OFFCURVE",
"182 704 OFFCURVE",
"191 710 CURVE",
"222 738 LINE",
"225 741 OFFCURVE",
"228 742 OFFCURVE",
"231 742 CURVE SMOOTH",
"233 742 OFFCURVE",
"235 741 OFFCURVE",
"236 740 CURVE",
"334 704 LINE",
"335 704 LINE SMOOTH",
"338 704 OFFCURVE",
"341 703 OFFCURVE",
"342 702 CURVE",
"351 702 LINE SMOOTH",
"355 702 OFFCURVE",
"360 705 OFFCURVE",
"365 710 CURVE",
"412 749 LINE",
"421 758 OFFCURVE",
"426 767 OFFCURVE",
"426 776 CURVE SMOOTH",
"426 791 OFFCURVE",
"417 799 OFFCURVE",
"400 799 CURVE SMOOTH",
"394 799 OFFCURVE",
"387 796 OFFCURVE",
"378 790 CURVE",
"347 762 LINE",
"344 759 OFFCURVE",
"341 758 OFFCURVE",
"339 758 CURVE",
"334 760 LINE",
"236 796 LINE",
"223 798 LINE"
);
},
{
closed = 1;
nodes = (
"61 -16 OFFCURVE",
"70 -8 OFFCURVE",
"77 7 CURVE",
"148 199 LINE",
"422 199 LINE",
"493 7 LINE",
"500 -8 OFFCURVE",
"509 -16 OFFCURVE",
"520 -16 CURVE SMOOTH",
"537 -16 OFFCURVE",
"546 -8 OFFCURVE",
"546 9 CURVE SMOOTH",
"546 14 OFFCURVE",
"545 19 OFFCURVE",
"543 25 CURVE SMOOTH",
"316 636 LINE",
"254 636 LINE",
"27 25 LINE SMOOTH",
"25 19 OFFCURVE",
"24 14 OFFCURVE",
"24 9 CURVE SMOOTH",
"24 -8 OFFCURVE",
"33 -16 OFFCURVE",
"50 -16 CURVE SMOOTH"
);
},
{
closed = 1;
nodes = (
"168 251 LINE",
"284 560 LINE",
"402 251 LINE"
);
}
);
width = 570;
}
);
leftKerningGroup = A;
note = Atilde;
rightKerningGroup = A;
unicode = 00C3;
},
{
glyphname = Adieresis;
lastChange = "2016-07-31 02:25:57 +0000";
layers = (
{
layerId = "7FF32B46-F6F7-4405-9AA0-D8922FAB2D23";
paths = (
{
closed = 1;
nodes = (
"161 720 OFFCURVE",
"190 702 OFFCURVE",
"212 702 CURVE SMOOTH",
"234 702 OFFCURVE",
"263 720 OFFCURVE",
"263 743 CURVE SMOOTH",
"263 766 OFFCURVE",
"234 784 OFFCURVE",
"212 784 CURVE SMOOTH",
"190 784 OFFCURVE",
"161 766 OFFCURVE",
"161 743 CURVE SMOOTH"
);
},
{
closed = 1;
nodes = (
"307 720 OFFCURVE",
"336 702 OFFCURVE",
"358 702 CURVE SMOOTH",
"380 702 OFFCURVE",
"409 720 OFFCURVE",
"409 743 CURVE SMOOTH",
"409 766 OFFCURVE",
"380 784 OFFCURVE",
"358 784 CURVE SMOOTH",
"336 784 OFFCURVE",
"307 766 OFFCURVE",
"307 743 CURVE SMOOTH"
);
},
{
closed = 1;
nodes = (
"61 -16 OFFCURVE",
"70 -8 OFFCURVE",
"77 7 CURVE",
"148 199 LINE",
"422 199 LINE",
"493 7 LINE",
"500 -8 OFFCURVE",
"509 -16 OFFCURVE",
"520 -16 CURVE SMOOTH",
"537 -16 OFFCURVE",
"546 -8 OFFCURVE",
"546 9 CURVE SMOOTH",
"546 14 OFFCURVE",
"545 19 OFFCURVE",
"543 25 CURVE SMOOTH",
"316 636 LINE",
"254 636 LINE",
"27 25 LINE SMOOTH",
"25 19 OFFCURVE",
"24 14 OFFCURVE",
"24 9 CURVE SMOOTH",
"24 -8 OFFCURVE",
"33 -16 OFFCURVE",
"50 -16 CURVE SMOOTH"
);
},
{
closed = 1;
nodes = (
"168 251 LINE",
"284 560 LINE",
"402 251 LINE"
);
}
);
width = 570;
}
);
leftKerningGroup = A;
note = Adieresis;
rightKerningGroup = A;
unicode = 00C4;
},
{
glyphname = Aring;
lastChange = "2016-07-31 02:25:57 +0000";
layers = (
{
layerId = "7FF32B46-F6F7-4405-9AA0-D8922FAB2D23";
paths = (
{
closed = 1;
nodes = (
"308 782 OFFCURVE",
"329 762 OFFCURVE",
"329 738 CURVE SMOOTH",
"329 714 OFFCURVE",
"308 694 OFFCURVE",
"285 694 CURVE SMOOTH",
"261 694 OFFCURVE",
"241 714 OFFCURVE",
"241 738 CURVE SMOOTH",
"241 761 OFFCURVE",
"261 782 OFFCURVE",
"285 782 CURVE SMOOTH"
);
},
{
closed = 1;
nodes = (
"212 780 OFFCURVE",
"204 761 OFFCURVE",
"204 738 CURVE SMOOTH",
"204 693 OFFCURVE",
"240 657 OFFCURVE",
"285 657 CURVE SMOOTH",
"330 657 OFFCURVE",
"366 693 OFFCURVE",
"366 738 CURVE SMOOTH",
"366 783 OFFCURVE",
"330 819 OFFCURVE",
"285 819 CURVE SMOOTH",
"262 819 OFFCURVE",
"243 811 OFFCURVE",
"228 796 CURVE SMOOTH"
);
},
{
closed = 1;
nodes = (
"61 -16 OFFCURVE",
"70 -8 OFFCURVE",
"77 7 CURVE",
"148 199 LINE",
"422 199 LINE",
"493 7 LINE",
"500 -8 OFFCURVE",
"509 -16 OFFCURVE",
"520 -16 CURVE SMOOTH",
"537 -16 OFFCURVE",
"546 -8 OFFCURVE",
"546 9 CURVE SMOOTH",
"546 14 OFFCURVE",
"545 19 OFFCURVE",
"543 25 CURVE SMOOTH",
"316 636 LINE",
"254 636 LINE",
"27 25 LINE SMOOTH",
"25 19 OFFCURVE",
"24 14 OFFCURVE",
"24 9 CURVE SMOOTH",
"24 -8 OFFCURVE",
"33 -16 OFFCURVE",
"50 -16 CURVE SMOOTH"
);
},
{
closed = 1;
nodes = (
"168 251 LINE",
"284 560 LINE",
"402 251 LINE"
);
}
);
width = 570;
}
);
leftKerningGroup = A;
note = Aring;
rightKerningGroup = A;
unicode = 00C5;
},
{
glyphname = AE;
lastChange = "2016-07-31 02:24:38 +0000";
layers = (
{
layerId = "7FF32B46-F6F7-4405-9AA0-D8922FAB2D23";
paths = (
{
closed = 1;
nodes = (
"690 332 OFFCURVE",
"702 341 OFFCURVE",
"702 358 CURVE SMOOTH",
"702 375 OFFCURVE",
"690 384 OFFCURVE",
"666 384 CURVE SMOOTH",
"452 384 LINE",
"452 589 LINE",
"785 589 LINE SMOOTH",
"808 589 OFFCURVE",
"819 598 OFFCURVE",
"819 615 CURVE SMOOTH",
"819 632 OFFCURVE",
"808 641 OFFCURVE",
"785 641 CURVE SMOOTH",
"424 641 LINE SMOOTH",
"416 641 OFFCURVE",
"410 638 OFFCURVE",
"405 631 CURVE",
"17 25 LINE",
"12 16 OFFCURVE",
"9 9 OFFCURVE",
"9 2 CURVE SMOOTH",
"9 -10 OFFCURVE",
"15 -16 OFFCURVE",
"28 -16 CURVE SMOOTH",
"41 -16 OFFCURVE",
"52 -8 OFFCURVE",
"62 7 CURVE SMOOTH",
"185 199 LINE",
"400 199 LINE",
"400 36 LINE SMOOTH",
"400 12 OFFCURVE",
"408 0 OFFCURVE",
"424 0 CURVE SMOOTH",
"785 0 LINE SMOOTH",
"808 0 OFFCURVE",
"819 9 OFFCURVE",
"819 26 CURVE SMOOTH",
"819 43 OFFCURVE",
"808 52 OFFCURVE",
"785 52 CURVE SMOOTH",
"452 52 LINE",
"452 332 LINE",
"666 332 LINE SMOOTH"
);
},
{
closed = 1;
nodes = (
"400 533 LINE",
"400 251 LINE",
"219 251 LINE"
);
}
);
width = 867;
}
);
leftKerningGroup = AE;
note = AE;
rightKerningGroup = E;
unicode = 00C6;
},
{
glyphname = Ccedilla;
lastChange = "2016-07-31 02:24:38 +0000";
layers = (
{
layerId = "7FF32B46-F6F7-4405-9AA0-D8922FAB2D23";
paths = (
{
closed = 1;
nodes = (
"286 -25 OFFCURVE",
"303 -51 OFFCURVE",
"336 -76 CURVE SMOOTH",
"347 -84 OFFCURVE",
"352 -92 OFFCURVE",
"352 -99 CURVE SMOOTH",
"352 -116 OFFCURVE",
"338 -125 OFFCURVE",
"310 -125 CURVE SMOOTH",
"301 -125 OFFCURVE",
"288 -122 OFFCURVE",
"273 -116 CURVE SMOOTH",
"258 -110 OFFCURVE",
"248 -107 OFFCURVE",
"244 -107 CURVE SMOOTH",
"234 -107 OFFCURVE",
"229 -114 OFFCURVE",
"229 -129 CURVE SMOOTH",
"229 -158 OFFCURVE",
"272 -175 OFFCURVE",
"316 -175 CURVE SMOOTH",
"359 -175 OFFCURVE",
"404 -142 OFFCURVE",
"404 -94 CURVE SMOOTH",
"404 -70 OFFCURVE",
"390 -50 OFFCURVE",
"363 -35 CURVE SMOOTH",
"348 -26 OFFCURVE",
"339 -15 OFFCURVE",
"336 0 CURVE",
"435 0 LINE SMOOTH",
"436 0 OFFCURVE",
"437 0 OFFCURVE",
"438 0 CURVE SMOOTH",
"480 0 OFFCURVE",
"507 12 OFFCURVE",
"520 36 CURVE SMOOTH",
"533 60 OFFCURVE",
"535 78 OFFCURVE",
"535 118 CURVE SMOOTH",
"535 137 OFFCURVE",
"526 147 OFFCURVE",
"509 147 CURVE SMOOTH",
"492 147 OFFCURVE",
"483 136 OFFCURVE",
"483 114 CURVE SMOOTH",
"483 69 OFFCURVE",
"471 52 OFFCURVE",
"428 52 CURVE SMOOTH",
"294 52 LINE SMOOTH",
"162 52 OFFCURVE",
"123 69 OFFCURVE",
"123 180 CURVE SMOOTH",
"123 466 LINE SMOOTH",
"123 523 OFFCURVE",
"130 556 OFFCURVE",
"169 578 CURVE SMOOTH",
"188 589 OFFCURVE",
"228 594 OFFCURVE",
"288 594 CURVE SMOOTH",
"428 594 LINE SMOOTH",
"469 594 OFFCURVE",
"483 578 OFFCURVE",
"483 533 CURVE SMOOTH",
"483 510 OFFCURVE",
"492 499 OFFCURVE",
"509 499 CURVE SMOOTH",
"526 499 OFFCURVE",
"535 509 OFFCURVE",
"535 529 CURVE SMOOTH",
"535 548 OFFCURVE",
"534 564 OFFCURVE",
"532 575 CURVE SMOOTH",
"523 622 OFFCURVE",
"491 646 OFFCURVE",
"435 646 CURVE SMOOTH",
"288 646 LINE SMOOTH",
"140 646 OFFCURVE",
"71 610 OFFCURVE",
"71 466 CURVE SMOOTH",
"71 180 LINE SMOOTH",
"71 39 OFFCURVE",
"136 1 OFFCURVE",
"283 0 CURVE"
);
}
);
width = 590;
}
);
leftKerningGroup = C;
note = Ccedilla;
rightKerningGroup = C;
unicode = 00C7;
},
{
glyphname = Egrave;
lastChange = "2016-07-31 02:25:57 +0000";
layers = (
{
layerId = "7FF32B46-F6F7-4405-9AA0-D8922FAB2D23";
paths = (
{
closed = 1;
nodes = (
"204 787 OFFCURVE",
"208 779 OFFCURVE",
"217 769 CURVE",
"286 701 LINE",
"294 692 OFFCURVE",
"302 688 OFFCURVE",
"310 688 CURVE SMOOTH",
"326 688 OFFCURVE",
"336 701 OFFCURVE",
"336 714 CURVE SMOOTH",
"336 720 OFFCURVE",
"332 728 OFFCURVE",
"324 737 CURVE",
"254 806 LINE",
"246 815 OFFCURVE",
"238 819 OFFCURVE",
"231 819 CURVE SMOOTH",
"216 819 OFFCURVE",
"204 805 OFFCURVE",
"204 793 CURVE SMOOTH"
);
},
{
closed = 1;
nodes = (
"419 332 OFFCURVE",
"431 341 OFFCURVE",
"431 358 CURVE SMOOTH",
"431 375 OFFCURVE",
"419 384 OFFCURVE",
"395 384 CURVE SMOOTH",
"136 384 LINE",
"136 584 LINE",
"514 584 LINE SMOOTH",
"537 584 OFFCURVE",
"548 593 OFFCURVE",
"548 610 CURVE SMOOTH",
"548 627 OFFCURVE",
"537 636 OFFCURVE",
"514 636 CURVE SMOOTH",
"108 636 LINE SMOOTH",
"92 636 OFFCURVE",
"84 624 OFFCURVE",
"84 600 CURVE SMOOTH",
"84 36 LINE SMOOTH",
"84 12 OFFCURVE",
"92 0 OFFCURVE",
"108 0 CURVE SMOOTH",
"514 0 LINE SMOOTH",
"537 0 OFFCURVE",
"548 9 OFFCURVE",
"548 26 CURVE SMOOTH",
"548 43 OFFCURVE",
"537 52 OFFCURVE",
"514 52 CURVE SMOOTH",
"136 52 LINE",
"136 332 LINE",
"395 332 LINE SMOOTH"
);
}
);
width = 598;
}
);
leftKerningGroup = B;
note = Egrave;
rightKerningGroup = E;
unicode = 00C8;
},
{
glyphname = Eacute;
lastChange = "2016-07-31 02:25:57 +0000";
layers = (
{
layerId = "7FF32B46-F6F7-4405-9AA0-D8922FAB2D23";
paths = (
{
closed = 1;
nodes = (
"383 779 OFFCURVE",
"387 787 OFFCURVE",
"387 793 CURVE SMOOTH",
"387 805 OFFCURVE",
"377 819 OFFCURVE",
"361 819 CURVE SMOOTH",
"353 819 OFFCURVE",
"345 815 OFFCURVE",
"337 806 CURVE",
"268 738 LINE",
"259 728 OFFCURVE",
"255 720 OFFCURVE",
"255 713 CURVE SMOOTH",
"255 700 OFFCURVE",
"267 688 OFFCURVE",
"282 688 CURVE SMOOTH",
"289 688 OFFCURVE",
"297 692 OFFCURVE",
"305 701 CURVE",
"375 770 LINE"
);
},
{
closed = 1;
nodes = (
"419 332 OFFCURVE",
"431 341 OFFCURVE",
"431 358 CURVE SMOOTH",
"431 375 OFFCURVE",
"419 384 OFFCURVE",
"395 384 CURVE SMOOTH",
"136 384 LINE",
"136 584 LINE",
"514 584 LINE SMOOTH",
"537 584 OFFCURVE",
"548 593 OFFCURVE",
"548 610 CURVE SMOOTH",
"548 627 OFFCURVE",
"537 636 OFFCURVE",
"514 636 CURVE SMOOTH",
"108 636 LINE SMOOTH",
"92 636 OFFCURVE",
"84 624 OFFCURVE",
"84 600 CURVE SMOOTH",
"84 36 LINE SMOOTH",
"84 12 OFFCURVE",
"92 0 OFFCURVE",
"108 0 CURVE SMOOTH",
"514 0 LINE SMOOTH",
"537 0 OFFCURVE",
"548 9 OFFCURVE",
"548 26 CURVE SMOOTH",
"548 43 OFFCURVE",
"537 52 OFFCURVE",
"514 52 CURVE SMOOTH",
"136 52 LINE",
"136 332 LINE",
"395 332 LINE SMOOTH"
);
}
);
width = 598;
}
);
leftKerningGroup = B;
note = Eacute;
rightKerningGroup = E;
unicode = 00C9;
},
{
glyphname = Ecircumflex;
lastChange = "2016-07-31 02:25:57 +0000";
layers = (
{
layerId = "7FF32B46-F6F7-4405-9AA0-D8922FAB2D23";
paths = (
{
closed = 1;
nodes = (
"172 682 OFFCURVE",
"170 676 OFFCURVE",
"170 669 CURVE SMOOTH",
"170 654 OFFCURVE",
"178 646 OFFCURVE",
"193 646 CURVE",
"200 647 OFFCURVE",
"204 648 OFFCURVE",
"207 651 CURVE SMOOTH",
"208 652 OFFCURVE",
"210 654 OFFCURVE",
"211 655 CURVE SMOOTH",
"212 656 OFFCURVE",
"214 657 OFFCURVE",
"216 660 CURVE SMOOTH",
"218 663 OFFCURVE",
"220 665 OFFCURVE",
"221 666 CURVE SMOOTH",
"311 762 LINE",
"402 666 LINE SMOOTH",
"403 665 OFFCURVE",
"406 662 OFFCURVE",
"411 656 CURVE",
"416 649 OFFCURVE",
"423 646 OFFCURVE",
"430 646 CURVE SMOOTH",
"445 646 OFFCURVE",
"453 654 OFFCURVE",
"453 669 CURVE SMOOTH",
"453 676 OFFCURVE",
"451 682 OFFCURVE",
"447 687 CURVE SMOOTH",
"340 819 LINE",
"281 819 LINE",
"176 687 LINE SMOOTH"
);
},
{
closed = 1;
nodes = (
"419 332 OFFCURVE",
"431 341 OFFCURVE",
"431 358 CURVE SMOOTH",
"431 375 OFFCURVE",
"419 384 OFFCURVE",
"395 384 CURVE SMOOTH",
"136 384 LINE",
"136 584 LINE",
"514 584 LINE SMOOTH",
"537 584 OFFCURVE",
"548 593 OFFCURVE",
"548 610 CURVE SMOOTH",
"548 627 OFFCURVE",
"537 636 OFFCURVE",
"514 636 CURVE SMOOTH",
"108 636 LINE SMOOTH",
"92 636 OFFCURVE",
"84 624 OFFCURVE",
"84 600 CURVE SMOOTH",
"84 36 LINE SMOOTH",
"84 12 OFFCURVE",
"92 0 OFFCURVE",
"108 0 CURVE SMOOTH",
"514 0 LINE SMOOTH",
"537 0 OFFCURVE",
"548 9 OFFCURVE",
"548 26 CURVE SMOOTH",
"548 43 OFFCURVE",
"537 52 OFFCURVE",
"514 52 CURVE SMOOTH",
"136 52 LINE",
"136 332 LINE",
"395 332 LINE SMOOTH"
);
}
);
width = 598;
}
);
leftKerningGroup = B;
note = Ecircumflex;
rightKerningGroup = E;
unicode = 00CA;
},
{
glyphname = Edieresis;
lastChange = "2016-07-31 02:25:57 +0000";
layers = (
{
layerId = "7FF32B46-F6F7-4405-9AA0-D8922FAB2D23";
paths = (
{
closed = 1;
nodes = (
"188 720 OFFCURVE",
"217 702 OFFCURVE",
"239 702 CURVE SMOOTH",
"261 702 OFFCURVE",
"290 720 OFFCURVE",
"290 743 CURVE SMOOTH",
"290 766 OFFCURVE",
"261 784 OFFCURVE",
"239 784 CURVE SMOOTH",
"217 784 OFFCURVE",
"188 766 OFFCURVE",
"188 743 CURVE SMOOTH"
);
},
{
closed = 1;
nodes = (
"334 720 OFFCURVE",
"363 702 OFFCURVE",
"385 702 CURVE SMOOTH",
"407 702 OFFCURVE",
"436 720 OFFCURVE",
"436 743 CURVE SMOOTH",
"436 766 OFFCURVE",
"407 784 OFFCURVE",
"385 784 CURVE SMOOTH",
"363 784 OFFCURVE",
"334 766 OFFCURVE",
"334 743 CURVE SMOOTH"
);
},
{
closed = 1;
nodes = (
"419 332 OFFCURVE",
"431 341 OFFCURVE",
"431 358 CURVE SMOOTH",
"431 375 OFFCURVE",
"419 384 OFFCURVE",
"395 384 CURVE SMOOTH",
"136 384 LINE",
"136 584 LINE",
"514 584 LINE SMOOTH",
"537 584 OFFCURVE",
"548 593 OFFCURVE",
"548 610 CURVE SMOOTH",
"548 627 OFFCURVE",
"537 636 OFFCURVE",
"514 636 CURVE SMOOTH",
"108 636 LINE SMOOTH",
"92 636 OFFCURVE",
"84 624 OFFCURVE",
"84 600 CURVE SMOOTH",
"84 36 LINE SMOOTH",
"84 12 OFFCURVE",
"92 0 OFFCURVE",
"108 0 CURVE SMOOTH",
"514 0 LINE SMOOTH",
"537 0 OFFCURVE",
"548 9 OFFCURVE",
"548 26 CURVE SMOOTH",
"548 43 OFFCURVE",
"537 52 OFFCURVE",
"514 52 CURVE SMOOTH",
"136 52 LINE",
"136 332 LINE",
"395 332 LINE SMOOTH"
);
}
);
width = 598;
}
);
leftKerningGroup = B;
note = Edieresis;
rightKerningGroup = E;
unicode = 00CB;
},
{
glyphname = Igrave;
lastChange = "2016-07-31 02:25:57 +0000";
layers = (
{
layerId = "7FF32B46-F6F7-4405-9AA0-D8922FAB2D23";
paths = (
{
closed = 1;
nodes = (
"4 787 OFFCURVE",
"8 779 OFFCURVE",
"17 769 CURVE",
"86 701 LINE",
"94 692 OFFCURVE",
"102 688 OFFCURVE",
"110 688 CURVE SMOOTH",
"126 688 OFFCURVE",
"136 701 OFFCURVE",
"136 714 CURVE SMOOTH",
"136 720 OFFCURVE",
"132 728 OFFCURVE",
"124 737 CURVE",
"54 806 LINE",
"46 815 OFFCURVE",
"38 819 OFFCURVE",
"31 819 CURVE SMOOTH",
"16 819 OFFCURVE",
"4 805 OFFCURVE",
"4 793 CURVE SMOOTH"
);
},
{
closed = 1;
nodes = (
"136 632 OFFCURVE",
"127 643 OFFCURVE",
"110 643 CURVE SMOOTH",
"93 643 OFFCURVE",
"84 632 OFFCURVE",
"84 610 CURVE SMOOTH",
"84 25 LINE SMOOTH",
"84 4 OFFCURVE",
"93 -7 OFFCURVE",
"110 -7 CURVE SMOOTH",
"127 -7 OFFCURVE",
"136 4 OFFCURVE",
"136 25 CURVE SMOOTH",
"136 610 LINE SMOOTH"
);
}
);
width = 220;
}
);
leftKerningGroup = B;
note = Igrave;
rightKerningGroup = H;
unicode = 00CC;
},
{
glyphname = Iacute;
lastChange = "2016-07-31 02:25:57 +0000";
layers = (
{
layerId = "7FF32B46-F6F7-4405-9AA0-D8922FAB2D23";
paths = (
{
closed = 1;
nodes = (
"213 779 OFFCURVE",
"217 787 OFFCURVE",
"217 793 CURVE SMOOTH",
"217 805 OFFCURVE",
"207 819 OFFCURVE",
"191 819 CURVE SMOOTH",
"183 819 OFFCURVE",
"175 815 OFFCURVE",
"167 806 CURVE",
"98 738 LINE",
"89 728 OFFCURVE",
"85 720 OFFCURVE",
"85 713 CURVE SMOOTH",
"85 700 OFFCURVE",
"97 688 OFFCURVE",
"112 688 CURVE SMOOTH",
"119 688 OFFCURVE",
"127 692 OFFCURVE",
"135 701 CURVE",
"205 770 LINE"
);
},
{
closed = 1;
nodes = (
"136 632 OFFCURVE",
"127 643 OFFCURVE",
"110 643 CURVE SMOOTH",
"93 643 OFFCURVE",
"84 632 OFFCURVE",
"84 610 CURVE SMOOTH",
"84 25 LINE SMOOTH",
"84 4 OFFCURVE",
"93 -7 OFFCURVE",
"110 -7 CURVE SMOOTH",
"127 -7 OFFCURVE",
"136 4 OFFCURVE",
"136 25 CURVE SMOOTH",
"136 610 LINE SMOOTH"
);
}
);
width = 220;
}
);
leftKerningGroup = B;
note = Iacute;
rightKerningGroup = H;
unicode = 00CD;
},
{
glyphname = Icircumflex;
lastChange = "2016-07-31 02:25:57 +0000";
layers = (
{
layerId = "7FF32B46-F6F7-4405-9AA0-D8922FAB2D23";
paths = (
{
closed = 1;
nodes = (
"-28 682 OFFCURVE",
"-30 676 OFFCURVE",
"-30 669 CURVE SMOOTH",
"-30 654 OFFCURVE",
"-22 646 OFFCURVE",
"-7 646 CURVE",
"0 647 OFFCURVE",
"4 648 OFFCURVE",
"7 651 CURVE SMOOTH",
"8 652 OFFCURVE",
"10 654 OFFCURVE",
"11 655 CURVE SMOOTH",
"12 656 OFFCURVE",
"14 657 OFFCURVE",
"16 660 CURVE SMOOTH",
"18 663 OFFCURVE",
"20 665 OFFCURVE",
"21 666 CURVE SMOOTH",
"111 762 LINE",
"202 666 LINE SMOOTH",
"203 665 OFFCURVE",
"206 662 OFFCURVE",
"211 656 CURVE",
"216 649 OFFCURVE",
"223 646 OFFCURVE",
"230 646 CURVE SMOOTH",
"245 646 OFFCURVE",
"253 654 OFFCURVE",
"253 669 CURVE SMOOTH",
"253 676 OFFCURVE",
"251 682 OFFCURVE",
"247 687 CURVE SMOOTH",
"140 819 LINE",
"81 819 LINE",
"-24 687 LINE SMOOTH"
);
},
{
closed = 1;
nodes = (
"136 632 OFFCURVE",
"127 643 OFFCURVE",
"110 643 CURVE SMOOTH",
"93 643 OFFCURVE",
"84 632 OFFCURVE",
"84 610 CURVE SMOOTH",
"84 25 LINE SMOOTH",
"84 4 OFFCURVE",
"93 -7 OFFCURVE",
"110 -7 CURVE SMOOTH",
"127 -7 OFFCURVE",
"136 4 OFFCURVE",
"136 25 CURVE SMOOTH",
"136 610 LINE SMOOTH"
);
}
);
width = 220;
}
);
leftKerningGroup = B;
note = Icircumflex;
rightKerningGroup = H;
unicode = 00CE;
},
{
glyphname = Idieresis;
lastChange = "2016-07-31 02:25:57 +0000";
layers = (
{
layerId = "7FF32B46-F6F7-4405-9AA0-D8922FAB2D23";
paths = (
{
closed = 1;
nodes = (
"-13 720 OFFCURVE",
"16 702 OFFCURVE",
"38 702 CURVE SMOOTH",
"60 702 OFFCURVE",
"89 720 OFFCURVE",
"89 743 CURVE SMOOTH",
"89 766 OFFCURVE",
"60 784 OFFCURVE",
"38 784 CURVE SMOOTH",
"16 784 OFFCURVE",
"-13 766 OFFCURVE",
"-13 743 CURVE SMOOTH"
);
},
{
closed = 1;
nodes = (
"133 720 OFFCURVE",
"162 702 OFFCURVE",
"184 702 CURVE SMOOTH",
"206 702 OFFCURVE",
"235 720 OFFCURVE",
"235 743 CURVE SMOOTH",
"235 766 OFFCURVE",
"206 784 OFFCURVE",
"184 784 CURVE SMOOTH",
"162 784 OFFCURVE",
"133 766 OFFCURVE",
"133 743 CURVE SMOOTH"
);
},
{
closed = 1;
nodes = (
"136 632 OFFCURVE",
"127 643 OFFCURVE",
"110 643 CURVE SMOOTH",
"93 643 OFFCURVE",
"84 632 OFFCURVE",
"84 610 CURVE SMOOTH",
"84 25 LINE SMOOTH",
"84 4 OFFCURVE",
"93 -7 OFFCURVE",
"110 -7 CURVE SMOOTH",
"127 -7 OFFCURVE",
"136 4 OFFCURVE",
"136 25 CURVE SMOOTH",
"136 610 LINE SMOOTH"
);
}
);
width = 220;
}
);
leftKerningGroup = B;
note = Idieresis;
rightKerningGroup = H;
unicode = 00CF;
},
{
glyphname = Eth;
lastChange = "2016-07-31 02:24:38 +0000";
layers = (
{
layerId = "7FF32B46-F6F7-4405-9AA0-D8922FAB2D23";
paths = (
{
closed = 1;
nodes = (
"496 69 OFFCURVE",
"457 52 OFFCURVE",
"326 52 CURVE SMOOTH",
"136 52 LINE",
"136 298 LINE",
"240 298 LINE SMOOTH",
"263 298 OFFCURVE",
"274 307 OFFCURVE",
"274 325 CURVE SMOOTH",
"274 342 OFFCURVE",
"263 351 OFFCURVE",
"240 351 CURVE SMOOTH",
"136 351 LINE",
"136 584 LINE",
"332 584 LINE SMOOTH",
"457 584 OFFCURVE",
"496 565 OFFCURVE",
"496 456 CURVE SMOOTH",
"496 180 LINE SMOOTH"
);
},
{
closed = 1;
nodes = (
"548 531 OFFCURVE",
"533 577 OFFCURVE",
"478 611 CURVE SMOOTH",
"451 628 OFFCURVE",
"402 636 OFFCURVE",
"332 636 CURVE SMOOTH",
"108 636 LINE SMOOTH",
"92 636 OFFCURVE",
"84 624 OFFCURVE",
"84 600 CURVE SMOOTH",
"84 351 LINE",
"63 351 OFFCURVE",
"52 342 OFFCURVE",
"52 325 CURVE SMOOTH",
"52 307 OFFCURVE",
"63 298 OFFCURVE",
"84 298 CURVE",
"84 36 LINE SMOOTH",
"84 12 OFFCURVE",
"92 0 OFFCURVE",
"108 0 CURVE SMOOTH",
"326 0 LINE SMOOTH",
"479 0 OFFCURVE",
"548 36 OFFCURVE",
"548 180 CURVE SMOOTH",
"548 456 LINE SMOOTH"
);
}
);
width = 620;
}
);
leftKerningGroup = B;
note = Eth;
rightKerningGroup = D;
unicode = 00D0;
},
{
glyphname = Ntilde;
lastChange = "2016-07-31 02:25:57 +0000";
layers = (
{
layerId = "7FF32B46-F6F7-4405-9AA0-D8922FAB2D23";
paths = (
{
closed = 1;
nodes = (
"245 798 OFFCURVE",
"239 795 OFFCURVE",
"234 789 CURVE",
"188 751 LINE SMOOTH",
"179 744 OFFCURVE",
"174 736 OFFCURVE",
"174 727 CURVE SMOOTH",
"174 710 OFFCURVE",
"187 701 OFFCURVE",
"199 701 CURVE SMOOTH",
"205 701 OFFCURVE",
"212 704 OFFCURVE",
"221 710 CURVE",
"252 738 LINE",
"255 741 OFFCURVE",
"258 742 OFFCURVE",
"261 742 CURVE SMOOTH",
"263 742 OFFCURVE",
"265 741 OFFCURVE",
"266 740 CURVE",
"364 704 LINE",
"365 704 LINE SMOOTH",
"368 704 OFFCURVE",
"371 703 OFFCURVE",
"372 702 CURVE",
"381 702 LINE SMOOTH",
"385 702 OFFCURVE",
"390 705 OFFCURVE",
"395 710 CURVE",
"442 749 LINE",
"451 758 OFFCURVE",
"456 767 OFFCURVE",
"456 776 CURVE SMOOTH",
"456 791 OFFCURVE",
"447 799 OFFCURVE",
"430 799 CURVE SMOOTH",
"424 799 OFFCURVE",
"417 796 OFFCURVE",
"408 790 CURVE",
"377 762 LINE",
"374 759 OFFCURVE",
"371 758 OFFCURVE",
"369 758 CURVE",
"364 760 LINE",
"266 796 LINE",
"253 798 LINE"
);
},
{
closed = 1;
nodes = (
"540 -7 OFFCURVE",
"548 4 OFFCURVE",
"548 27 CURVE SMOOTH",
"548 608 LINE SMOOTH",
"548 631 OFFCURVE",
"539 643 OFFCURVE",
"522 643 CURVE SMOOTH",
"505 643 OFFCURVE",
"496 631 OFFCURVE",
"496 607 CURVE SMOOTH",
"496 96 LINE",
"138 624 LINE",
"130 637 OFFCURVE",
"120 643 OFFCURVE",
"108 643 CURVE SMOOTH",
"92 643 OFFCURVE",
"84 631 OFFCURVE",
"84 608 CURVE SMOOTH",
"84 27 LINE SMOOTH",
"84 4 OFFCURVE",
"93 -7 OFFCURVE",
"110 -7 CURVE SMOOTH",
"127 -7 OFFCURVE",
"136 4 OFFCURVE",
"136 26 CURVE SMOOTH",
"136 543 LINE",
"503 0 LINE",
"507 -5 OFFCURVE",
"514 -7 OFFCURVE",
"523 -7 CURVE SMOOTH"
);
}
);
width = 632;
}
);
leftKerningGroup = B;
note = Ntilde;
rightKerningGroup = H;
unicode = 00D1;
},
{
glyphname = Ograve;
lastChange = "2016-07-31 02:25:57 +0000";
layers = (
{
layerId = "7FF32B46-F6F7-4405-9AA0-D8922FAB2D23";
paths = (
{
closed = 1;
nodes = (
"190 787 OFFCURVE",
"194 779 OFFCURVE",
"203 769 CURVE",
"272 701 LINE",
"280 692 OFFCURVE",
"288 688 OFFCURVE",
"296 688 CURVE SMOOTH",
"312 688 OFFCURVE",
"322 701 OFFCURVE",
"322 714 CURVE SMOOTH",
"322 720 OFFCURVE",
"318 728 OFFCURVE",
"310 737 CURVE",
"240 806 LINE",
"232 815 OFFCURVE",
"224 819 OFFCURVE",
"217 819 CURVE SMOOTH",
"202 819 OFFCURVE",
"190 805 OFFCURVE",
"190 793 CURVE SMOOTH"
);
},
{
closed = 1;
nodes = (
"507 97 OFFCURVE",
"529 155 OFFCURVE",
"529 228 CURVE SMOOTH",
"529 408 LINE SMOOTH",
"529 555 OFFCURVE",
"433 645 OFFCURVE",
"297 645 CURVE SMOOTH",
"161 645 OFFCURVE",
"65 556 OFFCURVE",
"65 408 CURVE SMOOTH",
"65 228 LINE SMOOTH",
"65 80 OFFCURVE",
"161 -9 OFFCURVE",
"297 -9 CURVE SMOOTH",
"365 -9 OFFCURVE",
"421 12 OFFCURVE",
"464 55 CURVE SMOOTH"
);
},
{
closed = 1;
nodes = (
"461 511 OFFCURVE",
"477 466 OFFCURVE",
"477 407 CURVE SMOOTH",
"477 229 LINE SMOOTH",
"477 112 OFFCURVE",
"412 43 OFFCURVE",
"297 43 CURVE SMOOTH",
"182 43 OFFCURVE",
"117 112 OFFCURVE",
"117 229 CURVE SMOOTH",
"117 407 LINE SMOOTH",
"117 524 OFFCURVE",
"182 593 OFFCURVE",
"297 593 CURVE SMOOTH",
"354 593 OFFCURVE",
"399 577 OFFCURVE",
"430 544 CURVE SMOOTH"
);
}
);
width = 594;
}
);
leftKerningGroup = O;
note = Ograve;
rightKerningGroup = O;
unicode = 00D2;
},
{
glyphname = Oacute;
lastChange = "2016-07-31 02:25:57 +0000";
layers = (
{
layerId = "7FF32B46-F6F7-4405-9AA0-D8922FAB2D23";
paths = (
{
closed = 1;
nodes = (
"399 779 OFFCURVE",
"403 787 OFFCURVE",
"403 793 CURVE SMOOTH",
"403 805 OFFCURVE",
"393 819 OFFCURVE",
"377 819 CURVE SMOOTH",
"369 819 OFFCURVE",
"361 815 OFFCURVE",
"353 806 CURVE",
"284 738 LINE",
"275 728 OFFCURVE",
"271 720 OFFCURVE",
"271 713 CURVE SMOOTH",
"271 700 OFFCURVE",
"283 688 OFFCURVE",
"298 688 CURVE SMOOTH",
"305 688 OFFCURVE",
"313 692 OFFCURVE",
"321 701 CURVE",
"391 770 LINE"
);
},
{
closed = 1;
nodes = (
"507 97 OFFCURVE",
"529 155 OFFCURVE",
"529 228 CURVE SMOOTH",
"529 408 LINE SMOOTH",
"529 555 OFFCURVE",
"433 645 OFFCURVE",
"297 645 CURVE SMOOTH",
"161 645 OFFCURVE",
"65 556 OFFCURVE",
"65 408 CURVE SMOOTH",
"65 228 LINE SMOOTH",
"65 80 OFFCURVE",
"161 -9 OFFCURVE",
"297 -9 CURVE SMOOTH",
"365 -9 OFFCURVE",
"421 12 OFFCURVE",
"464 55 CURVE SMOOTH"
);
},
{
closed = 1;
nodes = (
"461 511 OFFCURVE",
"477 466 OFFCURVE",
"477 407 CURVE SMOOTH",
"477 229 LINE SMOOTH",
"477 112 OFFCURVE",
"412 43 OFFCURVE",
"297 43 CURVE SMOOTH",
"182 43 OFFCURVE",
"117 112 OFFCURVE",
"117 229 CURVE SMOOTH",
"117 407 LINE SMOOTH",
"117 524 OFFCURVE",
"182 593 OFFCURVE",
"297 593 CURVE SMOOTH",
"354 593 OFFCURVE",
"399 577 OFFCURVE",
"430 544 CURVE SMOOTH"
);
}
);
width = 594;
}
);
leftKerningGroup = O;
note = Oacute;
rightKerningGroup = O;
unicode = 00D3;
},
{
glyphname = Ocircumflex;
lastChange = "2016-07-31 02:25:57 +0000";
layers = (
{
layerId = "7FF32B46-F6F7-4405-9AA0-D8922FAB2D23";
paths = (
{
closed = 1;
nodes = (
"158 682 OFFCURVE",
"156 676 OFFCURVE",
"156 669 CURVE SMOOTH",
"156 654 OFFCURVE",
"164 646 OFFCURVE",
"179 646 CURVE",
"186 647 OFFCURVE",
"190 648 OFFCURVE",
"193 651 CURVE SMOOTH",
"194 652 OFFCURVE",
"196 654 OFFCURVE",
"197 655 CURVE SMOOTH",
"198 656 OFFCURVE",
"200 657 OFFCURVE",
"202 660 CURVE SMOOTH",
"204 663 OFFCURVE",
"206 665 OFFCURVE",
"207 666 CURVE SMOOTH",
"297 762 LINE",
"388 666 LINE SMOOTH",
"389 665 OFFCURVE",
"392 662 OFFCURVE",
"397 656 CURVE",
"402 649 OFFCURVE",
"409 646 OFFCURVE",
"416 646 CURVE SMOOTH",
"431 646 OFFCURVE",
"439 654 OFFCURVE",
"439 669 CURVE SMOOTH",
"439 676 OFFCURVE",
"437 682 OFFCURVE",
"433 687 CURVE SMOOTH",
"326 819 LINE",
"267 819 LINE",
"162 687 LINE SMOOTH"
);
},
{
closed = 1;
nodes = (
"507 97 OFFCURVE",
"529 155 OFFCURVE",
"529 228 CURVE SMOOTH",
"529 408 LINE SMOOTH",
"529 555 OFFCURVE",
"433 645 OFFCURVE",
"297 645 CURVE SMOOTH",
"161 645 OFFCURVE",
"65 556 OFFCURVE",
"65 408 CURVE SMOOTH",
"65 228 LINE SMOOTH",
"65 80 OFFCURVE",
"161 -9 OFFCURVE",
"297 -9 CURVE SMOOTH",
"365 -9 OFFCURVE",
"421 12 OFFCURVE",
"464 55 CURVE SMOOTH"
);
},
{
closed = 1;
nodes = (
"461 511 OFFCURVE",
"477 466 OFFCURVE",
"477 407 CURVE SMOOTH",
"477 229 LINE SMOOTH",
"477 112 OFFCURVE",
"412 43 OFFCURVE",
"297 43 CURVE SMOOTH",
"182 43 OFFCURVE",
"117 112 OFFCURVE",
"117 229 CURVE SMOOTH",
"117 407 LINE SMOOTH",
"117 524 OFFCURVE",
"182 593 OFFCURVE",
"297 593 CURVE SMOOTH",
"354 593 OFFCURVE",
"399 577 OFFCURVE",
"430 544 CURVE SMOOTH"
);
}
);
width = 594;
}
);
leftKerningGroup = O;
note = Ocircumflex;
rightKerningGroup = O;
unicode = 00D4;
},
{
glyphname = Otilde;
lastChange = "2016-07-31 02:25:57 +0000";
layers = (
{
layerId = "7FF32B46-F6F7-4405-9AA0-D8922FAB2D23";
paths = (
{
closed = 1;
nodes = (
"227 798 OFFCURVE",
"221 795 OFFCURVE",
"216 789 CURVE",
"170 751 LINE SMOOTH",
"161 744 OFFCURVE",
"156 736 OFFCURVE",
"156 727 CURVE SMOOTH",
"156 710 OFFCURVE",
"169 701 OFFCURVE",
"181 701 CURVE SMOOTH",
"187 701 OFFCURVE",
"194 704 OFFCURVE",
"203 710 CURVE",
"234 738 LINE",
"237 741 OFFCURVE",
"240 742 OFFCURVE",
"243 742 CURVE SMOOTH",
"245 742 OFFCURVE",
"247 741 OFFCURVE",
"248 740 CURVE",
"346 704 LINE",
"347 704 LINE SMOOTH",
"350 704 OFFCURVE",
"353 703 OFFCURVE",
"354 702 CURVE",
"363 702 LINE SMOOTH",
"367 702 OFFCURVE",
"372 705 OFFCURVE",
"377 710 CURVE",
"424 749 LINE",
"433 758 OFFCURVE",
"438 767 OFFCURVE",
"438 776 CURVE SMOOTH",
"438 791 OFFCURVE",
"429 799 OFFCURVE",
"412 799 CURVE SMOOTH",
"406 799 OFFCURVE",
"399 796 OFFCURVE",
"390 790 CURVE",
"359 762 LINE",
"356 759 OFFCURVE",
"353 758 OFFCURVE",
"351 758 CURVE",
"346 760 LINE",
"248 796 LINE",
"235 798 LINE"
);
},
{
closed = 1;
nodes = (
"507 97 OFFCURVE",
"529 155 OFFCURVE",
"529 228 CURVE SMOOTH",
"529 408 LINE SMOOTH",
"529 555 OFFCURVE",
"433 645 OFFCURVE",
"297 645 CURVE SMOOTH",
"161 645 OFFCURVE",
"65 556 OFFCURVE",
"65 408 CURVE SMOOTH",
"65 228 LINE SMOOTH",
"65 80 OFFCURVE",
"161 -9 OFFCURVE",
"297 -9 CURVE SMOOTH",
"365 -9 OFFCURVE",
"421 12 OFFCURVE",
"464 55 CURVE SMOOTH"
);
},
{
closed = 1;
nodes = (
"461 511 OFFCURVE",
"477 466 OFFCURVE",
"477 407 CURVE SMOOTH",
"477 229 LINE SMOOTH",
"477 112 OFFCURVE",
"412 43 OFFCURVE",
"297 43 CURVE SMOOTH",
"182 43 OFFCURVE",
"117 112 OFFCURVE",
"117 229 CURVE SMOOTH",
"117 407 LINE SMOOTH",
"117 524 OFFCURVE",
"182 593 OFFCURVE",
"297 593 CURVE SMOOTH",
"354 593 OFFCURVE",
"399 577 OFFCURVE",
"430 544 CURVE SMOOTH"
);
}
);
width = 594;
}
);
leftKerningGroup = O;
note = Otilde;
rightKerningGroup = O;
unicode = 00D5;
},
{
glyphname = Odieresis;
lastChange = "2016-07-31 02:25:57 +0000";
layers = (
{
layerId = "7FF32B46-F6F7-4405-9AA0-D8922FAB2D23";
paths = (
{
closed = 1;
nodes = (
"174 720 OFFCURVE",
"203 702 OFFCURVE",
"225 702 CURVE SMOOTH",
"247 702 OFFCURVE",
"276 720 OFFCURVE",
"276 743 CURVE SMOOTH",
"276 766 OFFCURVE",
"247 784 OFFCURVE",
"225 784 CURVE SMOOTH",
"203 784 OFFCURVE",
"174 766 OFFCURVE",
"174 743 CURVE SMOOTH"
);
},
{
closed = 1;
nodes = (
"320 720 OFFCURVE",
"349 702 OFFCURVE",
"371 702 CURVE SMOOTH",
"393 702 OFFCURVE",
"422 720 OFFCURVE",
"422 743 CURVE SMOOTH",
"422 766 OFFCURVE",
"393 784 OFFCURVE",
"371 784 CURVE SMOOTH",
"349 784 OFFCURVE",
"320 766 OFFCURVE",
"320 743 CURVE SMOOTH"
);
},
{
closed = 1;
nodes = (
"507 97 OFFCURVE",
"529 155 OFFCURVE",
"529 228 CURVE SMOOTH",
"529 408 LINE SMOOTH",
"529 555 OFFCURVE",
"433 645 OFFCURVE",
"297 645 CURVE SMOOTH",
"161 645 OFFCURVE",
"65 556 OFFCURVE",
"65 408 CURVE SMOOTH",
"65 228 LINE SMOOTH",
"65 80 OFFCURVE",
"161 -9 OFFCURVE",
"297 -9 CURVE SMOOTH",
"365 -9 OFFCURVE",
"421 12 OFFCURVE",
"464 55 CURVE SMOOTH"
);
},
{
closed = 1;
nodes = (
"461 511 OFFCURVE",
"477 466 OFFCURVE",
"477 407 CURVE SMOOTH",
"477 229 LINE SMOOTH",
"477 112 OFFCURVE",
"412 43 OFFCURVE",
"297 43 CURVE SMOOTH",
"182 43 OFFCURVE",
"117 112 OFFCURVE",
"117 229 CURVE SMOOTH",
"117 407 LINE SMOOTH",
"117 524 OFFCURVE",
"182 593 OFFCURVE",
"297 593 CURVE SMOOTH",
"354 593 OFFCURVE",
"399 577 OFFCURVE",
"430 544 CURVE SMOOTH"
);
}
);
width = 594;
}
);
leftKerningGroup = O;
note = Odieresis;
rightKerningGroup = O;
unicode = 00D6;
},
{
glyphname = multiply;
lastChange = "2016-07-31 02:24:38 +0000";
layers = (
{
layerId = "7FF32B46-F6F7-4405-9AA0-D8922FAB2D23";
paths = (
{
closed = 1;
nodes = (
"82 103 LINE SMOOTH",
"74 95 OFFCURVE",
"70 87 OFFCURVE",
"70 80 CURVE SMOOTH",
"70 65 OFFCURVE",
"81 54 OFFCURVE",
"96 54 CURVE SMOOTH",
"103 54 OFFCURVE",
"111 58 OFFCURVE",
"118 67 CURVE",
"246 194 LINE",
"373 66 LINE SMOOTH",
"381 58 OFFCURVE",
"389 54 OFFCURVE",
"396 54 CURVE SMOOTH",
"411 54 OFFCURVE",
"422 65 OFFCURVE",
"422 80 CURVE SMOOTH",
"422 87 OFFCURVE",
"418 95 OFFCURVE",
"409 102 CURVE",
"282 230 LINE",
"410 357 LINE SMOOTH",
"418 365 OFFCURVE",
"422 373 OFFCURVE",
"422 380 CURVE SMOOTH",
"422 395 OFFCURVE",
"411 405 OFFCURVE",
"397 405 CURVE SMOOTH",
"390 405 OFFCURVE",
"382 401 OFFCURVE",
"374 393 CURVE SMOOTH",
"246 266 LINE",
"119 394 LINE SMOOTH",
"111 402 OFFCURVE",
"103 406 OFFCURVE",
"96 406 CURVE SMOOTH",
"81 406 OFFCURVE",
"71 395 OFFCURVE",
"71 381 CURVE SMOOTH",
"71 374 OFFCURVE",
"75 366 OFFCURVE",
"83 358 CURVE SMOOTH",
"210 230 LINE"
);
}
);
width = 493;
}
);
note = multiply;
rightKerningGroup = numbersign;
unicode = 00D7;
},
{
glyphname = Oslash;
lastChange = "2016-07-31 02:24:38 +0000";
layers = (
{
layerId = "7FF32B46-F6F7-4405-9AA0-D8922FAB2D23";
paths = (
{
closed = 1;
nodes = (
"126 137 OFFCURVE",
"117 175 OFFCURVE",
"117 222 CURVE SMOOTH",
"117 404 LINE SMOOTH",
"117 523 OFFCURVE",
"185 593 OFFCURVE",
"290 593 CURVE SMOOTH",
"342 593 OFFCURVE",
"384 581 OFFCURVE",
"415 558 CURVE",
"145 108 LINE"
);
},
{
closed = 1;
nodes = (
"403 631 OFFCURVE",
"353 645 OFFCURVE",
"290 645 CURVE SMOOTH",
"164 645 OFFCURVE",
"65 556 OFFCURVE",
"65 408 CURVE SMOOTH",
"65 228 LINE SMOOTH",
"65 163 OFFCURVE",
"82 109 OFFCURVE",
"116 68 CURVE",
"101 43 LINE",
"97 35 OFFCURVE",
"95 28 OFFCURVE",
"95 22 CURVE SMOOTH",
"95 21 OFFCURVE",
"95 21 OFFCURVE",
"95 20 CURVE SMOOTH",
"95 5 OFFCURVE",
"105 -2 OFFCURVE",
"124 -2 CURVE SMOOTH",
"132 -2 OFFCURVE",
"139 4 OFFCURVE",
"146 17 CURVE",
"156 33 LINE",
"193 5 OFFCURVE",
"243 -9 OFFCURVE",
"306 -9 CURVE SMOOTH",
"430 -9 OFFCURVE",
"529 81 OFFCURVE",
"529 228 CURVE SMOOTH",
"529 408 LINE SMOOTH",
"529 472 OFFCURVE",
"512 525 OFFCURVE",
"478 566 CURVE",
"495 593 LINE",
"499 601 OFFCURVE",
"501 608 OFFCURVE",
"501 613 CURVE",
"500 630 OFFCURVE",
"490 638 OFFCURVE",
"470 638 CURVE SMOOTH",
"462 638 OFFCURVE",
"455 632 OFFCURVE",
"450 619 CURVE",
"440 602 LINE"
);
},
{
closed = 1;
nodes = (
"477 112 OFFCURVE",
"409 43 OFFCURVE",
"305 43 CURVE SMOOTH",
"252 43 OFFCURVE",
"211 54 OFFCURVE",
"180 77 CURVE",
"450 526 LINE",
"468 497 OFFCURVE",
"477 460 OFFCURVE",
"477 414 CURVE SMOOTH",
"477 232 LINE SMOOTH"
);
}
);
width = 594;
}
);
leftKerningGroup = O;
note = Oslash;
rightKerningGroup = O;
unicode = 00D8;
},
{
glyphname = Ugrave;
lastChange = "2016-07-31 02:25:57 +0000";
layers = (
{
layerId = "7FF32B46-F6F7-4405-9AA0-D8922FAB2D23";
paths = (
{
closed = 1;
nodes = (
"204 776 OFFCURVE",
"207 768 OFFCURVE",
"213 761 CURVE SMOOTH",
"309 646 LINE",
"318 636 OFFCURVE",
"326 631 OFFCURVE",
"333 631 CURVE SMOOTH",
"346 631 OFFCURVE",
"359 641 OFFCURVE",
"359 657 CURVE SMOOTH",
"359 664 OFFCURVE",
"356 672 OFFCURVE",
"350 679 CURVE SMOOTH",
"254 794 LINE",
"245 804 OFFCURVE",
"238 809 OFFCURVE",
"231 809 CURVE SMOOTH",
"217 809 OFFCURVE",
"204 798 OFFCURVE",
"204 783 CURVE SMOOTH"
);
},
{
closed = 1;
nodes = (
"490 112 OFFCURVE",
"425 43 OFFCURVE",
"310 43 CURVE SMOOTH",
"195 43 OFFCURVE",
"130 112 OFFCURVE",
"130 229 CURVE SMOOTH",
"130 611 LINE SMOOTH",
"130 632 OFFCURVE",
"121 643 OFFCURVE",
"104 643 CURVE SMOOTH",
"87 643 OFFCURVE",
"78 632 OFFCURVE",
"78 610 CURVE SMOOTH",
"78 228 LINE SMOOTH",
"78 80 OFFCURVE",
"174 -9 OFFCURVE",
"310 -9 CURVE SMOOTH",
"446 -9 OFFCURVE",
"542 81 OFFCURVE",
"542 228 CURVE SMOOTH",
"542 610 LINE SMOOTH",
"542 632 OFFCURVE",
"533 643 OFFCURVE",
"516 643 CURVE SMOOTH",
"499 643 OFFCURVE",
"490 632 OFFCURVE",
"490 611 CURVE SMOOTH",
"490 229 LINE SMOOTH"
);
}
);
width = 620;
}
);
leftKerningGroup = U;
note = Ugrave;
rightKerningGroup = U;
unicode = 00D9;
},
{
glyphname = Uacute;
lastChange = "2016-07-31 02:25:57 +0000";
layers = (
{
layerId = "7FF32B46-F6F7-4405-9AA0-D8922FAB2D23";
paths = (
{
closed = 1;
nodes = (
"437 768 OFFCURVE",
"440 776 OFFCURVE",
"440 783 CURVE SMOOTH",
"440 798 OFFCURVE",
"427 809 OFFCURVE",
"414 809 CURVE SMOOTH",
"407 809 OFFCURVE",
"399 804 OFFCURVE",
"390 794 CURVE",
"294 679 LINE SMOOTH",
"288 672 OFFCURVE",
"285 664 OFFCURVE",
"285 657 CURVE SMOOTH",
"285 642 OFFCURVE",
"299 631 OFFCURVE",
"312 631 CURVE SMOOTH",
"319 631 OFFCURVE",
"326 636 OFFCURVE",
"335 646 CURVE",
"431 761 LINE SMOOTH"
);
},
{
closed = 1;
nodes = (
"490 112 OFFCURVE",
"425 43 OFFCURVE",
"310 43 CURVE SMOOTH",
"195 43 OFFCURVE",
"130 112 OFFCURVE",
"130 229 CURVE SMOOTH",
"130 611 LINE SMOOTH",
"130 632 OFFCURVE",
"121 643 OFFCURVE",
"104 643 CURVE SMOOTH",
"87 643 OFFCURVE",
"78 632 OFFCURVE",
"78 610 CURVE SMOOTH",
"78 228 LINE SMOOTH",
"78 80 OFFCURVE",
"174 -9 OFFCURVE",
"310 -9 CURVE SMOOTH",
"446 -9 OFFCURVE",
"542 81 OFFCURVE",
"542 228 CURVE SMOOTH",
"542 610 LINE SMOOTH",
"542 632 OFFCURVE",
"533 643 OFFCURVE",
"516 643 CURVE SMOOTH",
"499 643 OFFCURVE",
"490 632 OFFCURVE",
"490 611 CURVE SMOOTH",
"490 229 LINE SMOOTH"
);
}
);
width = 620;
}
);
leftKerningGroup = U;
note = Uacute;
rightKerningGroup = U;
unicode = 00DA;
},
{
glyphname = Ucircumflex;
lastChange = "2016-07-31 02:25:57 +0000";
layers = (
{
layerId = "7FF32B46-F6F7-4405-9AA0-D8922FAB2D23";
paths = (
{
closed = 1;
nodes = (
"171 682 OFFCURVE",
"169 676 OFFCURVE",
"169 669 CURVE SMOOTH",
"169 654 OFFCURVE",
"177 646 OFFCURVE",
"192 646 CURVE",
"199 647 OFFCURVE",
"203 648 OFFCURVE",
"206 651 CURVE SMOOTH",
"207 652 OFFCURVE",
"209 654 OFFCURVE",
"210 655 CURVE SMOOTH",
"211 656 OFFCURVE",
"213 657 OFFCURVE",
"215 660 CURVE SMOOTH",
"217 663 OFFCURVE",
"219 665 OFFCURVE",
"220 666 CURVE SMOOTH",
"310 762 LINE",
"401 666 LINE SMOOTH",
"402 665 OFFCURVE",
"405 662 OFFCURVE",
"410 656 CURVE",
"415 649 OFFCURVE",
"422 646 OFFCURVE",
"429 646 CURVE SMOOTH",
"444 646 OFFCURVE",
"452 654 OFFCURVE",
"452 669 CURVE SMOOTH",
"452 676 OFFCURVE",
"450 682 OFFCURVE",
"446 687 CURVE SMOOTH",
"339 819 LINE",
"280 819 LINE",
"175 687 LINE SMOOTH"
);
},
{
closed = 1;
nodes = (
"490 112 OFFCURVE",
"425 43 OFFCURVE",
"310 43 CURVE SMOOTH",
"195 43 OFFCURVE",
"130 112 OFFCURVE",
"130 229 CURVE SMOOTH",
"130 611 LINE SMOOTH",
"130 632 OFFCURVE",
"121 643 OFFCURVE",
"104 643 CURVE SMOOTH",
"87 643 OFFCURVE",
"78 632 OFFCURVE",
"78 610 CURVE SMOOTH",
"78 228 LINE SMOOTH",
"78 80 OFFCURVE",
"174 -9 OFFCURVE",
"310 -9 CURVE SMOOTH",
"446 -9 OFFCURVE",
"542 81 OFFCURVE",
"542 228 CURVE SMOOTH",
"542 610 LINE SMOOTH",
"542 632 OFFCURVE",
"533 643 OFFCURVE",
"516 643 CURVE SMOOTH",
"499 643 OFFCURVE",
"490 632 OFFCURVE",
"490 611 CURVE SMOOTH",
"490 229 LINE SMOOTH"
);
}
);
width = 620;
}
);
leftKerningGroup = U;
note = Ucircumflex;
rightKerningGroup = U;
unicode = 00DB;
},
{
glyphname = Udieresis;
lastChange = "2016-07-31 02:25:57 +0000";
layers = (
{
layerId = "7FF32B46-F6F7-4405-9AA0-D8922FAB2D23";
paths = (
{
closed = 1;
nodes = (
"187 720 OFFCURVE",
"216 702 OFFCURVE",
"238 702 CURVE SMOOTH",
"260 702 OFFCURVE",
"289 720 OFFCURVE",
"289 743 CURVE SMOOTH",
"289 766 OFFCURVE",
"260 784 OFFCURVE",
"238 784 CURVE SMOOTH",
"216 784 OFFCURVE",
"187 766 OFFCURVE",
"187 743 CURVE SMOOTH"
);
},
{
closed = 1;
nodes = (
"333 720 OFFCURVE",
"362 702 OFFCURVE",
"384 702 CURVE SMOOTH",
"406 702 OFFCURVE",
"435 720 OFFCURVE",
"435 743 CURVE SMOOTH",
"435 766 OFFCURVE",
"406 784 OFFCURVE",
"384 784 CURVE SMOOTH",
"362 784 OFFCURVE",
"333 766 OFFCURVE",
"333 743 CURVE SMOOTH"
);
},
{
closed = 1;
nodes = (
"490 112 OFFCURVE",
"425 43 OFFCURVE",
"310 43 CURVE SMOOTH",
"195 43 OFFCURVE",
"130 112 OFFCURVE",
"130 229 CURVE SMOOTH",
"130 611 LINE SMOOTH",
"130 632 OFFCURVE",
"121 643 OFFCURVE",
"104 643 CURVE SMOOTH",
"87 643 OFFCURVE",
"78 632 OFFCURVE",
"78 610 CURVE SMOOTH",
"78 228 LINE SMOOTH",
"78 80 OFFCURVE",
"174 -9 OFFCURVE",
"310 -9 CURVE SMOOTH",
"446 -9 OFFCURVE",
"542 81 OFFCURVE",
"542 228 CURVE SMOOTH",
"542 610 LINE SMOOTH",
"542 632 OFFCURVE",
"533 643 OFFCURVE",
"516 643 CURVE SMOOTH",
"499 643 OFFCURVE",
"490 632 OFFCURVE",
"490 611 CURVE SMOOTH",
"490 229 LINE SMOOTH"
);
}
);
width = 620;
}
);
leftKerningGroup = U;
note = Udieresis;
rightKerningGroup = U;
unicode = 00DC;
},
{
glyphname = Yacute;
lastChange = "2016-07-31 02:25:57 +0000";
layers = (
{
layerId = "7FF32B46-F6F7-4405-9AA0-D8922FAB2D23";
paths = (
{
closed = 1;
nodes = (
"387 768 OFFCURVE",
"390 776 OFFCURVE",
"390 783 CURVE SMOOTH",
"390 798 OFFCURVE",
"377 809 OFFCURVE",
"364 809 CURVE SMOOTH",
"357 809 OFFCURVE",
"349 804 OFFCURVE",
"340 794 CURVE",
"244 679 LINE SMOOTH",
"238 672 OFFCURVE",
"235 664 OFFCURVE",
"235 657 CURVE SMOOTH",
"235 642 OFFCURVE",
"249 631 OFFCURVE",
"262 631 CURVE SMOOTH",
"269 631 OFFCURVE",
"276 636 OFFCURVE",
"285 646 CURVE",
"381 761 LINE SMOOTH"
);
},
{
closed = 1;
nodes = (
"234 3 OFFCURVE",
"243 -7 OFFCURVE",
"260 -7 CURVE SMOOTH",
"277 -7 OFFCURVE",
"286 3 OFFCURVE",
"287 24 CURVE",
"287 308 LINE",
"495 597 LINE SMOOTH",
"500 604 OFFCURVE",
"503 611 OFFCURVE",
"503 618 CURVE SMOOTH",
"503 631 OFFCURVE",
"489 643 OFFCURVE",
"476 643 CURVE SMOOTH",
"469 643 OFFCURVE",
"461 637 OFFCURVE",
"452 625 CURVE SMOOTH",
"260 358 LINE",
"67 625 LINE SMOOTH",
"58 637 OFFCURVE",
"50 643 OFFCURVE",
"43 643 CURVE SMOOTH",
"30 643 OFFCURVE",
"17 632 OFFCURVE",
"17 619 CURVE SMOOTH",
"17 612 OFFCURVE",
"20 605 OFFCURVE",
"25 597 CURVE",
"234 308 LINE",
"234 24 LINE SMOOTH"
);
}
);
width = 521;
}
);
leftKerningGroup = Y;
note = Yacute;
rightKerningGroup = Y;
unicode = 00DD;
},
{
glyphname = Thorn;
lastChange = "2016-07-31 02:24:38 +0000";
layers = (
{
layerId = "7FF32B46-F6F7-4405-9AA0-D8922FAB2D23";
paths = (
{
closed = 1;
nodes = (
"136 595 OFFCURVE",
"127 606 OFFCURVE",
"110 606 CURVE SMOOTH",
"93 606 OFFCURVE",
"84 595 OFFCURVE",
"84 573 CURVE SMOOTH",
"84 25 LINE SMOOTH",
"84 4 OFFCURVE",
"93 -7 OFFCURVE",
"110 -7 CURVE SMOOTH",
"127 -7 OFFCURVE",
"136 4 OFFCURVE",
"136 25 CURVE SMOOTH",
"136 159 LINE",
"310 159 LINE SMOOTH",
"419 159 OFFCURVE",
"485 213 OFFCURVE",
"485 313 CURVE SMOOTH",
"485 413 OFFCURVE",
"420 466 OFFCURVE",
"311 466 CURVE SMOOTH",
"136 466 LINE",
"136 573 LINE SMOOTH"
);
},
{
closed = 1;
nodes = (
"390 414 OFFCURVE",
"432 394 OFFCURVE",
"432 310 CURVE SMOOTH",
"432 226 OFFCURVE",
"390 208 OFFCURVE",
"265 208 CURVE SMOOTH",
"136 208 LINE",
"136 414 LINE",
"266 414 LINE SMOOTH"
);
}
);
width = 520;
}
);
leftKerningGroup = B;
note = Thorn;
rightKerningGroup = Thorn;
unicode = 00DE;
},
{
glyphname = germandbls;
lastChange = "2016-07-31 02:24:38 +0000";
layers = (
{
layerId = "7FF32B46-F6F7-4405-9AA0-D8922FAB2D23";
paths = (
{
closed = 1;
nodes = (
"208 116 OFFCURVE",
"199 127 OFFCURVE",
"180 127 CURVE SMOOTH",
"161 127 OFFCURVE",
"152 112 OFFCURVE",
"152 83 CURVE SMOOTH",
"152 23 OFFCURVE",
"213 -20 OFFCURVE",
"284 -20 CURVE SMOOTH",
"355 -20 OFFCURVE",
"426 40 OFFCURVE",
"426 196 CURVE SMOOTH",
"426 293 OFFCURVE",
"379 356 OFFCURVE",
"284 383 CURVE",
"333 415 OFFCURVE",
"358 461 OFFCURVE",
"358 520 CURVE SMOOTH",
"358 583 OFFCURVE",
"305 636 OFFCURVE",
"241 636 CURVE SMOOTH",
"208 636 OFFCURVE",
"184 634 OFFCURVE",
"167 630 CURVE SMOOTH",
"100 613 OFFCURVE",
"65 556 OFFCURVE",
"63 461 CURVE",
"42 460 OFFCURVE",
"32 451 OFFCURVE",
"32 436 CURVE SMOOTH",
"32 420 OFFCURVE",
"42 411 OFFCURVE",
"63 410 CURVE",
"63 29 LINE SMOOTH",
"63 5 OFFCURVE",
"72 -7 OFFCURVE",
"89 -7 CURVE SMOOTH",
"106 -7 OFFCURVE",
"115 5 OFFCURVE",
"115 29 CURVE SMOOTH",
"115 461 LINE SMOOTH",
"115 565 OFFCURVE",
"151 584 OFFCURVE",
"215 584 CURVE SMOOTH",
"279 584 OFFCURVE",
"306 558 OFFCURVE",
"306 526 CURVE SMOOTH",
"306 509 OFFCURVE",
"304 495 OFFCURVE",
"300 483 CURVE SMOOTH",
"284 430 OFFCURVE",
"238 404 OFFCURVE",
"163 404 CURVE",
"163 353 LINE",
"246 353 OFFCURVE",
"307 331 OFFCURVE",
"344 288 CURVE SMOOTH",
"364 264 OFFCURVE",
"374 234 OFFCURVE",
"374 197 CURVE SMOOTH",
"374 134 OFFCURVE",
"365 91 OFFCURVE",
"347 68 CURVE SMOOTH",
"329 44 OFFCURVE",
"308 32 OFFCURVE",
"284 32 CURVE SMOOTH",
"233 32 OFFCURVE",
"208 52 OFFCURVE",
"208 93 CURVE SMOOTH"
);
}
);
width = 464;
}
);
leftKerningGroup = f;
note = germandbls;
rightKerningGroup = germandbls;
unicode = 00DF;
},
{
glyphname = agrave;
lastChange = "2016-07-31 02:25:57 +0000";
layers = (
{
layerId = "7FF32B46-F6F7-4405-9AA0-D8922FAB2D23";
paths = (
{
closed = 1;
nodes = (
"165 647 OFFCURVE",
"168 639 OFFCURVE",
"174 632 CURVE SMOOTH",
"270 517 LINE",
"279 507 OFFCURVE",
"287 502 OFFCURVE",
"294 502 CURVE SMOOTH",
"307 502 OFFCURVE",
"320 512 OFFCURVE",
"320 528 CURVE SMOOTH",
"320 535 OFFCURVE",
"317 543 OFFCURVE",
"311 550 CURVE SMOOTH",
"215 665 LINE",
"206 675 OFFCURVE",
"199 680 OFFCURVE",
"192 680 CURVE SMOOTH",
"178 680 OFFCURVE",
"165 669 OFFCURVE",
"165 654 CURVE SMOOTH"
);
},
{
closed = 1;
nodes = (
"139 52 OFFCURVE",
"112 81 OFFCURVE",
"112 127 CURVE SMOOTH",
"112 173 OFFCURVE",
"119 206 OFFCURVE",
"160 227 CURVE SMOOTH",
"180 238 OFFCURVE",
"221 243 OFFCURVE",
"283 243 CURVE SMOOTH",
"430 243 LINE",
"430 228 LINE SMOOTH",
"430 111 OFFCURVE",
"373 52 OFFCURVE",
"260 52 CURVE SMOOTH",
"167 52 LINE SMOOTH"
);
},
{
closed = 1;
nodes = (
"60 326 OFFCURVE",
"69 314 OFFCURVE",
"86 314 CURVE SMOOTH",
"103 314 OFFCURVE",
"112 326 OFFCURVE",
"112 349 CURVE SMOOTH",
"112 389 OFFCURVE",
"153 409 OFFCURVE",
"234 409 CURVE SMOOTH",
"375 409 LINE SMOOTH",
"418 409 OFFCURVE",
"430 393 OFFCURVE",
"430 352 CURVE SMOOTH",
"430 295 LINE",
"283 295 LINE SMOOTH",
"131 295 OFFCURVE",
"60 258 OFFCURVE",
"60 123 CURVE SMOOTH",
"60 48 OFFCURVE",
"104 0 OFFCURVE",
"167 0 CURVE SMOOTH",
"260 0 LINE SMOOTH",
"335 0 OFFCURVE",
"392 21 OFFCURVE",
"430 63 CURVE",
"430 28 LINE SMOOTH",
"430 5 OFFCURVE",
"439 -7 OFFCURVE",
"456 -7 CURVE SMOOTH",
"473 -7 OFFCURVE",
"482 4 OFFCURVE",
"482 27 CURVE SMOOTH",
"482 335 LINE SMOOTH",
"482 428 OFFCURVE",
"459 461 OFFCURVE",
"382 461 CURVE SMOOTH",
"227 461 LINE SMOOTH",
"116 461 OFFCURVE",
"60 424 OFFCURVE",
"60 349 CURVE SMOOTH"
);
}
);
width = 554;
}
);
leftKerningGroup = a;
note = agrave;
rightKerningGroup = a;
unicode = 00E0;
},
{
glyphname = aacute;
lastChange = "2016-07-31 02:25:57 +0000";
layers = (
{
layerId = "7FF32B46-F6F7-4405-9AA0-D8922FAB2D23";
paths = (
{
closed = 1;
nodes = (
"398 642 OFFCURVE",
"401 650 OFFCURVE",
"401 657 CURVE SMOOTH",
"401 672 OFFCURVE",
"388 683 OFFCURVE",
"375 683 CURVE SMOOTH",
"368 683 OFFCURVE",
"360 678 OFFCURVE",
"351 668 CURVE",
"255 553 LINE SMOOTH",
"249 546 OFFCURVE",
"246 538 OFFCURVE",
"246 531 CURVE SMOOTH",
"246 516 OFFCURVE",
"260 505 OFFCURVE",
"273 505 CURVE SMOOTH",
"280 505 OFFCURVE",
"287 510 OFFCURVE",
"296 520 CURVE",
"392 635 LINE SMOOTH"
);
},
{
closed = 1;
nodes = (
"139 52 OFFCURVE",
"112 81 OFFCURVE",
"112 127 CURVE SMOOTH",
"112 173 OFFCURVE",
"119 206 OFFCURVE",
"160 227 CURVE SMOOTH",
"180 238 OFFCURVE",
"221 243 OFFCURVE",
"283 243 CURVE SMOOTH",
"430 243 LINE",
"430 228 LINE SMOOTH",
"430 111 OFFCURVE",
"373 52 OFFCURVE",
"260 52 CURVE SMOOTH",
"167 52 LINE SMOOTH"
);
},
{
closed = 1;
nodes = (
"60 326 OFFCURVE",
"69 314 OFFCURVE",
"86 314 CURVE SMOOTH",
"103 314 OFFCURVE",
"112 326 OFFCURVE",
"112 349 CURVE SMOOTH",
"112 389 OFFCURVE",
"153 409 OFFCURVE",
"234 409 CURVE SMOOTH",
"375 409 LINE SMOOTH",
"418 409 OFFCURVE",
"430 393 OFFCURVE",
"430 352 CURVE SMOOTH",
"430 295 LINE",
"283 295 LINE SMOOTH",
"131 295 OFFCURVE",
"60 258 OFFCURVE",
"60 123 CURVE SMOOTH",
"60 48 OFFCURVE",
"104 0 OFFCURVE",
"167 0 CURVE SMOOTH",
"260 0 LINE SMOOTH",
"335 0 OFFCURVE",
"392 21 OFFCURVE",
"430 63 CURVE",
"430 28 LINE SMOOTH",
"430 5 OFFCURVE",
"439 -7 OFFCURVE",
"456 -7 CURVE SMOOTH",
"473 -7 OFFCURVE",
"482 4 OFFCURVE",
"482 27 CURVE SMOOTH",
"482 335 LINE SMOOTH",
"482 428 OFFCURVE",
"459 461 OFFCURVE",
"382 461 CURVE SMOOTH",
"227 461 LINE SMOOTH",
"116 461 OFFCURVE",
"60 424 OFFCURVE",
"60 349 CURVE SMOOTH"
);
}
);
width = 554;
}
);
leftKerningGroup = a;
note = aacute;
rightKerningGroup = a;
unicode = 00E1;
},
{
glyphname = acircumflex;
lastChange = "2016-07-31 02:25:57 +0000";
layers = (
{
layerId = "7FF32B46-F6F7-4405-9AA0-D8922FAB2D23";
paths = (
{
closed = 1;
nodes = (
"132 553 OFFCURVE",
"130 547 OFFCURVE",
"130 540 CURVE SMOOTH",
"130 525 OFFCURVE",
"138 517 OFFCURVE",
"153 517 CURVE",
"160 518 OFFCURVE",
"164 519 OFFCURVE",
"167 522 CURVE SMOOTH",
"168 523 OFFCURVE",
"170 525 OFFCURVE",
"171 526 CURVE SMOOTH",
"172 527 OFFCURVE",
"174 528 OFFCURVE",
"176 531 CURVE SMOOTH",
"178 534 OFFCURVE",
"180 536 OFFCURVE",
"181 537 CURVE SMOOTH",
"271 633 LINE",
"362 537 LINE SMOOTH",
"363 536 OFFCURVE",
"366 533 OFFCURVE",
"371 527 CURVE",
"376 520 OFFCURVE",
"383 517 OFFCURVE",
"390 517 CURVE SMOOTH",
"405 517 OFFCURVE",
"413 525 OFFCURVE",
"413 540 CURVE SMOOTH",
"413 547 OFFCURVE",
"411 553 OFFCURVE",
"407 558 CURVE SMOOTH",
"300 690 LINE",
"241 690 LINE",
"136 558 LINE SMOOTH"
);
},
{
closed = 1;
nodes = (
"139 52 OFFCURVE",
"112 81 OFFCURVE",
"112 127 CURVE SMOOTH",
"112 173 OFFCURVE",
"119 206 OFFCURVE",
"160 227 CURVE SMOOTH",
"180 238 OFFCURVE",
"221 243 OFFCURVE",
"283 243 CURVE SMOOTH",
"430 243 LINE",
"430 228 LINE SMOOTH",
"430 111 OFFCURVE",
"373 52 OFFCURVE",
"260 52 CURVE SMOOTH",
"167 52 LINE SMOOTH"
);
},
{
closed = 1;
nodes = (
"60 326 OFFCURVE",
"69 314 OFFCURVE",
"86 314 CURVE SMOOTH",
"103 314 OFFCURVE",
"112 326 OFFCURVE",
"112 349 CURVE SMOOTH",
"112 389 OFFCURVE",
"153 409 OFFCURVE",
"234 409 CURVE SMOOTH",
"375 409 LINE SMOOTH",
"418 409 OFFCURVE",
"430 393 OFFCURVE",
"430 352 CURVE SMOOTH",
"430 295 LINE",
"283 295 LINE SMOOTH",
"131 295 OFFCURVE",
"60 258 OFFCURVE",
"60 123 CURVE SMOOTH",
"60 48 OFFCURVE",
"104 0 OFFCURVE",
"167 0 CURVE SMOOTH",
"260 0 LINE SMOOTH",
"335 0 OFFCURVE",
"392 21 OFFCURVE",
"430 63 CURVE",
"430 28 LINE SMOOTH",
"430 5 OFFCURVE",
"439 -7 OFFCURVE",
"456 -7 CURVE SMOOTH",
"473 -7 OFFCURVE",
"482 4 OFFCURVE",
"482 27 CURVE SMOOTH",
"482 335 LINE SMOOTH",
"482 428 OFFCURVE",
"459 461 OFFCURVE",
"382 461 CURVE SMOOTH",
"227 461 LINE SMOOTH",
"116 461 OFFCURVE",
"60 424 OFFCURVE",
"60 349 CURVE SMOOTH"
);
}
);
width = 554;
}
);
leftKerningGroup = a;
note = acircumflex;
rightKerningGroup = a;
unicode = 00E2;
},
{
glyphname = atilde;
lastChange = "2016-07-31 02:25:57 +0000";
layers = (
{
layerId = "7FF32B46-F6F7-4405-9AA0-D8922FAB2D23";
paths = (
{
closed = 1;
nodes = (
"202 614 OFFCURVE",
"196 611 OFFCURVE",
"191 605 CURVE",
"145 567 LINE SMOOTH",
"136 560 OFFCURVE",
"131 552 OFFCURVE",
"131 543 CURVE SMOOTH",
"131 526 OFFCURVE",
"144 517 OFFCURVE",
"156 517 CURVE SMOOTH",
"162 517 OFFCURVE",
"169 520 OFFCURVE",
"178 526 CURVE",
"209 554 LINE",
"212 557 OFFCURVE",
"215 558 OFFCURVE",
"218 558 CURVE SMOOTH",
"220 558 OFFCURVE",
"222 557 OFFCURVE",
"223 556 CURVE",
"321 520 LINE",
"322 520 LINE SMOOTH",
"325 520 OFFCURVE",
"328 519 OFFCURVE",
"329 518 CURVE",
"338 518 LINE SMOOTH",
"342 518 OFFCURVE",
"347 521 OFFCURVE",
"352 526 CURVE",
"399 565 LINE",
"408 574 OFFCURVE",
"413 583 OFFCURVE",
"413 592 CURVE SMOOTH",
"413 607 OFFCURVE",
"404 615 OFFCURVE",
"387 615 CURVE SMOOTH",
"381 615 OFFCURVE",
"374 612 OFFCURVE",
"365 606 CURVE",
"334 578 LINE",
"331 575 OFFCURVE",
"328 574 OFFCURVE",
"326 574 CURVE",
"321 576 LINE",
"223 612 LINE",
"210 614 LINE"
);
},
{
closed = 1;
nodes = (
"139 52 OFFCURVE",
"112 81 OFFCURVE",
"112 127 CURVE SMOOTH",
"112 173 OFFCURVE",
"119 206 OFFCURVE",
"160 227 CURVE SMOOTH",
"180 238 OFFCURVE",
"221 243 OFFCURVE",
"283 243 CURVE SMOOTH",
"430 243 LINE",
"430 228 LINE SMOOTH",
"430 111 OFFCURVE",
"373 52 OFFCURVE",
"260 52 CURVE SMOOTH",
"167 52 LINE SMOOTH"
);
},
{
closed = 1;
nodes = (
"60 326 OFFCURVE",
"69 314 OFFCURVE",
"86 314 CURVE SMOOTH",
"103 314 OFFCURVE",
"112 326 OFFCURVE",
"112 349 CURVE SMOOTH",
"112 389 OFFCURVE",
"153 409 OFFCURVE",
"234 409 CURVE SMOOTH",
"375 409 LINE SMOOTH",
"418 409 OFFCURVE",
"430 393 OFFCURVE",
"430 352 CURVE SMOOTH",
"430 295 LINE",
"283 295 LINE SMOOTH",
"131 295 OFFCURVE",
"60 258 OFFCURVE",
"60 123 CURVE SMOOTH",
"60 48 OFFCURVE",
"104 0 OFFCURVE",
"167 0 CURVE SMOOTH",
"260 0 LINE SMOOTH",
"335 0 OFFCURVE",
"392 21 OFFCURVE",
"430 63 CURVE",
"430 28 LINE SMOOTH",
"430 5 OFFCURVE",
"439 -7 OFFCURVE",
"456 -7 CURVE SMOOTH",
"473 -7 OFFCURVE",
"482 4 OFFCURVE",
"482 27 CURVE SMOOTH",
"482 335 LINE SMOOTH",
"482 428 OFFCURVE",
"459 461 OFFCURVE",
"382 461 CURVE SMOOTH",
"227 461 LINE SMOOTH",
"116 461 OFFCURVE",
"60 424 OFFCURVE",
"60 349 CURVE SMOOTH"
);
}
);
width = 554;
}
);
leftKerningGroup = a;
note = atilde;
rightKerningGroup = a;
unicode = 00E3;
},
{
glyphname = adieresis;
lastChange = "2016-07-31 02:25:57 +0000";
layers = (
{
layerId = "7FF32B46-F6F7-4405-9AA0-D8922FAB2D23";
paths = (
{
closed = 1;
nodes = (
"147 535 OFFCURVE",
"176 517 OFFCURVE",
"198 517 CURVE SMOOTH",
"220 517 OFFCURVE",
"249 535 OFFCURVE",
"249 558 CURVE SMOOTH",
"249 581 OFFCURVE",
"220 599 OFFCURVE",
"198 599 CURVE SMOOTH",
"176 599 OFFCURVE",
"147 581 OFFCURVE",
"147 558 CURVE SMOOTH"
);
},
{
closed = 1;
nodes = (
"293 535 OFFCURVE",
"322 517 OFFCURVE",
"344 517 CURVE SMOOTH",
"366 517 OFFCURVE",
"395 535 OFFCURVE",
"395 558 CURVE SMOOTH",
"395 581 OFFCURVE",
"366 599 OFFCURVE",
"344 599 CURVE SMOOTH",
"322 599 OFFCURVE",
"293 581 OFFCURVE",
"293 558 CURVE SMOOTH"
);
},
{
closed = 1;
nodes = (
"139 52 OFFCURVE",
"112 81 OFFCURVE",
"112 127 CURVE SMOOTH",
"112 173 OFFCURVE",
"119 206 OFFCURVE",
"160 227 CURVE SMOOTH",
"180 238 OFFCURVE",
"221 243 OFFCURVE",
"283 243 CURVE SMOOTH",
"430 243 LINE",
"430 228 LINE SMOOTH",
"430 111 OFFCURVE",
"373 52 OFFCURVE",
"260 52 CURVE SMOOTH",
"167 52 LINE SMOOTH"
);
},
{
closed = 1;
nodes = (
"60 326 OFFCURVE",
"69 314 OFFCURVE",
"86 314 CURVE SMOOTH",
"103 314 OFFCURVE",
"112 326 OFFCURVE",
"112 349 CURVE SMOOTH",
"112 389 OFFCURVE",
"153 409 OFFCURVE",
"234 409 CURVE SMOOTH",
"375 409 LINE SMOOTH",
"418 409 OFFCURVE",
"430 393 OFFCURVE",
"430 352 CURVE SMOOTH",
"430 295 LINE",
"283 295 LINE SMOOTH",
"131 295 OFFCURVE",
"60 258 OFFCURVE",
"60 123 CURVE SMOOTH",
"60 48 OFFCURVE",
"104 0 OFFCURVE",
"167 0 CURVE SMOOTH",
"260 0 LINE SMOOTH",
"335 0 OFFCURVE",
"392 21 OFFCURVE",
"430 63 CURVE",
"430 28 LINE SMOOTH",
"430 5 OFFCURVE",
"439 -7 OFFCURVE",
"456 -7 CURVE SMOOTH",
"473 -7 OFFCURVE",
"482 4 OFFCURVE",
"482 27 CURVE SMOOTH",
"482 335 LINE SMOOTH",
"482 428 OFFCURVE",
"459 461 OFFCURVE",
"382 461 CURVE SMOOTH",
"227 461 LINE SMOOTH",
"116 461 OFFCURVE",
"60 424 OFFCURVE",
"60 349 CURVE SMOOTH"
);
}
);
width = 554;
}
);
leftKerningGroup = a;
note = adieresis;
rightKerningGroup = a;
unicode = 00E4;
},
{
glyphname = aring;
lastChange = "2016-07-31 02:25:57 +0000";
layers = (
{
layerId = "7FF32B46-F6F7-4405-9AA0-D8922FAB2D23";
paths = (
{
closed = 1;
nodes = (
"295 642 OFFCURVE",
"316 622 OFFCURVE",
"316 598 CURVE SMOOTH",
"316 574 OFFCURVE",
"295 554 OFFCURVE",
"272 554 CURVE SMOOTH",
"248 554 OFFCURVE",
"228 574 OFFCURVE",
"228 598 CURVE SMOOTH",
"228 621 OFFCURVE",
"248 642 OFFCURVE",
"272 642 CURVE SMOOTH"
);
},
{
closed = 1;
nodes = (
"199 640 OFFCURVE",
"191 621 OFFCURVE",
"191 598 CURVE SMOOTH",
"191 553 OFFCURVE",
"227 517 OFFCURVE",
"272 517 CURVE SMOOTH",
"317 517 OFFCURVE",
"353 553 OFFCURVE",
"353 598 CURVE SMOOTH",
"353 643 OFFCURVE",
"317 679 OFFCURVE",
"272 679 CURVE SMOOTH",
"249 679 OFFCURVE",
"230 671 OFFCURVE",
"215 656 CURVE SMOOTH"
);
},
{
closed = 1;
nodes = (
"139 52 OFFCURVE",
"112 81 OFFCURVE",
"112 127 CURVE SMOOTH",
"112 173 OFFCURVE",
"119 206 OFFCURVE",
"160 227 CURVE SMOOTH",
"180 238 OFFCURVE",
"221 243 OFFCURVE",
"283 243 CURVE SMOOTH",
"430 243 LINE",
"430 228 LINE SMOOTH",
"430 111 OFFCURVE",
"373 52 OFFCURVE",
"260 52 CURVE SMOOTH",
"167 52 LINE SMOOTH"
);
},
{
closed = 1;
nodes = (
"60 326 OFFCURVE",
"69 314 OFFCURVE",
"86 314 CURVE SMOOTH",
"103 314 OFFCURVE",
"112 326 OFFCURVE",
"112 349 CURVE SMOOTH",
"112 389 OFFCURVE",
"153 409 OFFCURVE",
"234 409 CURVE SMOOTH",
"375 409 LINE SMOOTH",
"418 409 OFFCURVE",
"430 393 OFFCURVE",
"430 352 CURVE SMOOTH",
"430 295 LINE",
"283 295 LINE SMOOTH",
"131 295 OFFCURVE",
"60 258 OFFCURVE",
"60 123 CURVE SMOOTH",
"60 48 OFFCURVE",
"104 0 OFFCURVE",
"167 0 CURVE SMOOTH",
"260 0 LINE SMOOTH",
"335 0 OFFCURVE",
"392 21 OFFCURVE",
"430 63 CURVE",
"430 28 LINE SMOOTH",
"430 5 OFFCURVE",
"439 -7 OFFCURVE",
"456 -7 CURVE SMOOTH",
"473 -7 OFFCURVE",
"482 4 OFFCURVE",
"482 27 CURVE SMOOTH",
"482 335 LINE SMOOTH",
"482 428 OFFCURVE",
"459 461 OFFCURVE",
"382 461 CURVE SMOOTH",
"227 461 LINE SMOOTH",
"116 461 OFFCURVE",
"60 424 OFFCURVE",
"60 349 CURVE SMOOTH"
);
}
);
width = 554;
}
);
leftKerningGroup = a;
note = aring;
rightKerningGroup = a;
unicode = 00E5;
},
{
glyphname = ae;
lastChange = "2016-07-31 02:24:38 +0000";
layers = (
{
layerId = "7FF32B46-F6F7-4405-9AA0-D8922FAB2D23";
paths = (
{
closed = 1;
nodes = (
"139 52 OFFCURVE",
"112 81 OFFCURVE",
"112 127 CURVE SMOOTH",
"112 173 OFFCURVE",
"119 206 OFFCURVE",
"160 227 CURVE SMOOTH",
"180 238 OFFCURVE",
"221 243 OFFCURVE",
"283 243 CURVE SMOOTH",
"430 243 LINE",
"430 228 LINE SMOOTH",
"430 111 OFFCURVE",
"373 52 OFFCURVE",
"260 52 CURVE SMOOTH",
"167 52 LINE SMOOTH"
);
},
{
closed = 1;
nodes = (
"789 409 OFFCURVE",
"831 391 OFFCURVE",
"832 295 CURVE",
"483 295 LINE",
"484 391 OFFCURVE",
"526 409 OFFCURVE",
"654 409 CURVE SMOOTH",
"662 409 LINE SMOOTH"
);
},
{
closed = 1;
nodes = (
"60 326 OFFCURVE",
"69 314 OFFCURVE",
"86 314 CURVE SMOOTH",
"103 314 OFFCURVE",
"112 326 OFFCURVE",
"112 349 CURVE SMOOTH",
"112 389 OFFCURVE",
"153 409 OFFCURVE",
"234 409 CURVE SMOOTH",
"375 409 LINE SMOOTH",
"418 409 OFFCURVE",
"430 393 OFFCURVE",
"430 352 CURVE SMOOTH",
"430 295 LINE",
"283 295 LINE SMOOTH",
"131 295 OFFCURVE",
"60 258 OFFCURVE",
"60 123 CURVE SMOOTH",
"60 48 OFFCURVE",
"104 0 OFFCURVE",
"167 0 CURVE SMOOTH",
"260 0 LINE SMOOTH",
"325 0 OFFCURVE",
"413 30 OFFCURVE",
"449 78 CURVE",
"480 18 OFFCURVE",
"543 0 OFFCURVE",
"654 0 CURVE SMOOTH",
"784 0 LINE SMOOTH",
"827 0 OFFCURVE",
"855 12 OFFCURVE",
"868 36 CURVE SMOOTH",
"881 60 OFFCURVE",
"884 78 OFFCURVE",
"884 118 CURVE SMOOTH",
"884 137 OFFCURVE",
"875 147 OFFCURVE",
"858 147 CURVE SMOOTH",
"841 147 OFFCURVE",
"832 136 OFFCURVE",
"832 114 CURVE SMOOTH",
"832 69 OFFCURVE",
"820 52 OFFCURVE",
"777 52 CURVE SMOOTH",
"654 52 LINE SMOOTH",
"530 52 OFFCURVE",
"483 66 OFFCURVE",
"483 177 CURVE SMOOTH",
"483 243 LINE",
"884 243 LINE",
"884 285 LINE SMOOTH",
"884 425 OFFCURVE",
"815 461 OFFCURVE",
"662 461 CURVE SMOOTH",
"654 461 LINE SMOOTH",
"563 461 OFFCURVE",
"503 445 OFFCURVE",
"472 414 CURVE",
"459 445 OFFCURVE",
"429 461 OFFCURVE",
"382 461 CURVE SMOOTH",
"227 461 LINE SMOOTH",
"116 461 OFFCURVE",
"60 424 OFFCURVE",
"60 349 CURVE SMOOTH"
);
}
);
width = 944;
}
);
leftKerningGroup = a;
note = ae;
rightKerningGroup = e;
unicode = 00E6;
},
{
glyphname = ccedilla;
lastChange = "2016-07-31 02:24:38 +0000";
layers = (
{
layerId = "7FF32B46-F6F7-4405-9AA0-D8922FAB2D23";
paths = (
{
closed = 1;
nodes = (
"271 -25 OFFCURVE",
"288 -51 OFFCURVE",
"321 -76 CURVE SMOOTH",
"332 -84 OFFCURVE",
"337 -92 OFFCURVE",
"337 -99 CURVE SMOOTH",
"337 -116 OFFCURVE",
"323 -125 OFFCURVE",
"295 -125 CURVE SMOOTH",
"286 -125 OFFCURVE",
"273 -122 OFFCURVE",
"258 -116 CURVE SMOOTH",
"243 -110 OFFCURVE",
"233 -107 OFFCURVE",
"229 -107 CURVE SMOOTH",
"219 -107 OFFCURVE",
"214 -114 OFFCURVE",
"214 -129 CURVE SMOOTH",
"214 -158 OFFCURVE",
"257 -175 OFFCURVE",
"301 -175 CURVE SMOOTH",
"344 -175 OFFCURVE",
"389 -142 OFFCURVE",
"389 -94 CURVE SMOOTH",
"389 -70 OFFCURVE",
"375 -50 OFFCURVE",
"348 -35 CURVE SMOOTH",
"333 -26 OFFCURVE",
"324 -15 OFFCURVE",
"321 0 CURVE",
"426 0 LINE SMOOTH",
"427 0 OFFCURVE",
"428 0 OFFCURVE",
"429 0 CURVE SMOOTH",
"470 0 OFFCURVE",
"497 12 OFFCURVE",
"510 36 CURVE SMOOTH",
"523 60 OFFCURVE",
"526 78 OFFCURVE",
"526 118 CURVE SMOOTH",
"526 137 OFFCURVE",
"517 147 OFFCURVE",
"500 147 CURVE SMOOTH",
"483 147 OFFCURVE",
"474 136 OFFCURVE",
"474 114 CURVE SMOOTH",
"474 69 OFFCURVE",
"462 52 OFFCURVE",
"419 52 CURVE SMOOTH",
"285 52 LINE SMOOTH",
"161 52 OFFCURVE",
"114 66 OFFCURVE",
"114 177 CURVE SMOOTH",
"114 284 LINE SMOOTH",
"114 341 OFFCURVE",
"121 372 OFFCURVE",
"162 393 CURVE SMOOTH",
"182 404 OFFCURVE",
"223 409 OFFCURVE",
"285 409 CURVE SMOOTH",
"419 409 LINE SMOOTH",
"460 409 OFFCURVE",
"474 393 OFFCURVE",
"474 348 CURVE SMOOTH",
"474 325 OFFCURVE",
"483 314 OFFCURVE",
"500 314 CURVE SMOOTH",
"517 314 OFFCURVE",
"526 324 OFFCURVE",
"526 343 CURVE SMOOTH",
"526 362 OFFCURVE",
"525 378 OFFCURVE",
"523 389 CURVE SMOOTH",
"514 437 OFFCURVE",
"482 461 OFFCURVE",
"426 461 CURVE SMOOTH",
"285 461 LINE SMOOTH",
"132 461 OFFCURVE",
"62 425 OFFCURVE",
"62 285 CURVE SMOOTH",
"62 176 LINE SMOOTH",
"62 41 OFFCURVE",
"127 3 OFFCURVE",
"268 0 CURVE"
);
}
);
width = 584;
}
);
leftKerningGroup = c;
note = ccedilla;
rightKerningGroup = c;
unicode = 00E7;
},
